<svg xmlns="http://www.w3.org/2000/svg" width="1440" height="900"><path d="M769,490L806,328L703,407Z" fill="#612f8b" stroke="#612f8b" stroke-width="1.51"/><path d="M806,328L778,292L703,407Z" fill="#602d89" stroke="#602d89" stroke-width="1.51"/><path d="M931,467L858,281L806,328Z" fill="#5e2c86" stroke="#5e2c86" stroke-width="1.51"/><path d="M806,328L858,281L778,292Z" fill="#5f2c86" stroke="#5f2c86" stroke-width="1.51"/><path d="M769,490L931,467L806,328Z" fill="#602d89" stroke="#602d89" stroke-width="1.51"/><path d="M879,527L931,467L769,490Z" fill="#5e2c86" stroke="#5e2c86" stroke-width="1.51"/><path d="M703,407L588,474L769,490Z" fill="#62308d" stroke="#62308d" stroke-width="1.51"/><path d="M535,254L583,403L703,407Z" fill="#5f2e88" stroke="#5f2e88" stroke-width="1.51"/><path d="M583,403L588,474L703,407Z" fill="#612e8b" stroke="#612e8b" stroke-width="1.51"/><path d="M839,674L979,589L879,527Z" fill="#5b287f" stroke="#5b287f" stroke-width="1.51"/><path d="M858,281L836,165L778,292Z" fill="#5d2b84" stroke="#5d2b84" stroke-width="1.51"/><path d="M1022,346L948,246L858,281Z" fill="#5c2981" stroke="#5c2981" stroke-width="1.51"/><path d="M931,467L1022,346L858,281Z" fill="#5d2a84" stroke="#5d2a84" stroke-width="1.51"/><path d="M778,292L668,174L703,407Z" fill="#602d89" stroke="#602d89" stroke-width="1.51"/><path d="M948,246L836,165L858,281Z" fill="#5c2981" stroke="#5c2981" stroke-width="1.51"/><path d="M836,165L668,174L778,292Z" fill="#5c2b84" stroke="#5c2b84" stroke-width="1.51"/><path d="M879,527L979,589L931,467Z" fill="#5c2a82" stroke="#5c2a82" stroke-width="1.51"/><path d="M931,467L1067,488L1022,346Z" fill="#5c2a83" stroke="#5c2a83" stroke-width="1.51"/><path d="M839,674L879,527L769,490Z" fill="#5d2b84" stroke="#5d2b84" stroke-width="1.51"/><path d="M757,682L839,674L769,490Z" fill="#5c2a82" stroke="#5c2a82" stroke-width="1.51"/><path d="M588,474L607,612L769,490Z" fill="#5f2d88" stroke="#5f2d88" stroke-width="1.51"/><path d="M607,612L757,682L769,490Z" fill="#5e2c86" stroke="#5e2c86" stroke-width="1.51"/><path d="M979,589L1067,488L931,467Z" fill="#5b2981" stroke="#5b2981" stroke-width="1.51"/><path d="M668,174L535,254L703,407Z" fill="#5f2c87" stroke="#5f2c87" stroke-width="1.51"/><path d="M583,403L421,382L588,474Z" fill="#5f2d89" stroke="#5f2d89" stroke-width="1.51"/><path d="M588,474L442,563L607,612Z" fill="#5d2b85" stroke="#5d2b85" stroke-width="1.51"/><path d="M948,246L1023,88L836,165Z" fill="#56267a" stroke="#56267a" stroke-width="1.51"/><path d="M1022,346L1049,173L948,246Z" fill="#5a277e" stroke="#5a277e" stroke-width="1.51"/><path d="M1127,272L1049,173L1022,346Z" fill="#58267b" stroke="#58267b" stroke-width="1.51"/><path d="M668,174L613,95L535,254Z" fill="#5a297f" stroke="#5a297f" stroke-width="1.51"/><path d="M716,16L613,95L668,174Z" fill="#55287a" stroke="#55287a" stroke-width="1.51"/><path d="M716,16L668,174L836,165Z" fill="#57287c" stroke="#57287c" stroke-width="1.51"/><path d="M1023,88L860,56L836,165Z" fill="#532575" stroke="#532575" stroke-width="1.51"/><path d="M535,254L421,382L583,403Z" fill="#5e2c87" stroke="#5e2c87" stroke-width="1.51"/><path d="M420,308L421,382L535,254Z" fill="#5e2b84" stroke="#5e2b84" stroke-width="1.51"/><path d="M1178,347L1127,272L1022,346Z" fill="#552579" stroke="#552579" stroke-width="1.51"/><path d="M839,674L930,815L979,589Z" fill="#552578" stroke="#552578" stroke-width="1.51"/><path d="M1278,521L1159,410L1067,488Z" fill="#532477" stroke="#532477" stroke-width="1.51"/><path d="M757,682L854,774L839,674Z" fill="#552579" stroke="#552579" stroke-width="1.51"/><path d="M746,846L854,774L757,682Z" fill="#502273" stroke="#502273" stroke-width="1.51"/><path d="M1067,488L1159,410L1022,346Z" fill="#59287e" stroke="#59287e" stroke-width="1.51"/><path d="M1099,672L1067,488L979,589Z" fill="#58267b" stroke="#58267b" stroke-width="1.51"/><path d="M607,612L597,736L757,682Z" fill="#5a297f" stroke="#5a297f" stroke-width="1.51"/><path d="M421,382L442,563L588,474Z" fill="#602d88" stroke="#602d88" stroke-width="1.51"/><path d="M454,741L597,736L607,612Z" fill="#57267b" stroke="#57267b" stroke-width="1.51"/><path d="M338,295L420,308L413,125Z" fill="#5c2981" stroke="#5c2981" stroke-width="1.51"/><path d="M1159,410L1178,347L1022,346Z" fill="#552579" stroke="#552579" stroke-width="1.51"/><path d="M1049,173L1023,88L948,246Z" fill="#552577" stroke="#552577" stroke-width="1.51"/><path d="M1159,-35L1023,88L1265,74Z" fill="#451c62" stroke="#451c62" stroke-width="1.51"/><path d="M1265,74L1049,173L1127,272Z" fill="#4e206e" stroke="#4e206e" stroke-width="1.51"/><path d="M720,-159L716,16L875,-180Z" fill="#5b2b82" stroke="#5b2b82" stroke-width="1.51"/><path d="M860,56L716,16L836,165Z" fill="#532676" stroke="#532676" stroke-width="1.51"/><path d="M930,815L1099,672L979,589Z" fill="#542375" stroke="#542375" stroke-width="1.51"/><path d="M1159,410L1363,387L1178,347Z" fill="#4e2171" stroke="#4e2171" stroke-width="1.51"/><path d="M442,563L425,610L607,612Z" fill="#5c2981" stroke="#5c2981" stroke-width="1.51"/><path d="M366,585L425,610L442,563Z" fill="#5b2880" stroke="#5b2880" stroke-width="1.51"/><path d="M1023,88L954,27L860,56Z" fill="#4f236f" stroke="#4f236f" stroke-width="1.51"/><path d="M854,774L930,815L839,674Z" fill="#4f2172" stroke="#4f2172" stroke-width="1.51"/><path d="M902,867L930,815L854,774Z" fill="#491d69" stroke="#491d69" stroke-width="1.51"/><path d="M597,736L663,829L757,682Z" fill="#532477" stroke="#532477" stroke-width="1.51"/><path d="M588,908L663,829L597,736Z" fill="#4a1f6c" stroke="#4a1f6c" stroke-width="1.51"/><path d="M421,382L351,466L442,563Z" fill="#5f2c86" stroke="#5f2c86" stroke-width="1.51"/><path d="M339,331L351,466L421,382Z" fill="#5d2b84" stroke="#5d2b84" stroke-width="1.51"/><path d="M663,829L746,846L757,682Z" fill="#4f2273" stroke="#4f2273" stroke-width="1.51"/><path d="M420,308L339,331L421,382Z" fill="#5e2a84" stroke="#5e2a84" stroke-width="1.51"/><path d="M338,295L339,331L420,308Z" fill="#5b2a81" stroke="#5b2a81" stroke-width="1.51"/><path d="M351,466L366,585L442,563Z" fill="#5c2a82" stroke="#5c2a82" stroke-width="1.51"/><path d="M425,610L454,741L607,612Z" fill="#5a287e" stroke="#5a287e" stroke-width="1.51"/><path d="M413,125L535,254L613,95Z" fill="#58287c" stroke="#58287c" stroke-width="1.51"/><path d="M413,125L420,308L535,254Z" fill="#5c2981" stroke="#5c2981" stroke-width="1.51"/><path d="M533,1L413,125L613,95Z" fill="#522575" stroke="#522575" stroke-width="1.51"/><path d="M373,744L454,741L425,610Z" fill="#552478" stroke="#552478" stroke-width="1.51"/><path d="M746,846L902,867L854,774Z" fill="#491e6a" stroke="#491e6a" stroke-width="1.51"/><path d="M930,815L1126,797L1099,672Z" fill="#4b1d6a" stroke="#4b1d6a" stroke-width="1.51"/><path d="M607,-84L533,1L613,95Z" fill="#512573" stroke="#512573" stroke-width="1.51"/><path d="M607,-84L613,95L716,16Z" fill="#512573" stroke="#512573" stroke-width="1.51"/><path d="M1249,629L1278,521L1067,488Z" fill="#4f2171" stroke="#4f2171" stroke-width="1.51"/><path d="M1249,629L1067,488L1099,672Z" fill="#512272" stroke="#512272" stroke-width="1.51"/><path d="M1252,728L1249,629L1099,672Z" fill="#4a1d68" stroke="#4a1d68" stroke-width="1.51"/><path d="M1101,879L1126,797L930,815Z" fill="#441962" stroke="#441962" stroke-width="1.51"/><path d="M1178,347L1289,275L1127,272Z" fill="#4f2171" stroke="#4f2171" stroke-width="1.51"/><path d="M1023,88L1159,-35L954,27Z" fill="#4b2169" stroke="#4b2169" stroke-width="1.51"/><path d="M1363,387L1289,275L1178,347Z" fill="#4a1e6b" stroke="#4a1e6b" stroke-width="1.51"/><path d="M533,1L468,-14L413,125Z" fill="#4f2470" stroke="#4f2470" stroke-width="1.51"/><path d="M720,-159L607,-84L716,16Z" fill="#592a7f" stroke="#592a7f" stroke-width="1.51"/><path d="M413,125L258,183L338,295Z" fill="#57277a" stroke="#57277a" stroke-width="1.51"/><path d="M454,-116L468,-14L533,1Z" fill="#542677" stroke="#542677" stroke-width="1.51"/><path d="M454,741L588,908L597,736Z" fill="#4d206f" stroke="#4d206f" stroke-width="1.51"/><path d="M366,585L373,744L425,610Z" fill="#59277c" stroke="#59277c" stroke-width="1.51"/><path d="M249,546L373,744L366,585Z" fill="#57267a" stroke="#57267a" stroke-width="1.51"/><path d="M249,546L366,585L351,466Z" fill="#59287e" stroke="#59287e" stroke-width="1.51"/><path d="M948,1039L1017,955L902,867Z" fill="#431962" stroke="#431962" stroke-width="1.51"/><path d="M663,829L588,908L746,846Z" fill="#471d69" stroke="#471d69" stroke-width="1.51"/><path d="M425,896L588,908L454,741Z" fill="#471c67" stroke="#471c67" stroke-width="1.51"/><path d="M149,425L249,546L351,466Z" fill="#57287d" stroke="#57287d" stroke-width="1.51"/><path d="M149,425L351,466L339,331Z" fill="#59297f" stroke="#59297f" stroke-width="1.51"/><path d="M1126,797L1252,728L1099,672Z" fill="#471b65" stroke="#471b65" stroke-width="1.51"/><path d="M1249,629L1348,644L1278,521Z" fill="#471c66" stroke="#471c66" stroke-width="1.51"/><path d="M1126,797L1211,846L1252,728Z" fill="#3e165b" stroke="#3e165b" stroke-width="1.51"/><path d="M1017,955L1101,879L930,815Z" fill="#40175d" stroke="#40175d" stroke-width="1.51"/><path d="M1017,955L930,815L902,867Z" fill="#411860" stroke="#411860" stroke-width="1.51"/><path d="M1289,275L1312,198L1127,272Z" fill="#4b1e6c" stroke="#4b1e6c" stroke-width="1.51"/><path d="M1391,179L1312,198L1289,275Z" fill="#441a63" stroke="#441a63" stroke-width="1.51"/><path d="M607,-84L454,-116L533,1Z" fill="#57287b" stroke="#57287b" stroke-width="1.51"/><path d="M875,-180L716,16L860,56Z" fill="#542677" stroke="#542677" stroke-width="1.51"/><path d="M875,-180L860,56L954,27Z" fill="#522574" stroke="#522574" stroke-width="1.51"/><path d="M338,295L221,288L339,331Z" fill="#58287d" stroke="#58287d" stroke-width="1.51"/><path d="M290,101L258,183L413,125Z" fill="#522473" stroke="#522473" stroke-width="1.51"/><path d="M1278,521L1363,387L1159,410Z" fill="#4c216f" stroke="#4c216f" stroke-width="1.51"/><path d="M1416,482L1363,387L1278,521Z" fill="#461d68" stroke="#461d68" stroke-width="1.51"/><path d="M258,183L221,288L338,295Z" fill="#57277a" stroke="#57277a" stroke-width="1.51"/><path d="M1265,74L1023,88L1049,173Z" fill="#4c206c" stroke="#4c206c" stroke-width="1.51"/><path d="M325,-34L290,101L413,125Z" fill="#4e236e" stroke="#4e236e" stroke-width="1.51"/><path d="M1312,198L1265,74L1127,272Z" fill="#481d67" stroke="#481d67" stroke-width="1.51"/><path d="M790,1030L902,867L746,846Z" fill="#451c66" stroke="#451c66" stroke-width="1.51"/><path d="M1011,-176L875,-180L954,27Z" fill="#59287d" stroke="#59287d" stroke-width="1.51"/><path d="M588,908L748,1012L746,846Z" fill="#461d68" stroke="#461d68" stroke-width="1.51"/><path d="M373,744L425,896L454,741Z" fill="#4b1e6d" stroke="#4b1e6d" stroke-width="1.51"/><path d="M588,908L641,1056L748,1012Z" fill="#481e6c" stroke="#481e6c" stroke-width="1.51"/><path d="M253,829L425,896L373,744Z" fill="#471c66" stroke="#471c66" stroke-width="1.51"/><path d="M1252,728L1348,644L1249,629Z" fill="#451a63" stroke="#451a63" stroke-width="1.51"/><path d="M1345,752L1348,644L1252,728Z" fill="#3f165c" stroke="#3f165c" stroke-width="1.51"/><path d="M1101,879L1211,846L1126,797Z" fill="#3d1559" stroke="#3d1559" stroke-width="1.51"/><path d="M1164,1022L1211,846L1101,879Z" fill="#391355" stroke="#391355" stroke-width="1.51"/><path d="M468,-14L325,-34L413,125Z" fill="#4e226e" stroke="#4e226e" stroke-width="1.51"/><path d="M720,-159L454,-116L607,-84Z" fill="#5d2b83" stroke="#5d2b83" stroke-width="1.51"/><path d="M748,1012L790,1030L746,846Z" fill="#461d6a" stroke="#461d6a" stroke-width="1.51"/><path d="M641,1056L790,1030L748,1012Z" fill="#491e6e" stroke="#491e6e" stroke-width="1.51"/><path d="M1159,-35L1011,-176L954,27Z" fill="#522473" stroke="#522473" stroke-width="1.51"/><path d="M1159,-35L1144,-144L1011,-176Z" fill="#532475" stroke="#532475" stroke-width="1.51"/><path d="M1265,74L1222,-47L1159,-35Z" fill="#411a5d" stroke="#411a5d" stroke-width="1.51"/><path d="M1254,-129L1222,-47L1413,-124Z" fill="#441b63" stroke="#441b63" stroke-width="1.51"/><path d="M1363,387L1391,179L1289,275Z" fill="#441b64" stroke="#441b64" stroke-width="1.51"/><path d="M1348,644L1416,482L1278,521Z" fill="#441b64" stroke="#441b64" stroke-width="1.51"/><path d="M454,-116L376,-76L468,-14Z" fill="#562779" stroke="#562779" stroke-width="1.51"/><path d="M142,638L253,829L373,744Z" fill="#4b1f6a" stroke="#4b1f6a" stroke-width="1.51"/><path d="M221,288L149,425L339,331Z" fill="#56287a" stroke="#56287a" stroke-width="1.51"/><path d="M20,356L149,425L221,288Z" fill="#522574" stroke="#522574" stroke-width="1.51"/><path d="M90,202L221,288L258,183Z" fill="#522473" stroke="#522473" stroke-width="1.51"/><path d="M81,19L90,202L258,183Z" fill="#4a2168" stroke="#4a2168" stroke-width="1.51"/><path d="M376,-76L325,-34L468,-14Z" fill="#532574" stroke="#532574" stroke-width="1.51"/><path d="M1312,198L1391,179L1265,74Z" fill="#40185e" stroke="#40185e" stroke-width="1.51"/><path d="M1523,305L1391,179L1363,387Z" fill="#441b64" stroke="#441b64" stroke-width="1.51"/><path d="M790,1030L948,1039L902,867Z" fill="#451b66" stroke="#451b66" stroke-width="1.51"/><path d="M1017,955L1164,1022L1101,879Z" fill="#3e165c" stroke="#3e165c" stroke-width="1.51"/><path d="M1554,485L1497,411L1416,482Z" fill="#471d6b" stroke="#471d6b" stroke-width="1.51"/><path d="M1211,846L1345,752L1252,728Z" fill="#3b1457" stroke="#3b1457" stroke-width="1.51"/><path d="M1376,947L1345,752L1211,846Z" fill="#310e4b" stroke="#310e4b" stroke-width="1.51"/><path d="M1222,-47L1144,-144L1159,-35Z" fill="#4a1f69" stroke="#4a1f69" stroke-width="1.51"/><path d="M429,1049L641,1056L588,908Z" fill="#471c6a" stroke="#471c6a" stroke-width="1.51"/><path d="M790,1030L641,1056L948,1039Z" fill="#481d6c" stroke="#481d6c" stroke-width="1.51"/><path d="M425,896L429,1049L588,908Z" fill="#451b66" stroke="#451b66" stroke-width="1.51"/><path d="M142,638L373,744L249,546Z" fill="#532474" stroke="#532474" stroke-width="1.51"/><path d="M85,573L142,638L249,546Z" fill="#502371" stroke="#502371" stroke-width="1.51"/><path d="M1416,482L1497,411L1363,387Z" fill="#461d68" stroke="#461d68" stroke-width="1.51"/><path d="M1449,667L1416,482L1348,644Z" fill="#421961" stroke="#421961" stroke-width="1.51"/><path d="M1345,752L1449,667L1348,644Z" fill="#3d155a" stroke="#3d155a" stroke-width="1.51"/><path d="M1222,-47L1254,-129L1144,-144Z" fill="#4b1f6b" stroke="#4b1f6b" stroke-width="1.51"/><path d="M1144,-144L1254,-129L1011,-176Z" fill="#542477" stroke="#542477" stroke-width="1.51"/><path d="M1403,45L1222,-47L1265,74Z" fill="#3a1654" stroke="#3a1654" stroke-width="1.51"/><path d="M1403,45L1265,74L1391,179Z" fill="#3b1656" stroke="#3b1656" stroke-width="1.51"/><path d="M1525,94L1403,45L1391,179Z" fill="#3b1658" stroke="#3b1658" stroke-width="1.51"/><path d="M149,425L85,573L249,546Z" fill="#532675" stroke="#532675" stroke-width="1.51"/><path d="M150,960L283,950L253,829Z" fill="#3c1659" stroke="#3c1659" stroke-width="1.51"/><path d="M20,356L85,573L149,425Z" fill="#512674" stroke="#512674" stroke-width="1.51"/><path d="M948,1039L1164,1022L1017,955Z" fill="#431862" stroke="#431862" stroke-width="1.51"/><path d="M1345,752L1542,717L1449,667Z" fill="#3c1459" stroke="#3c1459" stroke-width="1.51"/><path d="M81,19L258,183L290,101Z" fill="#4b2169" stroke="#4b2169" stroke-width="1.51"/><path d="M283,950L429,1049L425,896Z" fill="#431a64" stroke="#431a64" stroke-width="1.51"/><path d="M253,829L283,950L425,896Z" fill="#3f185d" stroke="#3f185d" stroke-width="1.51"/><path d="M69,786L253,829L142,638Z" fill="#461c63" stroke="#461c63" stroke-width="1.51"/><path d="M1497,411L1523,305L1363,387Z" fill="#461c68" stroke="#461c68" stroke-width="1.51"/><path d="M1603,356L1523,305L1497,411Z" fill="#471d6a" stroke="#471d6a" stroke-width="1.51"/><path d="M1164,1022L1228,1016L1211,846Z" fill="#371153" stroke="#371153" stroke-width="1.51"/><path d="M325,-34L157,-40L290,101Z" fill="#492066" stroke="#492066" stroke-width="1.51"/><path d="M376,-76L195,-75L325,-34Z" fill="#512572" stroke="#512572" stroke-width="1.51"/><path d="M94,-160L195,-75L376,-76Z" fill="#522573" stroke="#522573" stroke-width="1.51"/><path d="M94,-160L376,-76L454,-116Z" fill="#56277a" stroke="#56277a" stroke-width="1.51"/><path d="M90,202L20,356L221,288Z" fill="#502471" stroke="#502471" stroke-width="1.51"/><path d="M-67,311L20,356L90,202Z" fill="#522574" stroke="#522574" stroke-width="1.51"/><path d="M1449,667L1554,485L1416,482Z" fill="#451b66" stroke="#451b66" stroke-width="1.51"/><path d="M195,-75L157,-40L325,-34Z" fill="#4d226c" stroke="#4d226c" stroke-width="1.51"/><path d="M1228,1016L1326,983L1211,846Z" fill="#330f4f" stroke="#330f4f" stroke-width="1.51"/><path d="M1449,667L1542,717L1554,485Z" fill="#431963" stroke="#431963" stroke-width="1.51"/><path d="M1326,983L1376,947L1211,846Z" fill="#2f0d4a" stroke="#2f0d4a" stroke-width="1.51"/><path d="M85,573L17,629L142,638Z" fill="#4d216c" stroke="#4d216c" stroke-width="1.51"/><path d="M-12,630L17,629L-33,574Z" fill="#512472" stroke="#512472" stroke-width="1.51"/><path d="M1403,45L1413,-124L1222,-47Z" fill="#3c1758" stroke="#3c1758" stroke-width="1.51"/><path d="M1523,305L1525,94L1391,179Z" fill="#421960" stroke="#421960" stroke-width="1.51"/><path d="M1602,163L1525,94L1523,305Z" fill="#431963" stroke="#431963" stroke-width="1.51"/><path d="M94,-160L81,19L157,-40Z" fill="#482066" stroke="#482066" stroke-width="1.51"/><path d="M157,-40L81,19L290,101Z" fill="#451e61" stroke="#451e61" stroke-width="1.51"/><path d="M17,629L69,786L142,638Z" fill="#491f66" stroke="#491f66" stroke-width="1.51"/><path d="M1573,759L1542,717L1345,752Z" fill="#3a1357" stroke="#3a1357" stroke-width="1.51"/><path d="M246,1036L294,1062L283,950Z" fill="#411860" stroke="#411860" stroke-width="1.51"/><path d="M283,950L294,1062L429,1049Z" fill="#441a64" stroke="#441a64" stroke-width="1.51"/><path d="M429,1049L294,1062L641,1056Z" fill="#481c6a" stroke="#481c6a" stroke-width="1.51"/><path d="M1554,485L1603,356L1497,411Z" fill="#481e6c" stroke="#481e6c" stroke-width="1.51"/><path d="M1629,465L1603,356L1554,485Z" fill="#491e6e" stroke="#491e6e" stroke-width="1.51"/><path d="M1509,-89L1413,-124L1403,45Z" fill="#3d175a" stroke="#3d175a" stroke-width="1.51"/><path d="M1254,-129L1413,-124L1011,-176Z" fill="#4d206f" stroke="#4d206f" stroke-width="1.51"/><path d="M-33,574L17,629L85,573Z" fill="#502370" stroke="#502370" stroke-width="1.51"/><path d="M81,19L18,101L90,202Z" fill="#461f63" stroke="#461f63" stroke-width="1.51"/><path d="M150,960L246,1036L283,950Z" fill="#3e175c" stroke="#3e175c" stroke-width="1.51"/><path d="M17,629L-20,762L69,786Z" fill="#481e65" stroke="#481e65" stroke-width="1.51"/><path d="M-33,574L85,573L20,356Z" fill="#522675" stroke="#522675" stroke-width="1.51"/><path d="M-110,347L-33,574L20,356Z" fill="#57297d" stroke="#57297d" stroke-width="1.51"/><path d="M80,872L150,960L253,829Z" fill="#391553" stroke="#391553" stroke-width="1.51"/><path d="M80,872L253,829L69,786Z" fill="#3c1758" stroke="#3c1758" stroke-width="1.51"/><path d="M0,859L80,872L69,786Z" fill="#3a1655" stroke="#3a1655" stroke-width="1.51"/><path d="M1659,644L1629,465L1554,485Z" fill="#471c6a" stroke="#471c6a" stroke-width="1.51"/><path d="M1548,-62L1509,-89L1403,45Z" fill="#3c1659" stroke="#3c1659" stroke-width="1.51"/><path d="M1657,232L1602,163L1523,305Z" fill="#471b68" stroke="#471b68" stroke-width="1.51"/><path d="M1657,232L1523,305L1603,356Z" fill="#481c6a" stroke="#481c6a" stroke-width="1.51"/><path d="M18,101L-67,311L90,202Z" fill="#4f2370" stroke="#4f2370" stroke-width="1.51"/><path d="M1542,717L1659,644L1554,485Z" fill="#451a66" stroke="#451a66" stroke-width="1.51"/><path d="M1552,904L1573,759L1345,752Z" fill="#330f4f" stroke="#330f4f" stroke-width="1.51"/><path d="M1548,-62L1403,45L1525,94Z" fill="#371452" stroke="#371452" stroke-width="1.51"/><path d="M-12,630L-20,762L17,629Z" fill="#4e226e" stroke="#4e226e" stroke-width="1.51"/><path d="M80,872L59,1091L150,960Z" fill="#381554" stroke="#381554" stroke-width="1.51"/><path d="M-182,598L-20,762L-12,630Z" fill="#542575" stroke="#542575" stroke-width="1.51"/><path d="M-182,598L-12,630L-33,574Z" fill="#562679" stroke="#562679" stroke-width="1.51"/><path d="M1641,8L1548,-62L1525,94Z" fill="#391555" stroke="#391555" stroke-width="1.51"/><path d="M1710,375L1657,232L1603,356Z" fill="#491d6c" stroke="#491d6c" stroke-width="1.51"/><path d="M1641,8L1525,94L1602,163Z" fill="#3d175b" stroke="#3d175b" stroke-width="1.51"/><path d="M-60,27L-56,66L18,101Z" fill="#492167" stroke="#492167" stroke-width="1.51"/><path d="M-245,269L-110,347L-67,311Z" fill="#5c2b82" stroke="#5c2b82" stroke-width="1.51"/><path d="M195,-75L94,-160L157,-40Z" fill="#4d226d" stroke="#4d226d" stroke-width="1.51"/><path d="M720,-159L94,-160L454,-116Z" fill="#5d2b83" stroke="#5d2b83" stroke-width="1.51"/><path d="M875,-180L94,-160L720,-159Z" fill="#612e89" stroke="#612e89" stroke-width="1.51"/><path d="M-67,311L-110,347L20,356Z" fill="#57287b" stroke="#57287b" stroke-width="1.51"/><path d="M-56,66L-67,311L18,101Z" fill="#4f2470" stroke="#4f2470" stroke-width="1.51"/><path d="M1573,759L1659,644L1542,717Z" fill="#3f165e" stroke="#3f165e" stroke-width="1.51"/><path d="M1629,465L1710,375L1603,356Z" fill="#491e6e" stroke="#491e6e" stroke-width="1.51"/><path d="M-20,762L0,859L69,786Z" fill="#40195d" stroke="#40195d" stroke-width="1.51"/><path d="M150,960L59,1091L246,1036Z" fill="#3c1659" stroke="#3c1659" stroke-width="1.51"/><path d="M-99,1031L0,859L-198,943Z" fill="#41195f" stroke="#41195f" stroke-width="1.51"/><path d="M-60,27L18,101L81,19Z" fill="#451f61" stroke="#451f61" stroke-width="1.51"/><path d="M1573,759L1783,809L1659,644Z" fill="#3d155d" stroke="#3d155d" stroke-width="1.51"/><path d="M1376,947L1552,904L1345,752Z" fill="#2d0c46" stroke="#2d0c46" stroke-width="1.51"/><path d="M1497,1057L1552,904L1376,947Z" fill="#2e0c4a" stroke="#2e0c4a" stroke-width="1.51"/><path d="M1552,904L1587,851L1573,759Z" fill="#320e4e" stroke="#320e4e" stroke-width="1.51"/><path d="M1743,467L1710,375L1629,465Z" fill="#4b1f71" stroke="#4b1f71" stroke-width="1.51"/><path d="M-76,-117L-60,27L81,19Z" fill="#492167" stroke="#492167" stroke-width="1.51"/><path d="M-245,269L-188,416L-110,347Z" fill="#602d87" stroke="#602d87" stroke-width="1.51"/><path d="M1718,76L1641,8L1602,163Z" fill="#3e175c" stroke="#3e175c" stroke-width="1.51"/><path d="M1718,76L1602,163L1657,232Z" fill="#431963" stroke="#431963" stroke-width="1.51"/><path d="M-188,416L-159,543L-110,347Z" fill="#5f2d87" stroke="#5f2d87" stroke-width="1.51"/><path d="M-110,347L-159,543L-33,574Z" fill="#5a2a81" stroke="#5a2a81" stroke-width="1.51"/><path d="M1800,285L1718,76L1657,232Z" fill="#461b68" stroke="#461b68" stroke-width="1.51"/><path d="M1659,644L1743,467L1629,465Z" fill="#491d6d" stroke="#491d6d" stroke-width="1.51"/><path d="M1781,586L1743,467L1659,644Z" fill="#481c6c" stroke="#481c6c" stroke-width="1.51"/><path d="M1326,983L1497,1057L1376,947Z" fill="#2d0b49" stroke="#2d0b49" stroke-width="1.51"/><path d="M1552,904L1573,983L1587,851Z" fill="#2e0c4a" stroke="#2e0c4a" stroke-width="1.51"/><path d="M1228,1016L1497,1057L1326,983Z" fill="#2e0c4a" stroke="#2e0c4a" stroke-width="1.51"/><path d="M1164,1022L1497,1057L1228,1016Z" fill="#330f4f" stroke="#330f4f" stroke-width="1.51"/><path d="M948,1039L1497,1057L1164,1022Z" fill="#391257" stroke="#391257" stroke-width="1.51"/><path d="M641,1056L1497,1057L948,1039Z" fill="#451965" stroke="#451965" stroke-width="1.51"/><path d="M59,1091L1497,1057L641,1056Z" fill="#4a1f6f" stroke="#4a1f6f" stroke-width="1.51"/><path d="M-167,94L-67,311L-56,66Z" fill="#532575" stroke="#532575" stroke-width="1.51"/><path d="M1783,809L1781,586L1659,644Z" fill="#441865" stroke="#441865" stroke-width="1.51"/><path d="M1497,1057L1573,983L1552,904Z" fill="#2f0d4c" stroke="#2f0d4c" stroke-width="1.51"/><path d="M-188,416L-182,598L-159,543Z" fill="#5f2c86" stroke="#5f2c86" stroke-width="1.51"/><path d="M-159,543L-182,598L-33,574Z" fill="#59297f" stroke="#59297f" stroke-width="1.51"/><path d="M1800,285L1657,232L1710,375Z" fill="#491d6d" stroke="#491d6d" stroke-width="1.51"/><path d="M1702,-57L1648,-88L1641,8Z" fill="#40195f" stroke="#40195f" stroke-width="1.51"/><path d="M1641,8L1648,-88L1548,-62Z" fill="#3f185e" stroke="#3f185e" stroke-width="1.51"/><path d="M1548,-62L1648,-88L1509,-89Z" fill="#411961" stroke="#411961" stroke-width="1.51"/><path d="M1509,-89L1648,-88L1413,-124Z" fill="#421962" stroke="#421962" stroke-width="1.51"/><path d="M294,1062L59,1091L641,1056Z" fill="#451a66" stroke="#451a66" stroke-width="1.51"/><path d="M246,1036L59,1091L294,1062Z" fill="#3f185e" stroke="#3f185e" stroke-width="1.51"/><path d="M0,859L59,1091L80,872Z" fill="#381553" stroke="#381553" stroke-width="1.51"/><path d="M-99,1031L59,1091L0,859Z" fill="#3d175b" stroke="#3d175b" stroke-width="1.51"/><path d="M-60,27L-167,94L-56,66Z" fill="#4d236c" stroke="#4d236c" stroke-width="1.51"/><path d="M-248,-16L-167,94L-60,27Z" fill="#4f2470" stroke="#4f2470" stroke-width="1.51"/><path d="M94,-160L-76,-117L81,19Z" fill="#4c226b" stroke="#4c226b" stroke-width="1.51"/><path d="M1743,467L1800,285L1710,375Z" fill="#4a1e6f" stroke="#4a1e6f" stroke-width="1.51"/><path d="M1728,873L1573,759L1587,851Z" fill="#340f51" stroke="#340f51" stroke-width="1.51"/><path d="M1781,586L1800,285L1743,467Z" fill="#4b1f71" stroke="#4b1f71" stroke-width="1.51"/><path d="M1718,76L1702,-57L1641,8Z" fill="#3c1659" stroke="#3c1659" stroke-width="1.51"/><path d="M1795,-110L1702,-57L1718,76Z" fill="#3f185e" stroke="#3f185e" stroke-width="1.51"/><path d="M-167,94L-245,269L-67,311Z" fill="#5c2a81" stroke="#5c2a81" stroke-width="1.51"/><path d="M-188,416L-245,269L-182,598Z" fill="#622f8c" stroke="#622f8c" stroke-width="1.51"/><path d="M-248,-16L-245,269L-167,94Z" fill="#58287c" stroke="#58287c" stroke-width="1.51"/><path d="M1573,983L1728,873L1587,851Z" fill="#2f0c4b" stroke="#2f0c4b" stroke-width="1.51"/><path d="M1762,1035L1728,873L1573,983Z" fill="#310d50" stroke="#310d50" stroke-width="1.51"/><path d="M1728,873L1783,809L1573,759Z" fill="#361154" stroke="#361154" stroke-width="1.51"/><path d="M1781,586L1783,809L1800,285Z" fill="#481c6c" stroke="#481c6c" stroke-width="1.51"/><path d="M-238,804L0,859L-20,762Z" fill="#461c65" stroke="#461c65" stroke-width="1.51"/><path d="M-182,598L-238,804L-20,762Z" fill="#522375" stroke="#522375" stroke-width="1.51"/><path d="M-245,269L-238,804L-182,598Z" fill="#602c88" stroke="#602c88" stroke-width="1.51"/><path d="M-76,-117L-248,-16L-60,27Z" fill="#512572" stroke="#512572" stroke-width="1.51"/><path d="M-238,804L-198,943L0,859Z" fill="#431b62" stroke="#431b62" stroke-width="1.51"/><path d="M-76,-117L-163,-186L-248,-16Z" fill="#5a297f" stroke="#5a297f" stroke-width="1.51"/><path d="M94,-160L-163,-186L-76,-117Z" fill="#57287b" stroke="#57287b" stroke-width="1.51"/><path d="M875,-180L-163,-186L94,-160Z" fill="#5b297f" stroke="#5b297f" stroke-width="1.51"/><path d="M1702,-57L1795,-110L1648,-88Z" fill="#441a65" stroke="#441a65" stroke-width="1.51"/><path d="M1648,-88L1795,-110L1413,-124Z" fill="#441b66" stroke="#441b66" stroke-width="1.51"/><path d="M1413,-124L1795,-110L1011,-176Z" fill="#431b63" stroke="#431b63" stroke-width="1.51"/><path d="M1800,285L1795,-110L1718,76Z" fill="#3e185e" stroke="#3e185e" stroke-width="1.51"/><path d="M-198,943L-200,1017L-99,1031Z" fill="#461c68" stroke="#461c68" stroke-width="1.51"/><path d="M-99,1031L-200,1017L59,1091Z" fill="#421a63" stroke="#421a63" stroke-width="1.51"/><path d="M-238,804L-200,1017L-198,943Z" fill="#471c68" stroke="#471c68" stroke-width="1.51"/><path d="M1728,873L1762,1035L1783,809Z" fill="#300d4d" stroke="#300d4d" stroke-width="1.51"/><path d="M1497,1057L1762,1035L1573,983Z" fill="#310e50" stroke="#310e50" stroke-width="1.51"/></svg>