<?xml version="1.0" encoding="utf-8"?>
<!-- Generator: Adobe Illustrator 19.2.1, SVG Export Plug-In . SVG Version: 6.00 Build 0)  -->
<svg version="1.1" id="Layer_1" xmlns="http://www.w3.org/2000/svg" xmlns:xlink="http://www.w3.org/1999/xlink" x="0px" y="0px"
	 viewBox="0 0 1201.4 350.9" style="enable-background:new 0 0 1201.4 350.9;" xml:space="preserve">
<style type="text/css">
	.st0{fill:#FFFFFF;}
</style>
<path class="st0" d="M383.3,204.9c0,11.1-4,19.7-12.1,25.9c-8,6.2-18.9,9.3-32.7,9.3c-14.9,0-26.4-1.9-34.4-5.8v-14.1
	c5.2,2.2,10.8,3.9,16.9,5.2c6.1,1.3,12.1,1.9,18.1,1.9c9.8,0,17.1-1.9,22-5.6c4.9-3.7,7.4-8.9,7.4-15.5c0-4.4-0.9-7.9-2.6-10.7
	c-1.8-2.8-4.7-5.4-8.8-7.7c-4.1-2.4-10.3-5-18.7-8c-11.7-4.2-20.1-9.2-25.1-14.9c-5-5.7-7.5-13.2-7.5-22.5c0-9.7,3.6-17.4,10.9-23.2
	c7.3-5.7,16.9-8.6,28.9-8.6c12.5,0,24,2.3,34.5,6.9l-4.6,12.7c-10.4-4.4-20.5-6.5-30.3-6.5c-7.7,0-13.8,1.7-18.2,5
	c-4.4,3.3-6.5,8-6.5,13.9c0,4.4,0.8,7.9,2.4,10.7c1.6,2.8,4.3,5.3,8.1,7.7c3.8,2.3,9.7,4.9,17.5,7.7c13.2,4.7,22.3,9.8,27.3,15.2
	C380.8,189.3,383.3,196.3,383.3,204.9z"/>
<path class="st0" d="M437.3,228.3c2.5,0,5-0.2,7.3-0.6c2.4-0.4,4.2-0.8,5.6-1.2v10.9c-1.5,0.7-3.8,1.4-6.8,1.9
	c-3,0.5-5.7,0.7-8.1,0.7c-18.3,0-27.4-9.6-27.4-28.8v-56.1h-13.5v-6.9l13.5-5.9l6-20.1h8.3V144h27.4v11.1h-27.4v55.5
	c0,5.7,1.3,10,4,13.1C428.9,226.8,432.6,228.3,437.3,228.3z"/>
<path class="st0" d="M512.1,142.3c4.2,0,7.9,0.3,11.3,1l-2,13.3c-3.9-0.9-7.3-1.3-10.3-1.3c-7.6,0-14.2,3.1-19.6,9.3
	c-5.4,6.2-8.1,13.9-8.1,23.2v50.6h-14.3v-3.9V144h11.8l1.6,17.5h0.7c3.5-6.1,7.7-10.9,12.7-14.2
	C500.8,143.9,506.2,142.3,512.1,142.3z"/>
<path class="st0" d="M580.9,240.1c-13.9,0-25-4.2-33-12.7c-8.1-8.5-12.1-20.3-12.1-35.4c0-15.2,3.7-27.3,11.2-36.2
	c7.5-9,17.5-13.4,30.2-13.4c11.8,0,21.2,3.9,28.1,11.7c6.9,7.8,10.3,18,10.3,30.8v9h-65c0.3,11.1,3.1,19.5,8.4,25.2
	c5.3,5.7,12.8,8.6,22.4,8.6c10.2,0,20.2-2.1,30.1-6.4V234c-5.1,2.2-9.8,3.7-14.3,4.7C592.7,239.6,587.3,240.1,580.9,240.1z
	 M577.1,154.2c-7.6,0-13.6,2.5-18.1,7.4c-4.5,4.9-7.2,11.8-8,20.5h49.3c0-9-2-15.9-6-20.7C590.3,156.6,584.5,154.2,577.1,154.2z"/>
<path class="st0" d="M698,238.4l-2.8-13.4h-0.7c-4.7,5.9-9.4,9.9-14.1,12c-4.7,2.1-10.5,3.1-17.5,3.1c-9.4,0-16.7-2.4-22-7.2
	c-5.3-4.8-8-11.7-8-20.6c0-19.1,15.2-29,45.7-30l16-0.5v-5.9c0-7.4-1.6-12.9-4.8-16.4s-8.3-5.3-15.3-5.3c-7.9,0-16.8,2.4-26.7,7.2
	l-4.4-10.9c4.6-2.5,9.7-4.5,15.3-5.9c5.5-1.4,11.1-2.2,16.7-2.2c11.2,0,19.6,2.5,25,7.5c5.4,5,8.1,13,8.1,24v64.4H698z M665.7,228.3
	c8.9,0,15.9-2.4,21-7.3c5.1-4.9,7.6-11.7,7.6-20.5V192l-14.3,0.6c-11.4,0.4-19.6,2.2-24.6,5.3c-5,3.1-7.5,8-7.5,14.6
	c0,5.2,1.6,9.1,4.7,11.8C655.7,226.9,660.1,228.3,665.7,228.3z"/>
<path class="st0" d="M858.3,238.4V177c0-7.5-1.6-13.2-4.8-16.9c-3.2-3.8-8.2-5.6-15-5.6c-8.9,0-15.5,2.6-19.7,7.7
	c-4.2,5.1-6.4,13-6.4,23.6v52.7h-14.3V177c0-7.5-1.6-13.2-4.8-16.9c-3.2-3.8-8.2-5.6-15.1-5.6c-9,0-15.5,2.7-19.7,8.1
	c-4.2,5.4-6.2,14.2-6.2,26.4v49.5h-14.3V144h11.6l2.3,12.9h0.7c2.7-4.6,6.5-8.2,11.4-10.8c4.9-2.6,10.4-3.9,16.5-3.9
	c14.8,0,24.4,5.3,28.9,16h0.7c2.8-4.9,6.9-8.8,12.2-11.7c5.3-2.9,11.4-4.3,18.3-4.3c10.7,0,18.7,2.7,24,8.2c5.3,5.5,8,14.2,8,26.3
	v61.6H858.3z"/>
<path class="st0" d="M889.6,275.4c-6,0-11.3-0.6-15.8-1.9v-22.2c4.6,1.1,8.8,1.7,12.6,1.7c5.9,0,10-1.8,12.6-5.5
	c2.5-3.6,3.8-9.3,3.8-17.1v-118h26.7v117.8c0,14.7-3.4,25.9-10.1,33.6C912.7,271.5,902.7,275.4,889.6,275.4z"/>
<path class="st0" d="M1020.2,238.4l-5.1-13.1h-0.7c-4.4,5.6-9,9.4-13.6,11.6c-4.7,2.2-10.8,3.2-18.3,3.2c-9.2,0-16.5-2.6-21.8-7.9
	c-5.3-5.3-8-12.8-8-22.6c0-10.2,3.6-17.7,10.7-22.6c7.1-4.9,17.9-7.5,32.3-8.1l16.7-0.5v-4.2c0-9.8-5-14.6-15-14.6
	c-7.7,0-16.7,2.3-27.1,7l-8.7-17.7c11.1-5.8,23.4-8.7,36.9-8.7c12.9,0,22.8,2.8,29.7,8.4c6.9,5.6,10.3,14.2,10.3,25.7v64.1H1020.2z
	 M1012.5,193.8l-10.2,0.3c-7.6,0.2-13.3,1.6-17,4.1c-3.7,2.5-5.6,6.4-5.6,11.5c0,7.4,4.2,11.1,12.7,11.1c6.1,0,10.9-1.8,14.6-5.3
	c3.6-3.5,5.5-8.1,5.5-13.9V193.8z"/>
<path class="st0" d="M1126.2,165.7c-2.1-0.6-4.7-0.9-7.7-0.9c-8.4,0-14.9,2.2-19.6,6.5c-4.7,4.3-7,10.3-7,18.1v49h-26.3v-96.3h19.9
	l3.9,16.2h1.3c3-5.4,7-9.7,12.1-13c5.1-3.3,10.6-5,16.6-5c3.6,0,6.5,0.3,8.9,0.8"/>
<path class="st0" d="M215.4,97.3c-14.3,3.1-37.8,5.1-64.4,5.1s-50.1-2-64.4-5.1c-9.2,2-13.4,2.3-12.1,7.1
	c1.7,6.5,32.9,12.2,76.5,12.2s77.4-5.6,79-12.2C231.1,99.9,224.6,99.3,215.4,97.3z"/>
<path class="st0" d="M215.4,94.9c-28.1,4.1-50.7,4.9-66.1,4.9c-10.1,0-20.4,0-34.3-1.4c-11.3-1.2-28.4-3.7-28.4-3.7
	c0.6-5.7,0.8-12.6,8.1-17.2c3.8-2.4,9.5-3.2,11.3-3.2c11.8-0.3,79.7-0.3,91.6,0c1.7,0.1,7.5,0.8,11.3,3.2c7.2,4.5,7.5,11.5,8.1,17.2
	c0,0-17.1,2.5-28.4,3.7c-13.8,1.5-24.2,1.4-34.3,1.4c-15.4,0-38-0.9-66.1-4.9"/>
<path class="st0" d="M217.8,127.1c-0.7-0.2-1.8-0.3-3.2-0.5c0,0-10.9-1.2-21.9,3.8c-1,0.5-1.9,1.1-2.8,1.9c0,0-1.6,1.4-2.7,3.2
	c-1.1,1.8-11.1,44.1-14.7,50c-3.6,5.9-11.3,19.9-20.7,27.7c-13.1,10.8-33.6,19.6-43,20.7c-4.9,0.6-9.8,1.7-14.7,1.8
	c-1.4,0.1-5.2,0.1-10.1,1.3c-1.2,0.3-3.7,3.6-4,5.5c-0.3,1.5-0.7,6.5,0.4,13.3c0.8,4.5,1.8,10.3,6.4,14.8c4.4,4.3,9.9,5.2,13,5.5
	c1.1,0.5,2.5,0.7,4.4,0.4l93.3-0.1c11.2,0,20.3-9.2,20.3-20.4L217.8,127.1z"/>
</svg>
