<?xml version="1.0" encoding="utf-8"?>
<!-- Generator: Adobe Illustrator 19.2.1, SVG Export Plug-In . SVG Version: 6.00 Build 0)  -->
<svg version="1.1" id="Layer_1" xmlns="http://www.w3.org/2000/svg" xmlns:xlink="http://www.w3.org/1999/xlink" x="0px" y="0px"
	 viewBox="0 0 304 350.9" style="enable-background:new 0 0 304 350.9;" xml:space="preserve">
<style type="text/css">
	.st0{fill:#FFFFFF;}
</style>
<path class="st0" d="M215.4,97.3c-14.3,3.1-37.8,5.1-64.4,5.1s-50.1-2-64.4-5.1c-9.2,2-13.4,2.3-12.1,7.1
	c1.7,6.5,32.9,12.2,76.5,12.2s77.4-5.6,79-12.2C231.1,99.9,224.6,99.3,215.4,97.3z"/>
<path class="st0" d="M215.4,94.9c-28.1,4.1-50.7,4.9-66.1,4.9c-10.1,0-20.4,0-34.3-1.4c-11.3-1.2-28.4-3.7-28.4-3.7
	c0.6-5.7,0.8-12.6,8.1-17.2c3.8-2.4,9.5-3.2,11.3-3.2c11.8-0.3,79.7-0.3,91.6,0c1.7,0.1,7.5,0.8,11.3,3.2c7.2,4.5,7.5,11.5,8.1,17.2
	c0,0-17.1,2.5-28.4,3.7c-13.8,1.5-24.2,1.4-34.3,1.4c-15.4,0-38-0.9-66.1-4.9"/>
<path class="st0" d="M217.8,127.1c-0.7-0.2-1.8-0.3-3.2-0.5c0,0-10.9-1.2-21.9,3.8c-1,0.5-1.9,1.1-2.8,1.9c0,0-1.6,1.4-2.7,3.2
	c-1.1,1.8-11.1,44.1-14.7,50c-3.6,5.9-11.3,19.9-20.7,27.7c-13.1,10.8-33.6,19.6-43,20.7c-4.9,0.6-9.8,1.7-14.7,1.8
	c-1.4,0.1-5.2,0.1-10.1,1.3c-1.2,0.3-3.7,3.6-4,5.5c-0.3,1.5-0.7,6.5,0.4,13.3c0.8,4.5,1.8,10.3,6.4,14.8c4.4,4.3,9.9,5.2,13,5.5
	c1.1,0.5,2.5,0.7,4.4,0.4l93.3-0.1c11.2,0,20.3-9.2,20.3-20.4L217.8,127.1z"/>
</svg>
