<?xml version="1.0" encoding="utf-8"?>
<!-- Generator: Adobe Illustrator 21.1.0, SVG Export Plug-In . SVG Version: 6.00 Build 0)  -->
<svg version="1.1" xmlns="http://www.w3.org/2000/svg" xmlns:xlink="http://www.w3.org/1999/xlink" x="0px" y="0px"
	 viewBox="0 0 175 90" style="enable-background:new 0 0 175 90;" xml:space="preserve">
<style type="text/css">
	.st0{fill:#FFFFFF;}
</style>
<g id="Layer_1">
	<path class="st0" d="M25.6,41.1c-1.4,0-2.5,1.2-2.5,2.7s1.1,2.7,2.5,2.7c1.4,0,2.5-1.2,2.5-2.7S26.9,41.1,25.6,41.1z M16.7,41.1
		c-1.4,0-2.5,1.2-2.5,2.7s1.1,2.7,2.5,2.7c1.4,0,2.5-1.2,2.5-2.7C19.2,42.3,18.1,41.1,16.7,41.1z"/>
	<path class="st0" d="M37.4,20.9H4.9c-2.7,0-5,2.2-5,5v32.5c0,2.7,2.2,5,5,5h27.5l-1.3-4.4l3.1,2.9l2.9,2.7l5.2,4.5V25.9
		C42.3,23.1,40.1,20.9,37.4,20.9z M28,52.3c0,0-0.9-1-1.6-1.9c3.2-0.9,4.4-2.9,4.4-2.9c-1,0.7-1.9,1.1-2.8,1.4
		c-1.2,0.5-2.4,0.8-3.5,1c-2.3,0.4-4.5,0.3-6.3,0c-1.4-0.3-2.6-0.6-3.6-1c-0.6-0.2-1.2-0.5-1.8-0.8c-0.1,0-0.1-0.1-0.2-0.1
		c0,0-0.1,0-0.1,0c-0.4-0.2-0.7-0.4-0.7-0.4s1.2,1.9,4.2,2.8c-0.7,0.9-1.6,2-1.6,2c-5.4-0.2-7.4-3.7-7.4-3.7c0-7.7,3.5-14,3.5-14
		c3.5-2.6,6.8-2.5,6.8-2.5l0.2,0.3c-4.4,1.2-6.4,3.2-6.4,3.2s0.5-0.3,1.4-0.7c2.6-1.1,4.7-1.4,5.5-1.5c0.1,0,0.3,0,0.4,0
		c1.5-0.2,3.2-0.2,4.9,0c2.3,0.3,4.8,0.9,7.3,2.3c0,0-1.9-1.8-6-3.1l0.3-0.4c0,0,3.3-0.1,6.8,2.5c0,0,3.5,6.3,3.5,14
		C35.4,48.6,33.4,52.1,28,52.3L28,52.3z M64.6,31.3h-8.1v9l5.4,4.8v-8.8h2.9c1.8,0,2.7,0.9,2.7,2.3v6.7c0,1.4-0.8,2.4-2.7,2.4h-8.2
		v5.1h8.1c4.3,0,8.4-2.1,8.4-7.1v-7.2C73,33.5,69,31.3,64.6,31.3z M106.8,45.8v-7.4c0-2.7,4.8-3.3,6.3-0.6l4.4-1.8
		c-1.7-3.8-4.9-4.9-7.6-4.9c-4.3,0-8.6,2.5-8.6,7.3v7.4c0,4.9,4.3,7.3,8.5,7.3c2.7,0,6-1.3,7.8-4.8l-4.8-2.2
		C111.7,49.1,106.8,48.4,106.8,45.8L106.8,45.8z M92.2,39.4c-1.7-0.4-2.8-1-2.9-2c0.1-2.5,4-2.6,6.2-0.2l3.6-2.7
		c-2.2-2.7-4.8-3.4-7.3-3.4c-4,0-7.8,2.2-7.8,6.5c0,4.1,3.2,6.3,6.6,6.8c1.8,0.2,3.7,0.9,3.7,2.2c-0.1,2.3-4.9,2.2-7.1-0.4l-3.4,3.2
		c2,2.6,4.8,3.9,7.3,3.9c4,0,8.3-2.3,8.5-6.5C99.8,41.4,96,40.1,92.2,39.4L92.2,39.4z M75.9,52.8h5.4V31.3h-5.4V52.8z M167.5,31.3
		h-8.1v9l5.4,4.8v-8.8h2.9c1.8,0,2.7,0.9,2.7,2.3v6.7c0,1.4-0.8,2.4-2.7,2.4h-8.2v5.1h8.1c4.3,0,8.4-2.1,8.4-7.1v-7.2
		C175.9,33.5,171.9,31.3,167.5,31.3z M128,31c-4.5,0-8.9,2.4-8.9,7.4v7.3c0,4.9,4.5,7.4,9,7.4c4.5,0,8.9-2.5,8.9-7.4v-7.3
		C137,33.4,132.5,31,128,31z M131.5,45.7c0,1.6-1.7,2.4-3.5,2.4c-1.7,0-3.5-0.8-3.5-2.4v-7.3c0-1.6,1.7-2.4,3.4-2.4
		c1.8,0,3.6,0.8,3.6,2.4V45.7z M156.5,38.4c-0.1-5-3.6-7.1-8-7.1h-8.6v21.5h5.5V46h1l5,6.8h6.8l-5.9-7.4
		C154.8,44.6,156.5,42.4,156.5,38.4z M148.6,41.3h-3.2v-4.9h3.2C152,36.4,152,41.3,148.6,41.3z"/>
</g>
<g id="Layer_2">
</g>
</svg>
