<?xml version="1.0" encoding="utf-8"?>
<!-- Generator: Adobe Illustrator 23.0.3, SVG Export Plug-In . SVG Version: 6.00 Build 0)  -->
<svg version="1.1" id="Layer_1" xmlns="http://www.w3.org/2000/svg" xmlns:xlink="http://www.w3.org/1999/xlink" x="0px" y="0px"
	 viewBox="0 0 175 90" style="enable-background:new 0 0 175 90;" xml:space="preserve">
<style type="text/css">
	.st0{fill:#FFD300;}
	.st1{fill:#FFFFFF;}
</style>
<path class="st0" d="M76.7,13.3c2.3-0.8,5,0,6.4,2c1.7,2.3,1.3,6.1-1.2,7.7c-2.7,2-7,1-8.3-2C72.1,18.2,73.7,14.3,76.7,13.3"/>
<path class="st1" d="M35.5,14.3c2.3-2.2,6.8-1.6,8,1.5c0.9,2.4,0.6,5.1,0.6,7.6c0,14.1,0,28.1,0,42.2c-0.2,1.5,0,3.2-1,4.6
	c-1.5,2.6-5.5,3-7.6,0.9c-1.6-1.4-1.8-3.7-1.7-5.7c-2.6,2.9-5.8,5.5-9.6,6.5C19.4,73,14,72.2,10,69.1c-4.7-3.5-7.1-9.3-7.7-15
	c-0.6-6,0-12.5,3.2-17.7c2.9,2.3,5.8,4.7,8.7,6.9c-1.4,3.9-1.6,8.3-0.6,12.4c0.7,2.8,2.3,5.5,4.8,6.9c3,1.9,7.2,1.7,10.1-0.3
	c1.7-1.1,2.7-2.8,3.6-4.6c4,3.2,8,6.5,12.1,9.7c-3.6-4-7.7-7.6-11.5-11.4c0.8-3.3,0.9-6.9,0.1-10.3c-0.8-3.4-2.9-6.7-6.2-8.1
	c-3.6-1.6-8-0.5-10.5,2.5c-2.5-2.4-5-4.8-7.5-7.3c4.2-3.7,10.1-4.6,15.5-3.6c3.9,0.6,7.2,3.1,9.8,5.9c0-5.1,0-10.2,0-15.3
	C33.8,17.9,34.1,15.7,35.5,14.3"/>
<path class="st1" d="M56.7,13.2c1.9-0.5,4.2-0.2,5.6,1.3c1.3,1.3,1.6,3.2,1.6,5c0,15.4,0,30.7,0,46.1c0,1.7-0.2,3.6-1.4,5
	c-1.9,2.3-5.8,2.5-7.8,0.3c-1.3-1.3-1.6-3.1-1.6-4.9c0-15.6,0-31.2,0-46.8C53,16.7,54.2,13.9,56.7,13.2"/>
<path class="st1" d="M146.3,29.6c6.5-1.7,14-1.2,19.5,2.9c4,2.9,6.5,7.6,7.1,12.5c0-0.1,0.1-0.5,0.1-0.6V48c-0.3,1.5-0.8,3.2-2.2,4
	c-2.5,1.3-5.4,1.3-8.2,1.3c-6.5,0-12.9,0-19.3,0c0.1,3.7,1.4,7.5,4.4,9.8c2.7,2.1,6.4,2.4,9.6,1.5c3.5-1.1,6.1-3.8,8.7-6.2
	c1.2-1.1,3-1.2,4.4-0.6c1.6,0.6,2.3,2.6,1.8,4.2c-0.9,3.3-3.6,5.8-6.5,7.4c-6,3.3-13.3,3.5-19.8,1.7c-6.1-1.7-11.1-6.8-12.7-12.9
	c-1.7-6.4-1.4-13.5,1.6-19.4C137,34.3,141.4,30.9,146.3,29.6 M146.4,38.9c-2.1,2.2-2.9,5.2-3.2,8.1c6.4,0,12.8,0,19.2,0
	c-0.2-2.5-0.7-5-2.2-7.1C157.3,35.5,150,35,146.4,38.9"/>
<path class="st1" d="M76.8,29.1c2-0.6,4.4-0.2,5.8,1.5c1.1,1.2,1.4,2.9,1.5,4.4c0,9.4,0,18.8,0,28.2c0,2.4,0.3,5-1.2,7
	c-1.7,2.5-5.7,2.9-7.8,0.8c-1.4-1.3-1.8-3.2-1.8-5.1c0-9.9,0-19.9,0-29.8C72.9,33.4,73.8,30,76.8,29.1"/>
<path class="st1" d="M90.4,31.7c1.4-2.9,5.5-3.8,8-1.8c1.4,1.6,2,3.8,2.7,5.8c2.5,7.1,5.1,14.2,7.6,21.3c0.3,0.8,0.5,1.7,1,2.4
	c3.1-8.5,6.2-17,9.4-25.4c0.6-1.5,1.2-3.2,2.5-4.4c2.2-1.5,5.5-0.8,7,1.4c1.2,1.6,0.7,3.8,0,5.6c-3.6,8.9-7.2,17.9-10.8,26.8
	c-1.1,2.4-1.7,5.1-3.6,7.1c-1.6,1.7-4.1,2.1-6.3,1.6c-2.1-0.5-3.6-2.3-4.4-4.3c-2.8-6.2-5.2-12.6-7.8-18.9c-1.6-4-3.3-8-4.9-12.1
	C90.1,35.2,89.5,33.3,90.4,31.7"/>
</svg>
