<?xml version="1.0" encoding="utf-8"?>
<!-- Generator: Adobe Illustrator 21.1.0, SVG Export Plug-In . SVG Version: 6.00 Build 0)  -->
<svg version="1.1" xmlns="http://www.w3.org/2000/svg" xmlns:xlink="http://www.w3.org/1999/xlink" x="0px" y="0px"
	 viewBox="0 0 175 90" style="enable-background:new 0 0 175 90;" xml:space="preserve">
<style type="text/css">
	.st0{fill:#FFFFFF;}
</style>
<g id="Layer_1">
	<path class="st0" d="M122.4,50.7c-0.4,0.4-0.7,0.9-0.7,1.6v12.6c0,0.7,0.2,1.2,0.7,1.6c0.4,0.4,0.9,0.7,1.6,0.7
		c0.7,0,1.2-0.2,1.7-0.7s0.7-0.9,0.7-1.6V52.3c0-1.5-0.7-2.3-2.3-2.3C123.4,50,122.8,50.2,122.4,50.7 M122.1,43.7
		c-0.6,0.6-0.8,1.2-0.8,2s0.3,1.4,0.8,2c0.6,0.6,1.2,0.8,2,0.8c0.7,0,1.4-0.3,2-0.8c0.6-0.6,0.8-1.2,0.8-2s-0.3-1.4-0.8-2
		c-0.6-0.6-1.2-0.8-2-0.8C123.3,42.9,122.6,43.2,122.1,43.7"/>
	<g>
		<path class="st0" d="M26.1,31.9c-4.2,2.4-8.1,3.4-8.8,2.3c-0.7-1.2,2.3-4,6.5-6.3c4.2-2.4,8.1-3.4,8.8-2.3
			C33.2,26.7,30.4,29.5,26.1,31.9 M33.7,25.3c-0.9-1.6-5.5-0.8-10.2,1.9s-7.8,6.2-6.9,7.8c0.9,1.6,5.5,0.8,10.2-1.9
			S34.6,26.9,33.7,25.3"/>
		<path class="st0" d="M19,41.4c0.1-0.3,0.1-0.5,0.3-0.7s0.3-0.4,0.5-0.7c0.2-0.2,0.4-0.4,0.7-0.4c0.3-0.1,0.6-0.1,0.8-0.1
			c0.3,0,0.5,0.1,0.8,0.1c0.2,0.1,0.5,0.2,0.7,0.4c0.2,0.2,0.4,0.4,0.4,0.7c0.1,0.3,0.1,0.6,0.1,0.9s-0.1,0.6-0.2,0.9
			s-0.3,0.5-0.6,0.7c-0.2,0.2-0.5,0.4-0.8,0.5c-0.4,0.1-0.7,0.1-0.9,0.1s-0.6-0.1-0.8-0.2c-0.2-0.1-0.4-0.3-0.7-0.5
			c-0.1-0.2-0.3-0.4-0.4-0.7C19,42,19,41.7,19,41.4 M18.8,42.3c0.1,0.3,0.2,0.6,0.4,0.9c0.2,0.2,0.4,0.4,0.7,0.6s0.6,0.2,0.9,0.3
			c0.4,0,0.7,0,1-0.1c0.4-0.1,0.7-0.3,0.9-0.6c0.3-0.2,0.5-0.5,0.7-0.9c0.1-0.3,0.2-0.7,0.3-1c0-0.4,0-0.7-0.1-1
			c-0.1-0.3-0.3-0.6-0.5-0.8c-0.2-0.2-0.5-0.4-0.8-0.4c-0.3-0.1-0.6-0.1-0.9-0.1c-0.3,0-0.6,0.1-0.9,0.2c-0.3,0.1-0.6,0.3-0.8,0.5
			c-0.2,0.2-0.4,0.4-0.6,0.7s-0.2,0.6-0.3,0.9C18.7,41.7,18.7,42,18.8,42.3 M19.7,41.7l0.1,0.7l-0.4-0.2L19.7,41.7z M20.6,39.9
			l0.4,0.1l-0.7,0.2L20.6,39.9z M21.3,41.1c0.1,0,0.1,0.1,0.1,0.1c0,0.1,0.1,0.1,0.1,0.1c0,0.1,0,0.1,0,0.1c0,0.1,0,0.1-0.1,0.1
			c0,0.1-0.1,0.1-0.1,0.1c-0.1,0-0.1,0.1-0.1,0.1c-0.1,0-0.1,0-0.1,0c-0.1,0-0.1,0-0.1,0c-0.1,0-0.1-0.1-0.1-0.1
			c0-0.1-0.1-0.1-0.1-0.1c0-0.1,0-0.1,0-0.1c0-0.1,0-0.1,0.1-0.1c0-0.1,0.1-0.1,0.1-0.1c0.1,0,0.1-0.1,0.1-0.1c0.1,0,0.1,0,0.1,0
			C21.2,41.1,21.2,41.1,21.3,41.1 M21.9,42.7l-0.3,0.4l-0.4-0.2L21.9,42.7z M22.8,40.9l-0.2,0.4l-0.2-0.7L22.8,40.9z M19.2,42.7
			L19.2,42.7C19.2,42.8,19.3,42.8,19.2,42.7c0.1,0.1,0.1,0.1,0.1,0.1h0.1l1.2-0.4l0.4,1.2v0.1c0,0,0,0,0.1,0.1h0.1h0.1l1.1-0.4h0.1
			c0,0,0,0,0.1-0.1v-0.1v-0.1L22,41.9l1.2-0.4h0.1c0,0,0,0,0.1-0.1v-0.1v-0.1L23,40.3c0,0,0,0,0-0.1c0,0,0,0-0.1,0h-0.1h-0.1
			l-1.2,0.4l-0.4-1.1c0,0,0,0,0-0.1c0,0,0,0-0.1,0c0,0,0,0-0.1,0h-0.1l-0.9,0.4c0,0,0,0-0.1,0c0,0,0,0,0,0.1c0,0,0,0,0,0.1v0.1
			l0.3,1.1l-1.2,0.4h-0.1c0,0,0,0,0,0.1c0,0,0,0,0,0.1v0.1L19.2,42.7z M35.1,37.2c-0.1-0.1-0.1-0.1-0.2-0.2s-0.2-0.1-0.3-0.1
			c-0.1,0-0.2,0-0.4,0S34,36.9,33.9,37c-0.1,0.1-0.1,0.1-0.2,0.2s-0.1,0.2-0.1,0.3c0,0.1,0,0.2,0,0.3c0,0.1,0.1,0.2,0.1,0.3
			c0.1,0.1,0.1,0.1,0.2,0.2s0.2,0.1,0.3,0.1c0.1,0,0.2,0,0.4,0s0.2-0.1,0.3-0.1c0.1-0.1,0.1-0.1,0.2-0.2s0.1-0.2,0.1-0.3
			c0-0.1,0-0.2,0-0.3C35.2,37.3,35.2,37.2,35.1,37.2 M38.9,36.4c-0.1-0.1-0.1-0.1-0.2-0.2c-0.1-0.1-0.2-0.1-0.3-0.1
			c-0.1,0-0.2,0-0.3,0c-0.1,0-0.2,0.1-0.3,0.1c-0.1,0.1-0.1,0.1-0.2,0.2s-0.1,0.1-0.1,0.3c0,0.1,0,0.2,0,0.3c0,0.1,0.1,0.2,0.1,0.3
			c0.1,0.1,0.1,0.1,0.2,0.2c0.1,0.1,0.2,0.1,0.3,0.1s0.2,0,0.4,0s0.2-0.1,0.3-0.1c0.1-0.1,0.1-0.1,0.2-0.2c0.1-0.1,0.1-0.1,0.1-0.3
			c0-0.1,0-0.2-0.1-0.3C39.1,36.5,39,36.4,38.9,36.4 M36.1,36.1c0.1,0,0.2-0.1,0.3-0.1c0.1-0.1,0.1-0.1,0.2-0.2
			c0.1-0.1,0.1-0.1,0.1-0.2c0-0.1,0-0.1,0-0.3c0-0.1-0.1-0.1-0.1-0.2c-0.1-0.1-0.1-0.1-0.2-0.1c-0.1-0.1-0.1-0.1-0.3-0.1
			c-0.1,0-0.2,0-0.3,0c-0.1,0-0.2,0.1-0.3,0.1c-0.1,0.1-0.1,0.1-0.2,0.2c-0.1,0.1-0.1,0.1-0.1,0.2c0,0.1,0,0.2,0,0.3
			c0,0.1,0.1,0.2,0.1,0.3c0.1,0.1,0.1,0.1,0.2,0.2c0.1,0.1,0.2,0.1,0.3,0.1C35.9,36.1,36,36.1,36.1,36.1 M37.6,38.6
			c-0.1-0.1-0.1-0.1-0.3-0.2c-0.1-0.1-0.2-0.1-0.3-0.1c-0.1,0-0.2,0-0.4,0s-0.2,0.1-0.3,0.1c-0.1,0.1-0.1,0.1-0.2,0.2
			c-0.1,0.1-0.1,0.2-0.1,0.3c0,0.1,0,0.2,0,0.4s0.1,0.2,0.1,0.3c0.1,0.1,0.1,0.1,0.3,0.2c0.1,0.1,0.2,0.1,0.4,0.1c0.1,0,0.2,0,0.4,0
			s0.2-0.1,0.3-0.1c0.1-0.1,0.1-0.1,0.2-0.3c0.1-0.1,0.1-0.2,0.1-0.3c0-0.1,0-0.2,0-0.4C37.8,38.8,37.7,38.8,37.6,38.6 M39.4,37
			c0,0.1-0.1,0.2-0.1,0.4c-0.1,0.1-0.1,0.2-0.2,0.3c-0.1,0.1-0.2,0.1-0.4,0.1s-0.3,0-0.4,0c-0.1,0-0.3-0.1-0.4-0.1
			c-0.1-0.1-0.2-0.1-0.3-0.2c-0.1-0.1-0.1-0.2-0.2-0.4c-0.1-0.1-0.1-0.2,0-0.4c0-0.1,0.1-0.2,0.1-0.3c0.1-0.1,0.1-0.1,0.2-0.2
			c0.1-0.1,0.2-0.1,0.4-0.1c0.1,0,0.3,0,0.4,0c0.1,0,0.2,0.1,0.4,0.1c0.1,0.1,0.2,0.1,0.3,0.2c0.1,0.1,0.1,0.2,0.2,0.3
			C39.4,36.8,39.4,36.9,39.4,37 M38.1,39.4c0,0.1-0.1,0.3-0.1,0.4c-0.1,0.1-0.1,0.2-0.3,0.3c-0.1,0.1-0.2,0.1-0.4,0.2
			s-0.3,0.1-0.4,0c-0.1,0-0.3-0.1-0.4-0.1c-0.1-0.1-0.2-0.1-0.3-0.3c-0.1-0.1-0.1-0.2-0.2-0.4c0-0.1-0.1-0.3,0-0.4
			c0-0.1,0.1-0.3,0.1-0.4c0.1-0.1,0.1-0.2,0.3-0.3c0.1-0.1,0.2-0.1,0.4-0.1s0.3,0,0.4,0c0.1,0,0.3,0.1,0.4,0.1
			c0.1,0.1,0.2,0.1,0.3,0.3c0.1,0.1,0.1,0.2,0.2,0.4C38.1,39.1,38.1,39.3,38.1,39.4 M35.2,36c-0.1-0.1-0.1-0.2-0.1-0.3
			c0-0.1,0-0.2,0-0.4c0-0.1,0.1-0.2,0.1-0.3c0.1-0.1,0.1-0.1,0.2-0.2s0.2-0.1,0.4-0.1c0.1,0,0.2,0,0.4,0s0.2,0.1,0.4,0.1
			c0.1,0.1,0.2,0.1,0.3,0.2c0.1,0.1,0.1,0.2,0.1,0.3c0,0.1,0.1,0.2,0,0.4c0,0.1-0.1,0.2-0.1,0.3c-0.1,0.1-0.1,0.1-0.2,0.2
			s-0.2,0.1-0.4,0.1s-0.3,0-0.4,0c-0.1,0-0.2-0.1-0.4-0.1C35.3,36.2,35.2,36.1,35.2,36 M35.4,37.9c0,0.1-0.1,0.2-0.1,0.4
			c-0.1,0.1-0.1,0.2-0.3,0.3c-0.1,0.1-0.2,0.1-0.4,0.1s-0.3,0-0.4,0c-0.1,0-0.3-0.1-0.4-0.1c-0.1-0.1-0.2-0.1-0.3-0.3
			c-0.1-0.1-0.2-0.2-0.2-0.3c0-0.1,0-0.3,0-0.4c0-0.1,0.1-0.2,0.1-0.4c0.1-0.1,0.1-0.2,0.3-0.3c0.1-0.1,0.2-0.1,0.4-0.1s0.3,0,0.4,0
			c0.1,0,0.2,0.1,0.4,0.1c0.1,0.1,0.2,0.1,0.3,0.2c0.1,0.1,0.1,0.2,0.1,0.4C35.4,37.6,35.4,37.7,35.4,37.9 M33,43.7
			c0,0.1,0,0.1,0.1,0.2c0.3,0.9,1.2,1.4,2.1,1.2c0.9-0.3,1.4-1.2,1.2-2.1c0-0.1-0.1-0.2-0.1-0.3c0.1,0.1,0.1,0.3,0.2,0.5
			c0.3,0.9-0.3,1.9-1.2,2.1c-0.9,0.3-1.9-0.3-2.1-1.2C33,44,33,43.8,33,43.7 M34.3,42.1c0.5-0.1,1.1,0.1,1.4,0.5
			c-0.4-0.2-0.9-0.3-1.3-0.1c-0.5,0.1-0.9,0.4-1,0.8C33.4,42.7,33.8,42.2,34.3,42.1 M32.3,43.8c-0.8,0.1-1.6,0.3-2.3,0.4
			c-0.7,0.2-1.4,0.5-2.1,0.8c0-0.1-0.1-0.1-0.1-0.2c0.7-0.4,1.5-0.7,2.2-0.9s1.5-0.4,2.3-0.4C32.3,43.7,32.3,43.8,32.3,43.8
			 M29.6,38.5c0.4-0.1,0.7-0.1,1.1-0.1c0.1,0,0.2,0.1,0.3,0.2c0,0.1,0,0.1,0,0.1c0,0.1-0.1,0.2-0.2,0.2c-0.4,0.1-0.7,0.1-1,0.1
			c-0.1,0-0.2-0.1-0.3-0.1c0-0.1,0-0.1-0.1-0.1C29.4,38.7,29.5,38.5,29.6,38.5 M26.4,47.8c-0.9,0.3-1.9-0.3-2.1-1.2
			c-0.1-0.1-0.1-0.3-0.1-0.4c0,0.1,0,0.2,0.1,0.3c0.3,0.9,1.2,1.4,2.1,1.2c0.9-0.3,1.4-1.2,1.2-2c0-0.1-0.1-0.2-0.1-0.3
			c0.1,0.1,0.1,0.3,0.2,0.4C27.7,46.7,27.2,47.6,26.4,47.8 M25.4,44.6c0.5-0.1,1.1,0.1,1.5,0.5c-0.4-0.2-0.9-0.3-1.3-0.1
			c-0.5,0.1-0.9,0.4-1,0.8C24.5,45.3,24.8,44.8,25.4,44.6 M24.6,41.7c0,0.4-0.1,0.9-0.4,1.3c-0.2,0.4-0.5,0.8-0.9,1.2
			s-0.8,0.6-1.3,0.7c-0.1,0-0.1,0-0.1,0.1c-0.4,0.1-0.9,0.1-1.3,0.1c-0.4-0.1-0.9-0.2-1.2-0.4c-0.4-0.2-0.7-0.5-0.9-0.8
			c-0.2-0.4-0.4-0.7-0.5-1.1c-0.1-0.4-0.1-0.8,0-1.2c0.1-0.4,0.2-0.7,0.4-1.1c0.1-0.1,0.1-0.3,0.2-0.4c-0.1,0.1-0.1,0.2-0.2,0.3
			c-0.2,0.4-0.3,0.7-0.4,1.1c-0.1,0.4-0.1,0.8,0,1.2c0.1,0.4,0.2,0.8,0.5,1.1c0.2,0.3,0.5,0.6,0.9,0.8s0.7,0.4,1.2,0.4
			c0.4,0.1,0.9,0,1.4-0.1c0.4-0.1,0.9-0.4,1.2-0.7c0.4-0.3,0.7-0.7,0.8-1.1c0.2-0.4,0.3-0.9,0.3-1.3c0-0.4-0.1-0.9-0.2-1.3
			c-0.1-0.4-0.4-0.7-0.7-1c-0.3-0.3-0.7-0.4-1-0.6c-0.1-0.1-0.3-0.1-0.4-0.1c0.1,0,0.4,0.1,0.5,0.1c0.4,0.1,0.7,0.4,1,0.6
			c0.3,0.3,0.6,0.7,0.7,1C24.6,40.8,24.7,41.2,24.6,41.7 M19.6,39.8c0.2-0.2,0.5-0.4,0.8-0.5c0.3-0.1,0.7-0.2,0.9-0.2
			c0.3,0,0.7,0.1,0.9,0.1c0.3,0.1,0.6,0.3,0.8,0.5c0.2,0.2,0.4,0.5,0.6,0.8c0.1,0.4,0.2,0.7,0.1,1c0,0.4-0.1,0.7-0.3,1
			c-0.1,0.3-0.4,0.7-0.7,0.9s-0.6,0.4-0.9,0.6s-0.7,0.1-1.1,0.1s-0.7-0.1-0.9-0.3c-0.3-0.1-0.5-0.4-0.7-0.7
			c-0.2-0.2-0.3-0.5-0.4-0.9c-0.1-0.3-0.1-0.7,0-0.9c0.1-0.3,0.1-0.6,0.3-0.9C19.2,40.3,19.3,40,19.6,39.8 M27.7,39.7
			c-0.3,0.1-0.7,0.3-0.9,0.4c-0.1,0.1-0.2,0-0.3-0.1c0-0.1-0.1-0.1-0.1-0.1c-0.1-0.1,0-0.2,0.1-0.3c0.4-0.1,0.7-0.3,1-0.4
			c0.1-0.1,0.3,0,0.3,0.1c0,0.1,0.1,0.1,0.1,0.1C27.8,39.6,27.7,39.7,27.7,39.7 M48.2,26c0.8-0.3,1.5-0.9,2-1.8c0,0-1,0.2-2.4,0.4
			c1.7-0.7,2.9-1.7,2.9-1.7c-0.9,0.5-1.8,0.9-2.5,1.2c0.8-0.5,1.4-1.3,1.7-2.5c0,0-0.8,0.4-2,0.9c1.5-1.2,2.4-2.5,2.4-2.5
			c-0.9,1-1.9,1.7-2.6,2.3c0.8-0.7,1.3-1.8,1.3-3.4c0,0-0.7,0.7-1.7,1.5c1.2-1.7,1.7-3.4,1.7-3.4c-0.7,1.4-1.4,2.4-2,3.1
			c0.6-1,0.9-2.3,0.6-4c0,0-0.4,0.9-1.2,2c0.8-1.8,0.9-3.6,0.9-3.6c-0.4,1.5-0.9,2.7-1.5,3.6c0.4-1.3,0.4-2.8-0.1-4.6
			c0,0-0.3,1.1-0.8,2.5c0.3-2.3-0.1-4.3-0.1-4.3c0.1,1.7-0.1,3.1-0.2,4.1c0.1-1.4-0.1-2.9-0.8-4.4c0,0-0.2,2.4-0.9,5.2
			c-0.2-0.8-0.4-1.3-0.4-1.3c0,2.3-0.9,4.2-1.3,4.9c-0.5,0.7-0.4,1.3-0.4,1.3c-0.1-0.4,0.1-1.5,0.1-1.5c-0.8,2.2-0.7,2.2,0.9,4.4
			c0.7,0.9,0.8,1.7,0.7,2.5c-0.3,1.4-1.5,2.5-1.9,3c-0.1,0.1-0.2,0.4-0.2,0.5c-0.1-0.5,0-1.2,0.4-2c0,0-1.7,2.2-1.4,5.4
			c-1.3-1.1-2.7-1.4-4.1-1c-0.1,0.1-0.3,0.1-0.4,0.1c-0.1,0-0.1,0.1-0.1,0.1c1.5-0.4,3.1,0.1,4.5,1.2c0.1,0,0.1,0.1,0.1,0.1
			c0,0.1,0,0.1,0,0.1c-1.9-1.5-4.1-2-6.3-0.4c-0.1,0.1-0.3,0.2-0.4,0.3c0.2,2.5,0.1,4.8-0.2,6.5c-0.2,0.9-0.6,1.7-1,2.3
			c1.1-1.5,1.4-4.6,1-8.6C32,34.7,31.2,35,28,35.9c-3.2,0.9-4,1.1-4.6,1.2c1.8,3.6,3.8,6,5.4,6.7c-0.7-0.2-1.3-0.7-2-1.4
			c-1.2-1.2-2.5-3.1-3.7-5.4c-0.1,0-0.3,0-0.5,0c-2.8,0-4.4,1.6-5.2,4c0-0.1-0.1-0.1-0.1-0.1c0-0.1,0.1-0.2,0.1-0.4
			c0.7-1.7,1.7-2.9,3.2-3.3c-0.1,0-0.1-0.1-0.1-0.1c-0.1,0-0.3,0.1-0.4,0.1c-1.4,0.4-2.4,1.5-2.9,3.2c-1.5-3.1-4.2-4-4.2-4
			c0.7,0.4,1.1,1,1.3,1.5c-0.1-0.1-0.3-0.2-0.4-0.3c-0.7-0.2-2.3-0.4-3.2-1.5c-0.4-0.5-0.8-1.3-0.7-2.4c0.2-2.7,0.3-2.8-1.5-4.1
			c0,0,0.7,0.8,0.9,1.2c0,0-0.3-0.5-1.1-0.9s-2.5-1.5-3.8-3.5c0,0,0.1,0.6,0.3,1.3c-2-2-3.5-3.9-3.5-3.9c0.2,1.7,0.9,3.1,1.7,4.2
			c-0.7-0.7-1.6-1.9-2.4-3.3c0,0,0.7,2,2.2,3.7c-1.2-0.9-2-1.7-2-1.7C1.2,28.4,2,29.7,3,30.6c-0.9-0.5-2-1.2-3.1-2.3
			c0,0,1.1,1.4,2.7,2.5c-1.2-0.5-2.1-1-2.1-1c0.7,1.6,1.6,2.5,2.6,3.1C2.2,32.5,1,32-0.3,31.2c0,0,1.4,1.2,3.3,2
			c-1.3-0.1-2.3-0.4-2.3-0.4c0.9,1.3,1.9,2,3,2.2c-0.9-0.1-2.1-0.1-3.5-0.5c0,0,1.5,0.7,3.4,0.9c-1.2,0.3-2.2,0.4-2.2,0.4
			c0.9,0.9,1.8,1.2,2.8,1.2c-0.8,0.1-1.7,0.3-2.8,0.4c0,0,1.5,0.1,3.3-0.1c-1.3,0.7-2.3,1-2.3,1c0.9,0.6,1.8,0.7,2.7,0.4
			c-0.7,0.3-1.7,0.7-2.7,0.9c0,0,1.6-0.1,3.3-0.7C4.8,39.6,4,40.1,4,40.1c1.2,0.4,2.2,0.1,3.1-0.4c-0.7,0.5-1.7,1.1-2.8,1.6
			c0,0,1.3-0.4,2.8-1.2c-0.8,0.9-1.5,1.4-1.5,1.4c1.1,0.1,2-0.2,2.8-0.7c-0.5,0.6-1.2,1.2-2.2,1.8c0,0,1.3-0.7,2.5-1.7
			c-0.7,1-1.3,1.6-1.3,1.6c1.2-0.1,2.1-0.6,2.8-1.2c-0.4,0.6-1.1,1.2-2,2c0,0,1.2-0.7,2.3-1.8c-0.4,1-0.9,1.6-0.9,1.6
			c1.2-0.2,2-0.7,2.5-1.3c-0.3,0.5-0.7,1.1-1.2,1.7c0,0,0.9-0.7,1.6-1.9c-0.2,1.1-0.6,1.7-0.6,1.7c1.2-0.3,1.9-0.9,2.2-1.5
			c-0.1,0.5-0.4,1.2-0.7,1.9c0,0,0.5-0.8,0.9-1.9c0.1,1.1-0.1,1.8-0.1,1.8c1.2-0.4,1.6-1,1.7-1.8c0.1,0.6,0.1,1.3,0.1,2.2
			c0,0,0.2-0.9,0.1-2c0.4,1,0.4,1.7,0.4,1.7c0.1-0.1,0.4-0.3,0.6-0.6c-0.1,0.4-0.1,0.9-0.1,1.5c0.1,0.6,0.4,1.1,0.5,1.5
			c0,0.1,0,0.1,0,0.1c0-0.1,0-0.1,0.1-0.1c0.6,1.5,1.3,2.5,2,3.4c0.9,1.4,1.6,2.4,1.2,4.1c0.7,0.6,1.5,0.8,2.1,0.7
			c0.7-0.1,1.1-1.1,1.4-2.3C24,51.9,24,50.8,24,49.9c0-0.7,0.1-1.6,0.2-2.2c-0.2-0.3-0.4-0.6-0.5-0.9c-0.4-1.3,0.4-2.7,1.6-3.1
			c0.9-0.2,1.8,0,2.4,0.7c-0.6-0.5-1.4-0.7-2.3-0.5c-1.2,0.4-2,1.7-1.6,2.9c0.1,0.4,0.3,0.6,0.4,0.9c-0.4,1-0.4,4.1-0.2,4.2
			c0.2-0.8,0.4-1.6,0.5-2.3c0-0.1,0.1-0.1,0.1-0.3l0,0v-0.1c0,0,0,0,0-0.1v-0.1c0,0,0,0,0-0.1c0,0,0-0.1,0.1-0.1l0,0c0,0,0,0,0-0.1
			c0,0,0,0,0-0.1c0,0,0,0,0-0.1c0,0,0,0,0-0.1c0,0,0,0,0-0.1c0,0,0,0,0-0.1c0,0,0,0,0-0.1v-0.1l0,0c0,0,0,0,0-0.1l0,0c0,0,0,0,0-0.1
			l0,0c0,0,0,0,0-0.1l0,0l0.1-0.1c0.5,0.2,1.1,0.3,1.7,0.1c0.9-0.3,1.6-1.1,1.7-2c0.4-0.1,0.8-0.3,1.2-0.4l0,0
			c0.1,0,0.2-0.1,0.3-0.1l0,0c0.1,0,0.1-0.1,0.2-0.1l0,0c0.1,0,0.1-0.1,0.2-0.1c0,0,0,0,0.1,0s0.1-0.1,0.2-0.1s0.1-0.1,0.2-0.1
			c0,0,0,0,0.1,0c0.1,0,0.1-0.1,0.2-0.1l0,0c0.6-0.1,1.2-0.3,1.8-0.4c0.6,0.7,1.5,1,2.5,0.8c0.6-0.1,1-0.5,1.3-1h0.1l0,0h0.1l0,0
			c0,0,0,0,0.1,0l0,0c0,0,0,0,0.1,0l0,0c0,0,0,0,0.1,0l0,0c0.1,0,0.1,0.1,0.1,0.1l0,0c0,0,0,0,0.1,0.1l0,0c0.1,0.1,0.1,0.1,0.3,0.2
			l0,0l0.1,0.1l0,0c0.1,0.1,0.1,0.1,0.2,0.2l0,0c0.5,0.5,1.1,1.1,1.7,1.7c0-0.2-1.7-2.8-2.5-3.4c0.1-0.3,0-0.7-0.1-0.9
			c-0.4-1.2-1.7-2-3-1.6c-0.7,0.2-1.2,0.7-1.5,1.4c0.2-0.7,0.8-1.4,1.6-1.6c1.3-0.4,2.6,0.4,3,1.7c0.1,0.4,0.1,0.7,0.1,1.1
			c0.4,0.4,1,1.2,1.4,1.7c0.5,0.8,1.1,1.7,1.2,2c0.9,0.8,1.7,1.4,2.3,1.2c0.7-0.2,1.1-0.8,1.5-1.7c-1.3-1.2-1.2-2.4-1.2-4.1
			c0.1-1.5,0.1-3.1-0.6-5.5c-0.2-0.4-0.5-0.7-0.7-1.1c0.2,0.1,0.4,0.1,0.6,0.1c0,0-0.3-0.7-0.5-1.7c0.5,0.9,1.2,1.6,1.2,1.6
			c-0.5-0.7-0.8-1.3-1.1-1.9c0.4,0.7,1.2,0.9,2.4,0.7c0,0-0.5-0.5-1-1.5c0.9,0.7,1.7,1.2,1.7,1.2c-0.7-0.4-1.1-0.9-1.5-1.2
			c0.7,0.4,1.5,0.6,2.7,0.1c0,0-0.7-0.4-1.5-1.2c1.2,0.6,2.3,0.7,2.3,0.7c-0.8-0.2-1.5-0.6-2-0.9c0.7,0.2,1.7,0.2,2.8-0.2
			c0,0-0.7-0.3-1.7-0.9c1.5,0.4,2.8,0.3,2.8,0.3c-1.2-0.1-2.1-0.4-2.8-0.6c0.9,0.1,1.9,0.1,3-0.5c0,0-0.9-0.2-2-0.7
			c1.6,0.4,3.1,0.1,3.1,0.1c-1.1-0.1-2-0.2-2.8-0.4c0.9,0,1.8-0.2,2.8-0.9c0,0-0.8-0.1-2-0.4c1.7-0.1,3-0.5,3-0.5
			c-1.2,0.1-2.3,0.1-3.2,0.1c1-0.1,2-0.4,2.8-1.4c0,0-0.9,0-2.3-0.1c1.8-0.4,3.2-1.2,3.2-1.2C50,25.7,49,25.9,48.2,26 M16.6,45.2
			c0,0.4,0.1,0.8,0.1,1.2c0.1,0.9,0.3,1.7,0.5,2.4l0,0v0.1c0,0.1,0,0.1,0.1,0.2v0.1c0,0.1,0.1,0.1,0.1,0.1v0.1
			c0,0.1,0.1,0.1,0.1,0.1v0.1c0,0.1,0.1,0.1,0.1,0.1v0.1c0,0.1,0.1,0.1,0.1,0.1v0.1c0,0.1,0.1,0.1,0.1,0.2v0.1
			c0,0.1,0.1,0.1,0.1,0.2c0,0,0,0,0,0.1s0.1,0.1,0.1,0.2c0,0,0,0,0,0.1s0.1,0.1,0.1,0.2l0,0c0,0.1,0.1,0.1,0.1,0.2l0,0
			c0.1,0.1,0.1,0.1,0.1,0.2l0,0c0.1,0.1,0.1,0.1,0.1,0.2l0,0c0.5,0.8,1.1,1.5,1.7,2C21,50.8,17.9,50.5,16.6,45.2 M42,37.8
			c1.7,5.2-0.7,7.1,1.6,9.1c0.7-1.9,0.5-5-1-8C42.4,38.5,42.2,38.2,42,37.8"/>
	</g>
	<g>
		<path class="st0" d="M82.4,70.1L82.4,70.1c0.3,0,0.4,0.1,0.4,0.3c0,0.1,0,0.1,0.1,0.1c0.8,0.1,1.5,0.4,2.2,0.8
			c0.6,0.3,0.8,0.7,0.7,1.2v0.1c-0.1,0.6-0.5,1.1-1.2,1.5c-0.5,0.3-1,0.6-1.6,0.8l-0.7,0.2c0.1,0.7,0,1.2-0.1,1.5v0.1
			c-0.1,0.4-0.2,0.6-0.4,0.7c-0.4,0-0.5-0.4-0.4-1.4c0-0.4-0.1-0.7-0.1-0.7c0,0-0.1-0.1-0.3-0.1c-0.1-0.1-0.1-0.1-0.1-0.4v-0.1l0,0
			c0,0,0.1-0.1,0.4-0.3l0,0c-0.1-0.4,0-1.2,0.2-2.5l0.1-0.7c-0.4-0.1-0.6-0.3-0.6-0.4V71c0.1-0.3,0.2-0.4,0.3-0.4l0.5-0.1
			C82,70.2,82.2,70.1,82.4,70.1 M82.5,71.3L82.5,71.3c-0.3,1.8-0.4,2.8-0.3,3.1c0.6-0.2,1.1-0.4,1.5-0.6c0.4-0.2,0.8-0.6,1-1
			c0-0.1,0.1-0.1,0.1-0.1l0,0C85,72.1,84.2,71.7,82.5,71.3L82.5,71.3z"/>
		<path class="st0" d="M87.4,69.3L87.4,69.3c0.2,0,0.3,0.1,0.3,0.2c0,0.3-0.1,0.7-0.1,1L86.9,73l-0.1,0.2c-0.1,0.7-0.2,1.7-0.3,3
			v0.1c-0.1,0.2-0.1,0.3-0.2,0.4c-0.1,0-0.2,0-0.4,0.1c-0.1-0.1-0.1-0.1-0.2-0.2c0.1-1.5,0.1-2.7,0.4-3.6l0.1-0.4
			c0.1-0.7,0.3-1.3,0.6-2c0,0,0-0.1,0-0.4L86.7,70c0.1,0,0.1-0.2,0.3-0.6C87.1,69.4,87.2,69.3,87.4,69.3"/>
		<path class="st0" d="M90.4,73L90.4,73c0.2,0,0.4,0.1,0.4,0.4c0,0.1,0,0.7,0,1.5c0.1,0.4,0.1,0.9,0.4,1.2c0.1,0.2,0.1,0.4,0.1,0.5
			v0.1c0,0.1-0.1,0.1-0.2,0.1c-0.1,0.1-0.2,0.1-0.3,0.1c-0.2-0.1-0.4-0.3-0.6-0.6c-0.1-0.2-0.1-0.7-0.3-1.2L89.9,75
			c-0.4,0.5-0.8,0.9-1.1,1.2c-0.4,0.3-0.7,0.4-1.1,0.4c-0.4,0-0.6-0.2-0.6-0.6v-0.1v-0.1c0.1-0.5,0.5-1.1,1.3-1.8
			c0.4-0.3,1-0.6,1.6-0.8C90.1,73,90.3,73,90.4,73 M88,75.7L88,75.7L88,75.7c0.2,0,0.5-0.1,0.8-0.5c0.5-0.5,0.8-0.9,0.8-1.2l0,0l0,0
			c-0.1,0.1-0.5,0.3-1,0.7C88.3,75,88.1,75.3,88,75.7"/>
		<path class="st0" d="M95,72.2c0.1,0,0.2,0.1,0.3,0.1c-0.2,1.7-0.4,2.8-0.6,3.5V76l-0.2,1.8V78c-0.2,0.9-0.7,1.5-1.4,1.7
			c-0.1,0.1-0.3,0.1-0.4,0.1c-0.6,0-1.1-0.4-1.5-1c-0.1-0.2-0.1-0.4-0.1-0.5c0.1-0.1,0.2-0.1,0.4-0.1c0.1,0,0.2,0.1,0.5,0.3
			c0,0,0.1,0.1,0.2,0.1l0.6,0.4c0.1,0,0.1,0.1,0.2,0.1l0,0c0.3,0,0.5-0.2,0.7-0.7c0.1-0.3,0.2-0.6,0.3-1.1c0.1-0.7,0.2-1.5,0.2-2.4
			c-0.2,0.1-0.5,0.5-0.9,1c-0.4,0.3-0.6,0.4-0.7,0.4c-0.1,0.1-0.4,0.1-0.6,0.1h-0.1c-0.1,0-0.2-0.2-0.3-0.6c0-0.2,0-0.4,0.1-0.7
			c0.1-0.6,0.4-1.2,0.7-1.9c0.1-0.2,0.3-0.3,0.4-0.3h0.1c0.1,0,0.2,0.1,0.3,0.1V73c-0.1,0.2-0.2,0.7-0.5,1.3
			c-0.1,0.2-0.1,0.4-0.2,0.7v0.2h0.1c0.1,0,0.3-0.1,0.6-0.4c0.1,0,0.1-0.1,0.2-0.3c0.7-0.9,1-1.5,1.1-1.7c0.1-0.1,0.1-0.3,0.1-0.4
			l0,0c0.1-0.1,0.2-0.2,0.4-0.3H95V72.2z"/>
		<path class="st0" d="M100.1,70.1L100.1,70.1c0.7,0,1,0.4,1.3,1.1c0.1,0.4,0.1,0.6,0.1,0.7c-0.2,0.2-0.4,0.4-0.4,0.4
			c-0.1,0.1-0.1,0.1-0.2,0.1l0,0c-0.1,0-0.3-0.2-0.4-0.7c-0.1-0.3-0.1-0.5-0.4-0.7l-0.1-0.1c-0.3,0.1-0.5,0.2-0.7,0.4
			c-0.4,0.4-0.7,1-0.9,1.8v0.1c-0.2,1.2-0.1,2.1,0.4,2.9c0.1,0.2,0.4,0.3,0.6,0.3c0.5,0,1.1-0.6,1.7-1.8c0.1-0.3,0.3-0.7,0.4-1.1
			c-0.3,0-0.8,0.1-1.7,0.3v-0.1c0-0.1-0.1-0.1-0.2-0.2c-0.1-0.1-0.1-0.1-0.1-0.1l0,0c0.1-0.4,0.5-0.6,1.5-0.7
			c0.5-0.1,0.9-0.1,1.3-0.1c0.1,0,0.2,0,0.2,0.1c0,0.1,0,0.3,0,0.4c-0.1,0.6-0.6,1.5-1.4,2.7c-0.4,0.6-0.9,1-1.5,1.2
			c-0.1,0.1-0.2,0.1-0.4,0.1h-0.1c-0.5,0-0.9-0.2-1.3-0.7c-0.6-1-0.8-2.1-0.6-3.3V73c0.2-1.1,0.7-2,1.4-2.7
			C99.3,70.3,99.7,70.1,100.1,70.1"/>
		<path class="st0" d="M105.6,73L105.6,73c0.2,0,0.4,0.1,0.4,0.4c0,0.1,0,0.7,0,1.5c0.1,0.4,0.1,0.9,0.4,1.2
			c0.1,0.2,0.1,0.4,0.1,0.5v0.1c0,0.1-0.1,0.1-0.2,0.1c-0.1,0.1-0.2,0.1-0.3,0.1c-0.2-0.1-0.4-0.3-0.6-0.6c-0.1-0.2-0.1-0.7-0.3-1.2
			L105,75c-0.4,0.5-0.8,0.9-1.1,1.2c-0.4,0.3-0.7,0.4-1.1,0.4c-0.4,0-0.6-0.2-0.6-0.6v-0.1v-0.1c0.1-0.5,0.5-1.1,1.3-1.8
			c0.4-0.3,1-0.6,1.6-0.8C105.3,73,105.5,73,105.6,73 M103.1,75.7L103.1,75.7L103.1,75.7c0.2,0,0.5-0.1,0.8-0.5
			c0.5-0.5,0.8-0.9,0.8-1.2l0,0l0,0c-0.1,0.1-0.5,0.3-1,0.7C103.4,75,103.2,75.3,103.1,75.7"/>
		<path class="st0" d="M110.1,73.6L110.1,73.6c0.4,0.1,0.5,0.1,0.5,0.1c0.1,0.2,0.2,0.7,0.3,1.2c0.1,0.5,0.1,0.9,0.3,1.4
			c0,0-0.1,0.1-0.2,0.2c0,0.1,0,0.1-0.1,0.1c-0.4,0-0.7-0.2-0.7-0.7s-0.1-0.8-0.1-1l0,0c-0.7,1.2-1,1.7-1.2,1.7h-0.1
			c-0.4,0-0.4-0.4-0.4-1c0.1-0.5,0.1-0.8,0-0.8c-0.1,0.1-0.3,0.4-0.6,0.9c-0.3,0.6-0.5,0.9-0.8,0.9c-0.1,0-0.2-0.1-0.3-0.1v-0.1
			v-0.1l-0.1-0.1c0.1-0.1,0.1-0.4,0.2-0.5l0.1-0.9l0.1-0.2c0.1,0,0.1-0.1,0.2-0.2v-0.1c0,0,0.1-0.1,0.2-0.1c0-0.1,0.1-0.1,0.1-0.1
			l0.1,0.1c0.1,0,0.2-0.1,0.6-0.4c0.1-0.1,0.2-0.1,0.2-0.1c0.4,0,0.7,0.3,0.7,0.8v0.1l0,0c0.1-0.1,0.3-0.4,0.4-0.7
			c0.1-0.1,0.1-0.2,0.2-0.3h0.1L110.1,73.6z"/>
		<path class="st0" d="M113.2,73.1c0.4,0,0.8,0.3,0.9,0.9c0,0.2,0,0.4,0,0.4c-0.1,0.4-0.5,0.8-1.2,1.1l0,0c0.1,0.3,0.4,0.4,0.7,0.4
			c0.4,0,0.9-0.3,1.5-0.9c0.4-0.3,0.6-0.4,0.7-0.4l0,0l0,0v0.1v0.1c0,0,0,0.1,0.1,0.1c0.1,0,0.1-0.1,0.1-0.1l0,0l0,0
			c0,0.1-0.2,0.4-0.6,0.7c-0.1,0.1-0.1,0.1-0.1,0.3c-0.1,0-0.2,0.1-0.2,0.1c-0.3,0.4-0.7,0.7-1.3,0.9c-0.1,0-0.3,0.1-0.4,0.1h0
			c-0.7,0-1.2-0.4-1.7-1.4l0,0l0.1-1v-0.1c0.1-0.4,0.3-0.7,0.6-0.8C112.7,73.2,113,73.1,113.2,73.1 M112.5,74.4
			c-0.1,0.3,0,0.4,0.1,0.6c0.1,0,0.3-0.1,0.5-0.2c0.1-0.1,0.1-0.2,0.1-0.3c0.1-0.3,0-0.4-0.3-0.6h-0.1c-0.1,0-0.2,0.1-0.2,0.1
			C112.6,74.1,112.5,74.2,112.5,74.4"/>
		<path class="st0" d="M117.2,73.3h0.1c0.3,0,0.5,0.1,0.5,0.2c0,0.1,0.1,0.3,0.1,0.3c-0.1,0.1-0.2,0.1-0.4,0.2c-0.7,0.1-1,0.2-1,0.2
			c0.1,0.1,0.3,0.3,0.7,0.4c0.7,0.1,1.1,0.3,1.4,0.4c0.2,0.1,0.4,0.4,0.3,0.7c-0.1,0.4-0.6,0.7-1.4,0.9c-0.2,0.1-0.5,0.1-0.7,0.1
			c-0.8-0.1-1.2-0.1-1.2-0.3c-0.1-0.1-0.1-0.2-0.1-0.3V76c0-0.1,0.1-0.3,0.4-0.4c0.4,0.2,0.8,0.3,1.1,0.3c0.3,0,0.5-0.1,0.7-0.2l0,0
			c-0.2-0.1-0.7-0.3-1.3-0.4c-0.7-0.2-0.9-0.4-0.9-0.7v-0.1c0.1-0.4,0.4-0.8,1-1C116.7,73.4,116.9,73.3,117.2,73.3"/>
		<path class="st0" d="M119.6,75.7L119.6,75.7c0.3,0.1,0.4,0.1,0.4,0.3l0,0c-0.1,0.2-0.3,0.4-0.7,0.6h-0.1c-0.1,0-0.3-0.1-0.3-0.3
			v-0.1v-0.1c0.1-0.2,0.1-0.4,0.4-0.4L119.6,75.7z"/>
		<path class="st0" d="M127.8,69.3c0.3,0,0.4,0.1,0.4,0.3c0,0,0,0.1,0,0.3l-0.1,0.9c-0.1,0.3-0.2,1.2-0.5,2.8c0,0.2,0,0.4,0,0.4
			c0.9,0.1,1.3,0.3,1.3,0.6c-0.1,0.2-0.2,0.3-0.5,0.3h-0.1c-0.6,0-0.9-0.1-0.9-0.1l0,0l0,0c0,0,0,0.1-0.1,0.4c0,0.1,0,0-0.2,1.5v0.1
			l0,0c-0.1,0.1-0.3,0.2-0.6,0.2c-0.2,0-0.4-0.1-0.4-0.1c0-0.4,0-0.2,0.1-1.5c0-0.4,0.1-0.5,0-0.6h-0.3l-1.4,0.1
			c-0.1,0.7-0.4,1.7-0.4,1.9c-0.1,0.5-0.2,0.7-0.4,0.7h-0.4h-0.1c-0.1,0,0.1-1,0.2-1.6c0.1-0.7,0.1-0.9,0.1-0.9h-0.1h-0.1
			c-0.4,0-0.7-0.1-0.7-0.2c0-0.1-0.1-0.1,0-0.1c0.1-0.3,0.1-0.4,0.3-0.4h0.6c0.1,0,0.2,0,0.2-0.1c0.1-1.2,0.3-2.4,0.5-3.7l0,0
			c0.1-0.6,0.4-0.9,0.5-0.9h0.1c0.3,0,0.4,0.1,0.4,0.1c0.1,0.1,0.1,0.1,0.1,0.3l-0.1,0.6c-0.1,0.5-0.3,1.6-0.5,3.3v0.4h0.1
			c0.6,0,1.2-0.1,1.6-0.1c0.4-2,0.5-3.4,0.6-4V70c0.1-0.4,0.2-0.5,0.4-0.6h0.3V69.3z"/>
		<path class="st0" d="M130.2,73.1c0.4,0,0.8,0.3,0.9,0.9c0,0.2,0,0.4,0,0.4c-0.1,0.4-0.5,0.8-1.2,1.1l0,0c0.1,0.3,0.4,0.4,0.7,0.4
			c0.4,0,0.9-0.3,1.5-0.9c0.4-0.3,0.6-0.4,0.7-0.4l0,0l0,0v0.1v0.1c0,0,0,0.1,0.1,0.1s0.1-0.1,0.1-0.1l0,0l0,0
			c0,0.1-0.2,0.4-0.6,0.7c-0.1,0.1-0.1,0.1-0.1,0.3c-0.1,0-0.2,0.1-0.2,0.1c-0.3,0.4-0.7,0.7-1.3,0.9c-0.1,0-0.3,0.1-0.4,0.1h-0.1
			c-0.7,0-1.2-0.4-1.7-1.4l0,0l0.1-1v-0.1c0.1-0.4,0.3-0.7,0.6-0.8C129.7,73.2,130,73.1,130.2,73.1 M129.5,74.4
			c-0.1,0.3,0,0.4,0.1,0.6c0.1,0,0.3-0.1,0.5-0.2c0.1-0.1,0.1-0.2,0.1-0.3c0.1-0.3,0-0.4-0.2-0.6H130c-0.1,0-0.2,0.1-0.2,0.1
			C129.6,74.1,129.6,74.2,129.5,74.4"/>
		<path class="st0" d="M135.3,73L135.3,73c0.2,0,0.4,0.1,0.4,0.4c0,0.1,0,0.7,0,1.5c0.1,0.4,0.1,0.9,0.4,1.2
			c0.1,0.2,0.1,0.4,0.1,0.5v0.1c0,0.1-0.1,0.1-0.2,0.1c-0.1,0.1-0.2,0.1-0.3,0.1c-0.2-0.1-0.4-0.3-0.6-0.6c-0.1-0.2-0.1-0.7-0.3-1.2
			l-0.1-0.1c-0.4,0.5-0.8,0.9-1.1,1.2c-0.4,0.3-0.7,0.4-1.1,0.4s-0.6-0.2-0.6-0.6v-0.1v-0.1c0.1-0.5,0.5-1.1,1.3-1.8
			c0.4-0.3,1-0.6,1.6-0.8C134.9,73,135.1,73,135.3,73 M132.9,75.7L132.9,75.7L132.9,75.7c0.2,0,0.5-0.1,0.8-0.5
			c0.5-0.5,0.8-0.9,0.8-1.2l0,0l0,0c-0.1,0.1-0.5,0.3-1,0.7C133.1,75,132.9,75.3,132.9,75.7"/>
		<path class="st0" d="M138,69.3L138,69.3c0.2,0,0.3,0.1,0.3,0.2c0,0.3-0.1,0.7-0.1,1l-0.6,2.4l-0.1,0.2c-0.1,0.7-0.2,1.7-0.3,3v0.1
			c-0.1,0.2-0.1,0.3-0.2,0.4c-0.1,0-0.2,0-0.4,0.1c-0.1-0.1-0.1-0.1-0.2-0.2c0.1-1.5,0.1-2.7,0.4-3.6l0.1-0.4c0.1-0.7,0.3-1.3,0.6-2
			c0,0,0-0.1,0-0.4l-0.1-0.1c0.1,0,0.1-0.2,0.3-0.6C137.7,69.4,137.9,69.3,138,69.3"/>
		<path class="st0" d="M141.9,70.6h0.1c0.2,0,0.4,0.1,0.3,0.2l-0.1,0.2c0,0.1-0.1,0.5-0.4,1.2l-0.1,0.3c0.7-0.3,1.6-0.7,2.4-1.2
			l0.7-0.4c0.4,0.1,0.6,0.1,0.6,0.3v0.1c-0.1,0.2-0.4,0.5-1.2,0.9c-0.4,0.2-1.1,0.6-2,1c-0.1,0-0.2,0.1-0.5,0.2l-0.1,0.2
			c-0.1,0.2,0.1,0.4,0.4,0.6c0.7,0.7,1.4,1.2,1.7,1.4c0.4,0.3,0.7,0.4,1,0.4c0.4,0,0.7,0.1,0.7,0.1c0.1,0.1,0.1,0.1,0.1,0.3
			c-0.3,0.1-0.6,0.1-0.8,0.1h-0.1c-0.7,0-1.4-0.4-2.3-1.2c-0.4-0.3-0.7-0.4-0.7-0.4V75v0.1c0,0.1-0.1,0.7-0.1,1.5l-0.1,0.3
			c-0.1,0.1-0.2,0.1-0.4,0.1h-0.1c-0.2,0-0.3-0.1-0.3-0.1l0.1-1.7c0.1-0.6,0.1-0.9,0-0.9c-0.1-0.1-0.2-0.2-0.5-0.4
			c-0.1-0.1-0.1-0.2-0.1-0.4v-0.1c0-0.1,0.2-0.2,0.7-0.4l0.3-0.1l0.1-0.3l0.1-0.3c0.1-0.4,0.3-0.9,0.6-1.6
			C141.7,70.6,141.8,70.6,141.9,70.6"/>
		<path class="st0" d="M147.3,71.6L147.3,71.6c0.3,0,0.4,0.1,0.4,0.1v0.1l0,0c-0.1,0.1-0.2,0.3-0.7,0.4H147c-0.3,0-0.4-0.1-0.4-0.2
			V72v-0.1C146.9,71.7,147.1,71.6,147.3,71.6 M147.1,72.9c0.1,0,0.3,0.1,0.2,0.1c0,0.6-0.1,1.2-0.2,1.8l-0.1,0.4l-0.3,1.4
			c-0.1,0.1-0.2,0.1-0.4,0.1l-0.1,0.1l0,0c-0.1,0-0.1-0.1-0.1-0.1c0,0.1,0,0.1-0.1,0.1c-0.1-0.1-0.1-0.4-0.1-0.7l0.4-1.6
			c0-0.2,0.1-0.6,0.1-0.9C146.7,73.1,146.9,72.9,147.1,72.9"/>
		<path class="st0" d="M151.2,71.1h0.1c0,0.1,0,0.1,0.1,0.1c0.1,0.1,0.1,0.4-0.1,1l-0.2,1.2v0.1c-0.1,0.7-0.1,1.4,0.2,2.2
			c0.1,0.2,0.2,0.4,0.1,0.4v0.1c0,0.1-0.1,0.1-0.3,0.4H151c-0.3,0-0.5-0.2-0.5-0.6c0-0.1-0.1-0.3-0.2-0.4c-0.1,0.3-0.5,0.6-0.9,0.8
			c-0.5,0.2-1,0.4-1.6,0.4c-0.2-0.1-0.3-0.2-0.3-0.3c0-0.2,0-0.4,0-0.4V76c0.1-0.2,0.4-0.7,1.1-1.2c0.6-0.4,1.1-0.7,1.4-0.7
			c0.1-0.1,0.2-0.1,0.2-0.2c0.1-1,0.2-1.7,0.3-2l0.1-0.4L151.2,71.1C151,71.1,151.1,71.1,151.2,71.1 M148.4,76h0.1
			c0.4,0,0.8-0.3,1.2-0.9c0.1-0.1,0.1-0.1,0.1-0.2c-0.4,0.1-0.8,0.4-1.1,0.7C148.5,75.7,148.4,75.9,148.4,76"/>
		<path class="st0" d="M153.8,73.3h0.1c0.3,0,0.5,0.1,0.5,0.2c0,0.1,0.1,0.3,0.1,0.3c-0.1,0.1-0.2,0.1-0.4,0.2c-0.7,0.1-1,0.2-1,0.2
			c0.1,0.1,0.3,0.3,0.7,0.4c0.7,0.1,1.1,0.3,1.4,0.4c0.2,0.1,0.4,0.4,0.3,0.7c-0.1,0.4-0.6,0.7-1.4,0.9c-0.2,0.1-0.5,0.1-0.7,0.1
			c-0.8-0.1-1.2-0.1-1.2-0.3c-0.1-0.1-0.1-0.2-0.1-0.3V76c0-0.1,0.1-0.3,0.4-0.4c0.4,0.2,0.8,0.3,1.1,0.3s0.5-0.1,0.7-0.2l0,0
			c-0.2-0.1-0.7-0.3-1.3-0.4c-0.7-0.2-0.9-0.4-0.9-0.7v-0.1c0.1-0.4,0.4-0.8,1-1C153.3,73.4,153.6,73.3,153.8,73.3"/>
		<path class="st0" d="M156.2,75.7L156.2,75.7c0.3,0.1,0.4,0.1,0.4,0.3l0,0c-0.1,0.2-0.3,0.4-0.7,0.6h-0.1c-0.1,0-0.3-0.1-0.3-0.3
			v-0.1v-0.1c0.1-0.2,0.1-0.4,0.4-0.4L156.2,75.7z"/>
	</g>
	<path class="st0" d="M77.6,52.1c-1.4,1.4-2.1,3.1-2.1,5.2v7.6c0,0.7,0.2,1.2,0.7,1.6c0.4,0.4,0.9,0.7,1.6,0.7s1.2-0.2,1.7-0.7
		c0.4-0.4,0.7-0.9,0.7-1.6v-7.6c0-0.7,0.2-1.4,0.7-1.9c0.5-0.5,1.2-0.7,1.9-0.8c1.5-0.1,2.3-0.9,2.3-2.3c0-0.7-0.2-1.2-0.7-1.6
		C84,50.2,83.5,50,82.8,50C80.7,50,79,50.7,77.6,52.1"/>
	<path class="st0" d="M61.4,46.8c-0.4,0.4-0.7,0.9-0.7,1.7V60c0,2,0.7,3.8,2.1,5.2c1.4,1.4,3.1,2.1,5.2,2.1h2.1
		c1.5,0,2.3-0.7,2.3-2.3c0-0.7-0.2-1.2-0.7-1.6c-0.4-0.4-0.9-0.7-1.6-0.7H68l0,0c-0.7,0-1.4-0.3-1.9-0.8c-0.5-0.5-0.8-1.2-0.8-1.9
		v-5.4h4.9c1.5,0,2.3-0.7,2.3-2.3c0-0.7-0.2-1.2-0.7-1.6c-0.4-0.4-0.9-0.7-1.6-0.7h-4.9v-1.7c0-0.7-0.2-1.2-0.7-1.7
		c-0.4-0.4-0.9-0.7-1.7-0.7C62.4,46.1,61.8,46.3,61.4,46.8"/>
	<path class="st0" d="M92,61.4c-0.8-0.8-1.2-1.7-1.2-2.9c0-1.1,0.4-2.1,1.2-2.8c0.8-0.8,1.7-1.2,2.8-1.2s2,0.4,2.8,1.2
		c0.8,0.8,1.2,1.7,1.2,2.9v4.1h-4.1C93.8,62.6,92.8,62.2,92,61.4 M88.8,52.4c-1.7,1.7-2.5,3.7-2.5,6.1c0,2.4,0.8,4.4,2.5,6.1
		c1.7,1.7,3.6,2.5,6.1,2.5h6.3c0,0,1.2-0.2,1.7-0.7s0.7-0.9,0.7-1.6v-6.3c0-2.4-0.8-4.4-2.5-6.1c-1.7-1.7-3.7-2.5-6.1-2.5
		C92.5,49.9,90.4,50.8,88.8,52.4"/>
	<path class="st0" d="M114.4,43.9c-0.4,0.4-0.6,0.9-0.7,1.6v19.4c0,0.7,0.2,1.2,0.7,1.6c0.4,0.4,0.9,0.7,1.6,0.7s1.2-0.2,1.7-0.7
		s0.7-0.9,0.7-1.6V45.5c0-1.5-0.7-2.3-2.3-2.3C115.4,43.3,114.8,43.5,114.4,43.9"/>
	<path class="st0" d="M137.1,43.1c-2,0-3.8,0.7-5.2,2.1s-2.1,3.1-2.1,5.2v14.5c0,0.7,0.2,1.2,0.7,1.7c0.4,0.4,0.9,0.7,1.6,0.7
		c0.7,0,1.2-0.2,1.7-0.7s0.7-0.9,0.7-1.7v-5.1h3.4c0.7,0,1.2-0.2,1.6-0.7c0.4-0.4,0.7-0.9,0.7-1.6c0-1.5-0.7-2.3-2.3-2.3h-3.4v-4.8
		c0-0.8,0.3-1.4,0.8-2c0.5-0.5,1.2-0.8,1.9-0.8l0,0h1.2c1.5,0,2.3-0.9,2.3-2.3s-0.7-2.3-2.3-2.3L137.1,43.1L137.1,43.1z"/>
	<path class="st0" d="M146.8,58.5c0-1.1,0.4-2.1,1.2-2.8c0.8-0.8,1.7-1.2,2.8-1.2c0.3,0,0.6,0,0.9,0.1l-4.9,4.6
		C146.8,59,146.8,58.7,146.8,58.5 M144.7,52.4c-1.7,1.7-2.5,3.7-2.5,6.1c0,2.4,0.8,4.4,2.5,6.1c1.7,1.7,3.6,2.5,6.1,2.5h3
		c0.7,0,1.2-0.2,1.6-0.7c0.4-0.4,0.7-0.9,0.7-1.7c0-0.7-0.2-1.2-0.7-1.6c-0.4-0.4-0.9-0.7-1.6-0.7h-3c-0.4,0-0.7-0.1-0.9-0.1
		l6.8-6.5c0.7-0.5,0.9-1.1,0.9-1.8c0-0.6-0.2-1.1-0.7-1.5c-1.7-1.7-3.8-2.6-6.2-2.6C148.4,49.9,146.4,50.8,144.7,52.4"/>
	<path class="st0" d="M30.4,58.5c0-1.1,0.4-2.1,1.2-2.8c0.8-0.8,1.7-1.2,2.8-1.2c0.3,0,0.6,0,0.9,0.1l-4.8,4.6
		C30.4,59,30.4,58.7,30.4,58.5 M28.3,52.4c-1.7,1.7-2.5,3.7-2.5,6.1c0,2.4,0.8,4.4,2.5,6.1c1.7,1.7,3.6,2.5,6.1,2.5h3
		c0.7,0,1.2-0.2,1.6-0.7c0.4-0.4,0.6-0.9,0.6-1.7c0-0.7-0.2-1.2-0.6-1.6c-0.4-0.4-0.9-0.7-1.6-0.7h-3c-0.4,0-0.7-0.1-0.9-0.1
		l6.8-6.5c0.7-0.5,0.9-1.1,0.9-1.8c0-0.6-0.2-1.1-0.7-1.5c-1.7-1.7-3.8-2.6-6.2-2.6C32,49.9,30,50.8,28.3,52.4"/>
	<path class="st0" d="M56.7,67.1c-0.6,0-1.1-0.3-1.5-0.6c-0.4-0.3-0.8-0.7-1.3-1.4l-3.1-3.8l-3.1,3.8c-0.5,0.7-0.9,1.1-1.3,1.4
		s-0.9,0.6-1.4,0.6c-0.7,0-1.2-0.3-1.7-0.7c-0.4-0.4-0.7-0.9-0.7-1.4c0-0.5,0.3-1.2,0.9-2l3.9-4.9l-3.5-4c-0.7-0.8-1-1.5-1-2.1
		c0-0.5,0.2-0.9,0.7-1.3c0.4-0.4,0.9-0.7,1.7-0.7c0.6,0,1.1,0.3,1.5,0.6s0.8,0.7,1.2,1.4l2.7,3.6l2.6-3.6c0.5-0.7,0.9-1.1,1.3-1.4
		S55.4,50,56,50c0.7,0,1.2,0.3,1.7,0.7c0.4,0.4,0.7,0.8,0.7,1.4c0,0.4-0.1,0.7-0.3,1c-0.1,0.3-0.4,0.7-0.7,1.1l-3.5,4l3.9,4.9
		c0.7,0.9,1,1.6,1,2.1c0,0.5-0.2,1-0.7,1.4C57.8,66.8,57.3,67.1,56.7,67.1z"/>
	<g>
		<path class="st0" d="M160.1,49.8v0.3h-0.8v2.1H159v-2.1h-0.8v-0.3H160.1z"/>
		<path class="st0" d="M160.4,49.8h0.4l0.7,2l0.7-2h0.4v2.4h-0.3v-1.4c0-0.1,0-0.1,0-0.2c0-0.1,0-0.2,0-0.4l-0.7,2h-0.3l-0.7-2v0.1
			c0,0.1,0,0.1,0,0.3c0,0.1,0,0.2,0,0.3v1.4h-0.3L160.4,49.8L160.4,49.8z"/>
	</g>
	<path class="st0" d="M172,69.9l-6.9-7.8c-0.4-0.5-1.2-0.6-1.7-0.1l-7.8,6.9c-0.5,0.4-0.6,1.2-0.1,1.7l6.9,7.8
		c0.4,0.5,1.2,0.6,1.7,0.1l7.8-6.9C172.4,71.2,172.4,70.4,172,69.9z M159.7,70.5c-0.4,0.4-1.1,0.4-1.5-0.1c-0.4-0.4-0.4-1.1,0.1-1.5
		c0.4-0.4,1.1-0.4,1.5,0.1C160.2,69.4,160.2,70.1,159.7,70.5z M162.1,73.1c-0.4,0.4-1.1,0.4-1.5-0.1c-0.4-0.4-0.4-1.1,0.1-1.5
		c0.4-0.4,1.1-0.4,1.5,0.1C162.6,72,162.5,72.8,162.1,73.1z M164.4,75.7c-0.4,0.4-1.1,0.4-1.5-0.1c-0.4-0.4-0.4-1.1,0.1-1.5
		c0.4-0.4,1.1-0.4,1.5,0.1C164.8,74.6,164.8,75.4,164.4,75.7z M164.7,66.4c-0.4,0.4-1.1,0.4-1.5-0.1c-0.4-0.4-0.4-1.1,0.1-1.5
		c0.4-0.4,1.1-0.4,1.5,0.1C165.3,65.3,165.2,65.9,164.7,66.4z M167,69c-0.4,0.4-1.1,0.4-1.5-0.1c-0.4-0.4-0.4-1.1,0.1-1.5
		c0.4-0.4,1.1-0.4,1.5,0.1S167.5,68.5,167,69z M169.3,71.6c-0.4,0.4-1.1,0.4-1.5-0.1c-0.4-0.4-0.4-1.1,0.1-1.5
		c0.4-0.4,1.1-0.4,1.5,0.1S169.8,71.2,169.3,71.6z"/>
	<path class="st0" d="M175,63.4l-1.8-10.2c-0.1-0.7-0.7-1.1-1.4-0.9L161.6,54c-0.7,0.1-1.1,0.7-0.9,1.4l1.3,7.3l1.5-1.3
		c0.6-0.5,1.5-0.4,2,0.1l3.6,4.1l5.1-0.9C174.6,64.7,175.1,64,175,63.4z M163.8,57.7c-0.6,0.1-1.2-0.3-1.2-0.9
		c-0.1-0.6,0.3-1.2,0.9-1.2s1.2,0.3,1.2,0.9C164.7,57.1,164.4,57.6,163.8,57.7z M167.9,60.6c-0.6,0.1-1.2-0.3-1.2-0.9
		c-0.1-0.6,0.3-1.2,0.9-1.2c0.6-0.1,1.2,0.3,1.2,0.9C168.9,59.9,168.5,60.5,167.9,60.6z M172.1,63.4c-0.6,0.1-1.2-0.3-1.2-0.9
		c-0.1-0.6,0.3-1.2,0.9-1.2s1.2,0.3,1.2,0.9C173,62.7,172.7,63.2,172.1,63.4z"/>
</g>
<g id="Layer_2">
</g>
</svg>
