<?xml version="1.0" encoding="utf-8"?>
<!-- Generator: Adobe Illustrator 21.1.0, SVG Export Plug-In . SVG Version: 6.00 Build 0)  -->
<svg version="1.1" xmlns="http://www.w3.org/2000/svg" xmlns:xlink="http://www.w3.org/1999/xlink" x="0px" y="0px"
	 viewBox="0 0 175 90" style="enable-background:new 0 0 175 90;" xml:space="preserve">
<style type="text/css">
	.st0{display:none;fill:#FEFEFE;}
	.st1{fill:#FFFFFF;}
	.st2{fill:#272727;}
</style>
<g id="Layer_1">
	<g>
		<path class="st0" d="M27,13.3c0-6.8,0-13.5,0-20.2C27-7.8,27.2-8,28.1-8c10.7,0,21.5,0,32.2,0c0.1,0.8-0.7,1.1-1.1,1.5
			c-1.4,1.6-1.3,4,0.2,5.3C61,0.2,63.1,0,64.5-1.7c1.4-1.6,1.3-3.6-0.4-5.1c-0.4-0.4-1.2-0.5-1.1-1.3c132,0,264,0,396.1,0
			c1.5,0,1.7,0.4,1.7,1.8c0,39,0,78.1,0,117.1c0,1.3-0.3,1.6-1.6,1.6c-143.6,0-287.2,0-430.8,0c-1.4,0-1.6-0.4-1.6-1.7
			c0-31.5,0-63,0-94.5c0.8-0.1,0.9,0.6,1.3,1.1c1.5,1.6,3.5,1.8,5.2,0.4c1.5-1.2,1.7-3.5,0.6-5s-3.3-1.8-5-0.7
			C28.3,12.4,28,13.4,27,13.3z"/>
		<path class="st1" d="M67.7,3.8c2.1,1.3,2.6,3.1,1.4,4.6c-0.7,0.9-1.6,1.4-2.8,1.2c-1.2-0.2-2.1-1-2.4-2.2c-0.3-1.1,0-2.2,0.9-3
			c0.3-0.2,0.5-0.4,0.8-0.6C66.4,3.8,67,3.8,67.7,3.8z"/>
		<path class="st1" d="M42.1,18.9c0.7-0.8,1.3-1.6,2.5-1.8c1.5-0.1,2.8,0.6,3.2,2.1c0.4,1.3-0.2,2.8-1.5,3.4c-1.3,0.6-2.8,0.3-3.8-1
			c-0.1-0.2-0.4-0.5-0.5-0.7C42.1,20.3,42.1,19.6,42.1,18.9z"/>
		<path class="st1" d="M62.7,69.5c-1.1,1.7-2.3,3.2-4.5,3.6c-2.8,0.6-6.1-1.2-6.9-3.8c-1-3.2,0.4-6.3,3.4-7.5c0.3-0.1,0.6-0.2,1-0.3
			c0.6-0.1,0.8-0.4,0.5-1.1c-1.7-4.3-2.8-8.6-3.1-13.1c-0.1-1.1-0.8-0.9-1.5-0.8c-3.3,0.4-6-1.4-6.7-4.7c-0.9-4.3,3-7.9,7.2-6.8
			c0.4,0.1,0.7,0.2,1.1,0.4c1.6,0.6,1.6,0.6,2.2-1c1.6-4,3.8-7.6,6.7-10.6c0.6-0.6,0.6-0.9-0.1-1.4c-3.5-2.5-3.6-7.2-0.4-9.7
			c3.3-2.5,7.9-1.1,9.2,3c0.4,1.1,0.7,1.3,1.8,0.8c3.9-1.8,8.1-2.8,12.4-2.8c0.9,0,1.3-0.2,1.1-1.3c-0.6-3.6,1.4-6.4,4.9-7.1
			c2.8-0.6,5.7,1.3,6.6,4.3c0.5,1.7,0.1,3.4-0.7,4.9c-0.3,0.4-0.5,0.8,0.3,1.1c4.7,1.7,8.9,4.3,12.3,7.9c0.6-0.7,1.2-1.4,1.8-2.1
			c2.1-2.1,5.7-2.1,8-0.1c2.2,1.9,2.6,5.6,0.7,7.9c-1,1.2-2.3,1.8-3.8,2.3c-0.6,0.2-0.7,0.4-0.4,1c1.9,4.3,3,8.7,3,13.4
			c0,0.7,0.2,0.9,1,0.7c3.7-0.7,6.9,1.3,7.5,4.7c0.8,4.3-3.2,7.8-7.4,6.6c-0.6-0.2-1.2-0.4-1.8-0.8c-0.6-0.4-1-0.5-1.3,0.4
			c-1.6,4.3-3.9,8.1-7,11.3c-0.7,0.7-0.7,0.9,0.2,1.5c3.7,2.4,3.9,7.3,0.6,9.8c-2.8,2.1-8.1,1.5-9.4-3.3c-0.3-1.1-0.6-1.1-1.6-0.8
			c-4,1.7-8.3,2.6-12.6,3c-0.9,0.1-1.1,0.3-1,1.1c0.1,0.6,0.1,1.1,0.1,1.6c0,2.5-1.1,4.3-3.4,5.2c-2.2,0.9-4.3,0.6-6.1-0.9
			c-1.9-1.6-2.5-3.6-1.8-6c0.2-0.7,0.4-1.4,0.8-2c0.3-0.6,0.3-0.8-0.4-1C70.4,75.5,66.3,72.9,62.7,69.5z"/>
		<path class="st1" d="M102,13.3c0.1-2.4,2.3-4.4,4.7-4.3c2.4,0.1,4.3,2.2,4.3,4.5c-0.1,2.4-2.2,4.5-4.5,4.3
			C103.9,17.8,101.9,15.7,102,13.3z"/>
		<path class="st1" d="M48.4,59.7c-2.6,0-4.5-1.9-4.5-4.5c0-2.3,2-4.4,4.4-4.5c2.4-0.1,4.5,2.1,4.5,4.5
			C52.8,57.8,50.9,59.7,48.4,59.7z"/>
		<path class="st1" d="M72.6,8.5c0.1-2.5,2.1-4.5,4.5-4.4c2.4,0.1,4.4,2.1,4.3,4.5c-0.1,2.5-2.1,4.5-4.6,4.4
			C74.4,12.9,72.6,10.9,72.6,8.5z"/>
		<path class="st1" d="M94.9,88.4c-2.5,0-4.4-1.8-4.4-4.3c-0.1-2.6,1.8-4.5,4.4-4.5s4.5,1.9,4.5,4.5C99.3,86.5,97.4,88.4,94.9,88.4z
			"/>
		<path class="st1" d="M53.3,21.4c2.4,0,4.4,2,4.4,4.4c0,2.5-2.1,4.5-4.5,4.4c-2.5,0-4.4-2-4.4-4.4C48.7,23.3,50.7,21.4,53.3,21.4z"
			/>
		<path class="st1" d="M119.4,37.6c0-2.6,2-4.5,4.4-4.5c2.4,0,4.4,2.1,4.3,4.5c0,2.5-1.9,4.4-4.3,4.5
			C121.4,42,119.4,40.1,119.4,37.6z"/>
		<path class="st1" d="M123.4,66.9c0,2.6-1.9,4.4-4.5,4.3c-2.5,0-4.3-1.9-4.3-4.5c0-2.6,1.9-4.4,4.5-4.3
			C121.6,62.5,123.4,64.3,123.4,66.9z"/>
		<path class="st1" d="M65.4,83.6c-2.5,0-4.3-1.8-4.3-4.4c0-2.5,1.8-4.4,4.3-4.4s4.6,2.1,4.5,4.4C69.9,81.6,67.9,83.6,65.4,83.6z"/>
		<path class="st1" d="M114.3,88.7c-1.6,0-2.9-1.3-2.9-2.9c0-1.6,1.3-3,2.9-3c1.6,0,3,1.3,3,3C117.2,87.4,115.9,88.7,114.3,88.7z"/>
		<path class="st1" d="M56.5,15.3c0,1.6-1.3,2.8-2.9,2.9c-1.7,0-3-1.2-3-2.8s1.4-3,3-3C55.1,12.3,56.5,13.7,56.5,15.3z"/>
		<path class="st1" d="M127,75.6c-1.6,0-2.9-1.3-2.9-2.9c0-1.6,1.3-3,2.9-3c1.6,0,3,1.3,3,3C129.9,74.3,128.7,75.6,127,75.6z"/>
		<path class="st1" d="M121.5,77.5c0,1.6-1.3,3-2.8,3c-1.6,0-3-1.4-3-3c0-1.6,1.3-2.9,3-2.8C120.4,74.6,121.6,75.8,121.5,77.5z"/>
		<path class="st1" d="M108,85.7c0,1.6-1.3,3-2.9,2.9c-1.6,0-3-1.4-3-2.9c0-1.6,1.4-3,3-3C106.8,82.7,108,84,108,85.7z"/>
		<path class="st1" d="M57.8,9.9c-1.7,0-2.9-1.2-2.9-2.9c0-1.6,1.3-3,2.8-3c1.6,0,3,1.4,3,3C60.7,8.7,59.4,10,57.8,9.9z"/>
		<path class="st1" d="M43.1,30.8c0-1.6,1.2-2.9,2.8-3c1.7-0.1,3,1.3,3,2.9c0,1.6-1.3,2.9-3,3C44.5,33.7,43.1,32.4,43.1,30.8z"/>
		<path class="st1" d="M125.7,64.8c-1.6,0-2.9-1.3-2.8-3c0.1-1.6,1.5-2.9,3-2.9c1.6,0,2.9,1.4,2.9,3.1
			C128.7,63.7,127.4,64.9,125.7,64.8z"/>
		<path class="st1" d="M125.6,80.5c0.1-1,0.5-1.6,1.4-1.6c0.9,0,1.4,0.5,1.5,1.4c0.1,1-0.6,1.5-1.4,1.5
			C126.2,81.9,125.7,81.4,125.6,80.5z"/>
		<path class="st1" d="M121.5,87.2c-0.9-0.1-1.5-0.6-1.5-1.4c0-0.9,0.5-1.4,1.5-1.4c0.9,0,1.5,0.6,1.5,1.4S122.4,87.1,121.5,87.2z"
			/>
		<path class="st1" d="M50.7,8.4c-0.9,0-1.5-0.4-1.5-1.4c0-0.9,0.5-1.4,1.4-1.5c0.9,0,1.4,0.5,1.5,1.4C52.1,7.9,51.6,8.4,50.7,8.4z"
			/>
		<path class="st1" d="M46.5,12.4c-0.1,0.9-0.6,1.4-1.5,1.4c-0.9,0-1.4-0.6-1.4-1.5c0-0.9,0.5-1.4,1.4-1.4
			C46,11,46.4,11.6,46.5,12.4z"/>
		<path class="st1" d="M127.1,84.2c0.9,0.1,1.3,0.6,1.3,1.5c0,0.9-0.6,1.4-1.5,1.4s-1.4-0.6-1.3-1.5
			C125.7,84.7,126.2,84.2,127.1,84.2z"/>
		<path class="st1" d="M44.8,8.4C44,8.4,43.6,7.9,43.6,7c0.1-0.9,0.6-1.4,1.5-1.3c0.9,0.1,1.4,0.6,1.3,1.5C46.4,8,45.8,8.4,44.8,8.4
			z"/>
		<path class="st2" d="M111.6,46.1c0.1,13.7-10.8,25.6-25.1,25.8C72,72.1,60.4,60.7,60.3,46.6C60.1,32.6,71,20.5,86,20.5
			C100.7,20.6,111.6,32.6,111.6,46.1z"/>
	</g>
</g>
<g id="Layer_2">
</g>
</svg>
