<?xml version="1.0" encoding="utf-8"?>
<!-- Generator: Adobe Illustrator 21.1.0, SVG Export Plug-In . SVG Version: 6.00 Build 0)  -->
<svg version="1.1" xmlns="http://www.w3.org/2000/svg" xmlns:xlink="http://www.w3.org/1999/xlink" x="0px" y="0px"
	 viewBox="0 0 175 90" style="enable-background:new 0 0 175 90;" xml:space="preserve">
<style type="text/css">
	.st0{fill:#FFFFFF;}
</style>
<g id="Layer_1">
	<g>
		<path class="st0" d="M62.4,33.9c-2.3,0-4.2,1.9-4.2,4.2v30c0,0.6,0.5,1.1,1.1,1.1h6.2c0.6,0,1.1-0.5,1.1-1.1V38
			C66.6,35.7,64.7,33.9,62.4,33.9"/>
		<path class="st0" d="M40.1,33.9c-5.1,0-8.7,2.1-11.3,6.2c-3.5-8.3-15.4-8.1-20.3-0.5c-0.8-3.2-3.6-5.6-7.1-5.6h-1
			c0,6.4,0,26.7,0,34.1c0,0.6,0.5,1.1,1.1,1.1h6.2c0.6,0,1.1-0.5,1.1-1.1V49.8c0-4.6,2.2-9,6.7-9c4.2,0,6.3,2.7,6.3,8.3V68
			c0,0.6,0.5,1.1,1.1,1.1H29c0.6,0,1.1-0.5,1.1-1.1V49.8c0-4.4,2.4-9,6.7-9c5.3,0,6.3,3.6,6.3,8.9V68c0,0.6,0.5,1.1,1.1,1.1h6.2
			c0.6,0,1.1-0.5,1.1-1.1V48C51.5,39.4,48.5,33.9,40.1,33.9"/>
		<path class="st0" d="M80.9,35.4c-1.5-2-4.3-2.3-6.2-0.6c-1.6,1.5-1.7,4-0.4,5.7l8.4,11.2l-8.4,11.3c-1.3,1.8-1.2,4.3,0.4,5.7
			c1.9,1.7,4.7,1.4,6.2-0.6l11.8-15.8c0.3-0.4,0.3-0.9,0-1.3L80.9,35.4z"/>
		<path class="st0" d="M106.7,35.4c1.5-2,4.3-2.3,6.2-0.6c1.6,1.5,1.7,4,0.4,5.7L105,51.8l8.4,11.3c1.3,1.8,1.2,4.3-0.4,5.7
			c-1.9,1.7-4.7,1.4-6.2-0.6L95,52.5c-0.3-0.4-0.3-0.9,0-1.3L106.7,35.4z"/>
		<path class="st0" d="M129.2,42.8c1.5-1.5,3.2-2.2,5.1-2.2c2.1,0,3.8,0.7,5,2c1.1,1.3,1.7,3.1,1.8,5.5h-14.6
			C126.9,45.9,127.8,44.1,129.2,42.8 M142.7,62.6c-0.3-0.3-0.7-0.5-1.1-0.3l0,0c-4.4,1.5-14.4,2.4-15.2-7.8h19.3
			c2.1,0,3.7-1.7,3.7-3.7c0-4.6-0.8-9.1-4-12.5c-7.7-8.5-27.6-5.3-27.6,14c0,20,18.7,19.5,27.1,15.6c0.6-0.3,0.8-1.1,0.4-1.6
			L142.7,62.6z"/>
		<path class="st0" d="M174.7,34.4L174.7,34.4c-1.5-0.4-3.9-0.3-4.6-0.2c-3,0.9-5.2,2.9-6.5,6c-0.5-3.6-3.5-6.3-7.2-6.3h-1.1
			c0,6.4,0,26.7,0,34.1c0,0.6,0.5,1.1,1.1,1.1h6.2c0.6,0,1.1-0.5,1.1-1.1V51.5c0-6.8,3.8-11.6,10.4-9.2c0.7,0.3,1.5-0.3,1.5-1v-5.8
			C175.5,35,175.2,34.5,174.7,34.4"/>
		<path class="st0" d="M58,23.5c0,2.5,2,4.5,4.5,4.5c2.5,0,4.5-2,4.5-4.5s-2-4.5-4.5-4.5C59.9,19,58,21,58,23.5"/>
	</g>
</g>
<g id="Layer_2">
</g>
</svg>
