<?xml version="1.0" encoding="utf-8"?>
<!-- Generator: Adobe Illustrator 21.1.0, SVG Export Plug-In . SVG Version: 6.00 Build 0)  -->
<svg version="1.1" xmlns="http://www.w3.org/2000/svg" xmlns:xlink="http://www.w3.org/1999/xlink" x="0px" y="0px"
	 viewBox="0 0 175 90" style="enable-background:new 0 0 175 90;" xml:space="preserve">
<style type="text/css">
	.st0{fill:#FFFFFF;}
</style>
<g id="Layer_1">
	<path class="st0" d="M170.4,76.3V14h4.6v62.3H170.4z M145,34.8h4.5v19.8h-4.8l-7.1-12.7v12.7H133V34.8h4.8l7.1,12.9V34.8z
		 M115,34.3c6.5,0,10.4,5,10.4,10.4c0,5.4-3.9,10.4-10.4,10.4c-6.6,0-10.5-5-10.5-10.4C104.5,39.2,108.4,34.3,115,34.3z M120.8,44.7
		c0-3.2-2.2-6.3-5.8-6.3c-3.6,0-5.8,3-5.8,6.3c0,3.2,2.2,6.3,5.8,6.3C118.6,50.9,120.8,47.9,120.8,44.7z M41.2,38.7v-4h13.5v4h-4.5
		v15.8h-4.6V38.7H41.2z M89.6,42.9h7.5v3.6h-7.5v4.3h7.5v3.7H85.1V34.8h12.1v3.7h-7.5V42.9z M70.1,34.8c4.4,0,7.2,3.3,7.2,7.1
		c0,2.8-1.5,5.2-3.9,6.4l4,6.2H72l-3.5-5.5h-2.1v5.5h-4.6V34.8H70.1z M72.7,41.9c0-1.8-1.2-3.4-3.2-3.4h-3.1v6.8h3.1
		C71.4,45.3,72.7,43.8,72.7,41.9z M32.2,52.1h-7l-0.8,2.4h-4.9l7.1-19.8h4.2l7.1,19.8h-5L32.2,52.1z M28.7,40.4l-2.4,8.1h4.8
		L28.7,40.4z M8.3,34.8c4.4,0,7.2,3.3,7.2,7.1s-2.8,7.1-7.2,7.1H4.6v5.5H0V34.8H8.3z M10.9,41.9c0-1.8-1.2-3.4-3.2-3.4H4.6v6.8h3.1
		C9.6,45.3,10.9,43.8,10.9,41.9z"/>
</g>
<g id="Layer_2">
</g>
</svg>
