<?xml version="1.0" encoding="utf-8"?>
<!-- Generator: Adobe Illustrator 21.1.0, SVG Export Plug-In . SVG Version: 6.00 Build 0)  -->
<svg version="1.1" xmlns="http://www.w3.org/2000/svg" xmlns:xlink="http://www.w3.org/1999/xlink" x="0px" y="0px"
	 viewBox="0 0 175 90" style="enable-background:new 0 0 175 90;" xml:space="preserve">
<style type="text/css">
	.st0{fill:#FFFFFF;}
	.st1{opacity:0.68;fill:#FFFFFF;enable-background:new    ;}
	.st2{opacity:0.7;fill:#FFFFFF;enable-background:new    ;}
</style>
<g id="Layer_1">
	<g>
		<g>
			<g>
				<path class="st0" d="M134.9,32.9h-9.6c-0.6,0-1.2,0.5-1.3,1.1l-3.9,24.6c-0.1,0.5,0.3,0.9,0.8,0.9h4.9c0.5,0,0.9-0.3,0.9-0.8
					l1.1-7c0.1-0.6,0.7-1.1,1.3-1.1h3c6.3,0,9.9-3.1,10.9-9.1c0.4-2.6,0-4.7-1.2-6.2C140.5,33.7,138.1,32.9,134.9,32.9z M136,41.8
					c-0.5,3.4-3.2,3.4-5.7,3.4h-1.4l1-6.4c0.1-0.4,0.4-0.7,0.8-0.7h0.7c1.7,0,3.4,0,4.2,1C136.1,39.7,136.2,40.6,136,41.8z"/>
				<path class="st0" d="M66.6,32.9H57c-0.6,0-1.2,0.5-1.3,1.1l-3.9,24.6c-0.1,0.5,0.3,0.9,0.8,0.9h4.6c0.6,0,1.2-0.5,1.3-1.1
					l1.1-6.6c0.1-0.6,0.7-1.1,1.3-1.1h3c6.3,0,9.9-3.1,10.9-9.1c0.4-2.6,0-4.7-1.2-6.2C72.2,33.7,69.8,32.9,66.6,32.9z M67.7,41.8
					c-0.5,3.4-3.2,3.4-5.7,3.4h-1.4l1-6.4c0.1-0.4,0.4-0.7,0.8-0.7h0.7c1.7,0,3.4,0,4.2,1C67.7,39.7,67.9,40.6,67.7,41.8z"/>
				<path class="st0" d="M95.2,41.7h-4.6c-0.4,0-0.7,0.3-0.8,0.7l-0.2,1.3l-0.3-0.5c-1-1.4-3.2-1.9-5.4-1.9c-5.1,0-9.4,3.8-10.2,9.2
					c-0.5,2.7,0.2,5.3,1.7,7c1.4,1.7,3.4,2.3,5.8,2.3c4.1,0,6.4-2.6,6.4-2.6l-0.2,1.3c-0.1,0.5,0.3,0.9,0.8,0.9h4.1
					c0.6,0,1.2-0.5,1.3-1.1L96,42.6C96.1,42.1,95.7,41.7,95.2,41.7z M88.8,50.6c-0.5,2.6-2.5,4.4-5.2,4.4c-1.3,0-2.4-0.4-3.1-1.2
					c-0.7-0.8-0.9-2-0.7-3.2c0.4-2.6,2.5-4.4,5.1-4.4c1.3,0,2.4,0.4,3.1,1.2C88.8,48.2,89,49.4,88.8,50.6z"/>
				<path class="st0" d="M163.5,41.7h-4.6c-0.4,0-0.7,0.3-0.8,0.7l-0.2,1.3l-0.3-0.5c-1-1.4-3.2-1.9-5.4-1.9
					c-5.1,0-9.4,3.8-10.2,9.2c-0.5,2.7,0.2,5.3,1.7,7c1.4,1.7,3.4,2.3,5.8,2.3c4.1,0,6.4-2.6,6.4-2.6l-0.2,1.3
					c-0.1,0.5,0.3,0.9,0.8,0.9h4.1c0.6,0,1.2-0.5,1.3-1.1l2.5-15.7C164.4,42.1,164,41.7,163.5,41.7z M157.2,50.6
					c-0.5,2.6-2.5,4.4-5.2,4.4c-1.3,0-2.4-0.4-3.1-1.2c-0.7-0.8-0.9-2-0.7-3.2c0.4-2.6,2.5-4.4,5.1-4.4c1.3,0,2.4,0.4,3.1,1.2
					C157.1,48.2,157.4,49.4,157.2,50.6z"/>
				<path class="st0" d="M119.7,41.7h-4.6c-0.5,0-0.9,0.2-1.1,0.6l-6.4,9.4l-2.7-9c-0.2-0.6-0.7-0.9-1.3-0.9h-4.5
					c-0.6,0-0.9,0.5-0.8,1.1l5.1,14.9l-4.8,6.7c-0.4,0.5,0,1.2,0.6,1.2h4.6c0.5,0,0.8-0.2,1.1-0.6L120.3,43
					C120.7,42.4,120.3,41.7,119.7,41.7z"/>
				<path class="st0" d="M169,33.5l-3.9,25c-0.1,0.5,0.3,0.9,0.8,0.9h4c0.6,0,1.2-0.5,1.3-1.1l3.9-24.6c0.1-0.5-0.3-0.9-0.8-0.9
					h-4.4C169.3,32.9,169,33.1,169,33.5z"/>
			</g>
		</g>
	</g>
	<g>
		<path class="st1" d="M33.1,34.1c0.5-3.3,0-5.5-1.8-7.5c-2-2.2-5.5-3.2-10-3.2H8.1c-0.9,0-1.7,0.7-1.8,1.6L0.8,59.7
			C0.7,60.4,1.2,61,1.9,61H10l-0.6,3.5c-0.1,0.6,0.4,1.1,1,1.1h6.8c0.8,0,1.5-0.6,1.6-1.4l0.1-0.3l1.3-8.2l0.1-0.5
			c0.1-0.8,0.8-1.4,1.6-1.4h1c6.6,0,11.8-2.7,13.3-10.5c0.6-3.2,0.3-6-1.4-7.9C34.4,35,33.8,34.5,33.1,34.1L33.1,34.1"/>
		<path class="st2" d="M33.1,34.1c0.5-3.3,0-5.5-1.8-7.5c-2-2.2-5.5-3.2-10-3.2H8.1c-0.9,0-1.7,0.7-1.8,1.6L0.8,59.7
			C0.7,60.4,1.2,61,1.9,61H10l2-12.9L12,48.5c0.2-0.9,0.9-1.6,1.8-1.6h3.8c7.6,0,13.5-3.1,15.2-12C32.9,34.6,33,34.4,33.1,34.1"/>
		<path class="st0" d="M14.2,34.2c0.1-0.6,0.5-1,0.9-1.2c0.2-0.1,0.5-0.2,0.7-0.2h10.3c1.2,0,2.4,0.1,3.4,0.3c0.3,0,0.6,0.1,0.9,0.2
			c0.3,0.1,0.6,0.1,0.8,0.2c0.2,0,0.3,0.1,0.4,0.1c0.5,0.2,1,0.4,1.4,0.6c0.5-3.3,0-5.5-1.8-7.5c-2-2.2-5.5-3.2-10-3.2H8.1
			c-0.9,0-1.7,0.7-1.8,1.6L0.8,59.7C0.7,60.4,1.2,61,1.9,61H10l2-12.9L14.2,34.2z"/>
	</g>
</g>
<g id="Layer_2">
</g>
</svg>
