<?xml version="1.0" encoding="utf-8"?>
<!-- Generator: Adobe Illustrator 21.1.0, SVG Export Plug-In . SVG Version: 6.00 Build 0)  -->
<svg version="1.1" xmlns="http://www.w3.org/2000/svg" xmlns:xlink="http://www.w3.org/1999/xlink" x="0px" y="0px"
	 viewBox="0 0 175 90" style="enable-background:new 0 0 175 90;" xml:space="preserve">
<g id="Layer_1">
	<g id="logotype">
		<path class="st0" d="M40.5,50.6c0.1-0.2,0.4-0.7,0.5-0.9c0.2-0.3,0.6-0.4,1-0.1c0,0,1.5,1.3,3.4,1.3c1.5,0,2.3-0.8,2.3-1.7
			c0-1.3-1.1-1.8-3.2-2.9c-1.9-0.9-4.1-2.2-4.1-4.6c0-1.5,1.2-3.7,4.6-3.7c1.9,0,3.3,0.6,4,1.1c0.3,0.2,0.4,0.7,0.2,1.1l-0.3,0.6
			c-0.2,0.4-0.7,0.5-1,0.3c0,0-1.5-0.9-2.9-0.9c-1.6,0-2,0.8-2,1.4c0,1.2,1.2,1.7,2.7,2.4c2.5,1.2,4.7,2.3,4.7,4.9c0,2.1-2,4-5,4
			c-2.4,0-3.9-1-4.7-1.6C40.5,51.2,40.4,50.8,40.5,50.6"/>
		<path class="st0" d="M52.8,38.9c0-0.4,0.3-0.7,0.7-0.7h0.7c0.3,0,0.5,0.1,0.6,0.4l0.3,1.1c0,0,1.7-1.9,4.7-1.9
			c2.1,0,3.7,0.8,4.6,2.3c0.2-0.1,2.5-2.3,5.3-2.3c4.2,0,5.6,2.7,5.6,6.5v7.6c0,0.4-0.3,0.7-0.7,0.7h-1.2c-0.4,0-0.7-0.3-0.7-0.7
			v-7.6c0-2.7-1.2-4-3.2-4c-2.3,0-3.9,1.5-4.4,2c0.1,0.6,0.2,1.3,0.2,2v7.6c0,0.4-0.3,0.7-0.7,0.7h-1.2c-0.4,0-0.7-0.3-0.7-0.7v-7.6
			c0-2.7-1.2-4-3.4-4c-2.5,0-4.1,2-4.1,2v9.6c0,0.4-0.3,0.7-0.7,0.7h-1.1c-0.4,0-0.7-0.3-0.7-0.7L52.8,38.9L52.8,38.9z"/>
		<path class="st0" d="M94.5,50.6c0.1-0.2,0.4-0.7,0.5-0.9c0.2-0.3,0.6-0.4,1-0.1c0,0,1.5,1.3,3.4,1.3c1.5,0,2.3-0.8,2.3-1.7
			c0-1.3-1.1-1.8-3.2-2.9c-1.9-0.9-4.1-2.2-4.1-4.6c0-1.5,1.2-3.7,4.6-3.7c1.9,0,3.3,0.6,4,1.1c0.3,0.2,0.4,0.7,0.2,1.1l-0.3,0.6
			c-0.2,0.4-0.7,0.5-1,0.3c0,0-1.5-0.9-2.9-0.9c-1.6,0-2,0.8-2,1.4c0,1.2,1.2,1.7,2.7,2.4c2.5,1.2,4.7,2.3,4.7,4.9c0,2.1-2,4-5,4
			c-2.4,0-3.9-1-4.7-1.6C94.5,51.2,94.4,50.8,94.5,50.6"/>
		<path class="st0" d="M106.8,32.3c0-0.4,0.3-0.7,0.7-0.7h1.1c0.4,0,0.7,0.3,0.7,0.7v7.5c0,0,1.9-1.9,4.8-1.9c3.5,0,5.6,2.3,5.6,6.5
			v7.6c0,0.4-0.3,0.7-0.7,0.7h-1.2c-0.4,0-0.7-0.3-0.7-0.7v-7.6c0-2.7-1.2-4-3.2-4c-2.7,0-4.6,2-4.6,2v9.6c0,0.4-0.3,0.7-0.7,0.7
			h-1.1c-0.4,0-0.7-0.3-0.7-0.7L106.8,32.3L106.8,32.3z"/>
		<path class="st0" d="M133.6,48.9c-0.1-0.2-0.3-0.2-0.4-0.1c-0.8,0.8-1.8,1.7-3.7,1.7c-2.7,0-4.7-2.3-4.7-5.2
			c0-2.9,2.1-5.1,4.8-5.1c1.4,0,2.6,0.7,3.3,1.5c0,0,0.1,0.1,0.1,0.1c0.2,0.2,0.6,0.1,0.7-0.2c0.2-0.5,0.4-0.9,0.6-1.3
			c0.1-0.2,0.1-0.4-0.1-0.6c-1.2-1.3-2.8-2-4.6-2c-3.9,0-7.4,3.3-7.4,7.6c0,4.3,3.4,7.5,7.4,7.5c2,0,3.6-0.8,4.7-2
			c0.1-0.1,0.2-0.3,0.1-0.5C134,50,133.8,49.3,133.6,48.9"/>
		<path class="st0" d="M152.5,50.6c0.1-0.2,0.4-0.7,0.5-0.9c0.2-0.3,0.6-0.4,1-0.1c0,0,1.5,1.3,3.4,1.3c1.5,0,2.3-0.8,2.3-1.7
			c0-1.3-1.1-1.8-3.2-2.9c-1.9-0.9-4.1-2.2-4.1-4.6c0-1.5,1.2-3.7,4.6-3.7c1.9,0,3.3,0.6,4,1.1c0.3,0.2,0.4,0.7,0.2,1.1l-0.3,0.6
			c-0.2,0.4-0.7,0.5-1,0.3c0,0-1.5-0.9-2.9-0.9c-1.6,0-2,0.8-2,1.4c0,1.2,1.2,1.7,2.7,2.4c2.5,1.2,4.7,2.3,4.7,4.9c0,2.1-2,4-5,4
			c-2.4,0-3.9-1-4.7-1.6C152.5,51.2,152.4,50.8,152.5,50.6"/>
		<path class="st0" d="M166.2,40.4h-1.8c-0.4,0-0.7-0.3-0.7-0.7v-0.8c0-0.4,0.3-0.7,0.7-0.7h1.8v-4c0-0.4,0.3-0.7,0.7-0.7l1.2-0.1
			c0.4,0,0.6,0.3,0.6,0.7v4h4.2c0.4,0,0.7,0.3,0.7,0.7v0.8c0,0.4-0.3,0.7-0.7,0.7h-4.2v8.4c0,1.4,0.4,1.7,1.2,1.7
			c0.9,0,2.2-0.5,2.6-0.8c0.5-0.3,0.7-0.1,0.9,0.2l0.5,0.9c0.3,0.4,0.1,0.6-0.3,0.9c-0.5,0.3-2.4,1.2-4.1,1.2
			c-2.9,0-3.3-1.7-3.3-3.9L166.2,40.4L166.2,40.4z"/>
		<path class="st0" d="M85.2,37.9c-4.8,0-7.5,3.4-7.5,7.5c0,4.6,3.2,7.6,7.1,7.6c0,0,0,0,0.1,0c1.9,0,3.4-1.6,3.4-3.4v-0.1
			c0-0.2-0.3-0.3-0.4-0.2c-0.8,0.8-1.5,1.3-3,1.3c-2.9,0-4.7-2.3-4.7-5.2c0-2.8,2.2-5.1,5-5.1c3.2,0,4.3,1.9,4.3,4.8l0,0v3.5
			c0,0,0,0.1,0,1.6c0,0.8,0.4,2.7,0.4,2.7l0,0c0.1,0.3,0.2,0.5,0.6,0.5h0.7h0c0.4,0,0.7-0.3,0.7-0.7v-4.1V45
			C92,41,89.6,37.9,85.2,37.9"/>
		<path class="st0" d="M143.1,37.9c-4.8,0-7.5,3.4-7.5,7.5c0,4.6,3.2,7.6,7.1,7.6c0,0,0,0,0.1,0c1.9,0,3.4-1.6,3.4-3.4v-0.1
			c0-0.2-0.3-0.3-0.4-0.2c-0.8,0.8-1.5,1.3-3,1.3c-2.9,0-4.7-2.3-4.7-5.2c0-2.8,2.2-5.1,5-5.1c3.2,0,4.3,2.3,4.3,5.1V45v3.1
			c0,0,0,0.5,0,1.9c0,0.8,0.4,2.7,0.4,2.7l0,0c0.1,0.3,0.2,0.5,0.6,0.5h0.7h0c0.4,0,0.7-0.3,0.7-0.7v-4.4V45
			C149.9,41.3,147.6,37.9,143.1,37.9"/>
	</g>
	<g id="icon">
		<g>
			<path class="st0" d="M7.7,42.3c-0.2,0-0.5,0-0.7-0.1l-4.9-2c-0.9-0.4-1.4-1.5-1-2.4s1.5-1.4,2.4-1l4.9,2c0.9,0.4,1.4,1.5,1,2.4
				C9.1,41.8,8.4,42.3,7.7,42.3z"/>
		</g>
		<g>
			<path class="st0" d="M21.7,60.5c-0.7,0-1.4-0.4-1.7-1.2l-2.6-6.5c-0.4-0.9,0.1-2,1-2.4c0.9-0.4,2,0.1,2.4,1l2.6,6.5
				c0.4,0.9-0.1,2-1,2.4C22.1,60.4,21.9,60.5,21.7,60.5z"/>
		</g>
		<g>
			<path class="st0" d="M24,42.5c-0.7,0-1.4-0.4-1.7-1.2c-0.4-0.9,0.1-2,1-2.4l6.5-2.6c0.9-0.4,2,0.1,2.4,1c0.4,0.9-0.1,2-1,2.4
				l-6.5,2.6C24.5,42.4,24.2,42.5,24,42.5z"/>
		</g>
		<g>
			<path class="st0" d="M28.6,51.3c-0.3,0-0.5-0.1-0.8-0.2l-4.7-2.1c-0.9-0.4-1.3-1.5-0.9-2.4c0.4-0.9,1.5-1.3,2.4-0.9l4.7,2.1
				c0.9,0.4,1.3,1.5,0.9,2.4C30,50.9,29.3,51.3,28.6,51.3z"/>
		</g>
		<g>
			<path class="st0" d="M9.5,60.3c-0.2,0-0.5,0-0.7-0.2c-0.9-0.4-1.4-1.5-1-2.4l2.8-6.5c0.4-0.9,1.5-1.4,2.4-1
				c0.9,0.4,1.4,1.5,1,2.4l-2.8,6.4C10.9,59.9,10.3,60.3,9.5,60.3z"/>
		</g>
		<g>
			<path class="st0" d="M19.3,37.6c-0.2,0-0.5,0-0.7-0.1c-0.9-0.4-1.4-1.4-1-2.4l1.2-2.9c0.4-0.9,1.4-1.4,2.4-1
				c0.9,0.4,1.4,1.4,1,2.4L21,36.5C20.7,37.2,20,37.6,19.3,37.6z"/>
		</g>
		<g>
			<path class="st0" d="M12.5,37.6c-0.7,0-1.4-0.4-1.7-1.2l-2.6-6.5c-0.4-0.9,0.1-2,1-2.4c0.9-0.4,2,0.1,2.4,1l2.6,6.5
				c0.4,0.9-0.1,2-1,2.4C13,37.5,12.8,37.6,12.5,37.6z"/>
		</g>
		<g>
			<path class="st0" d="M3.3,50.8c-0.7,0-1.4-0.4-1.7-1.2c-0.4-0.9,0.1-2,1-2.4l4.3-1.7c0.9-0.4,2,0.1,2.4,1c0.4,0.9-0.1,2-1,2.4
				L4,50.6C3.7,50.7,3.5,50.8,3.3,50.8z"/>
		</g>
	</g>
</g>
<g id="Layer_2">
</g>
</svg>
