<?xml version="1.0" encoding="utf-8"?>
<!-- Generator: Adobe Illustrator 21.1.0, SVG Export Plug-In . SVG Version: 6.00 Build 0)  -->
<svg version="1.1" id="Layer_1" xmlns="http://www.w3.org/2000/svg" xmlns:xlink="http://www.w3.org/1999/xlink" x="0px" y="0px"
	 viewBox="0 0 175 90" style="enable-background:new 0 0 175 90;" xml:space="preserve">
<style type="text/css">
	.st0{fill:#FFFFFF;}
</style>
<g id="Layer_2">
</g>
<path class="st0" d="M87.5,0C63.2,0,43.6,19.7,43.6,43.9c0,24.2,19.7,43.9,43.9,43.9c24.2,0,43.9-19.7,43.9-43.9
	C131.4,19.6,111.7,0,87.5,0C87.5,0,87.5,0,87.5,0z M107.6,63.3c-0.8,1.3-2.5,1.7-3.8,0.9c0,0,0,0,0,0c-10.3-6.3-23.3-7.7-38.6-4.2
	c-1.5,0.4-3-0.5-3.4-1.9s0.5-3,1.9-3.4c0.1,0,0.1,0,0.2,0c16.7-3.8,31.1-2.2,42.6,4.9C108,60.3,108.4,62,107.6,63.3L107.6,63.3z
	 M113,51.4c-1,1.6-3.1,2.1-4.7,1.1c0,0,0,0,0,0c-11.8-7.3-29.8-9.4-43.7-5.1c-1.8,0.6-3.7-0.3-4.3-2.1c-0.6-1.8,0.3-3.7,2.1-4.3
	c0.1,0,0.1,0,0.2-0.1c15.9-4.8,35.8-2.5,49.3,5.8C113.5,47.6,114,49.8,113,51.4L113,51.4z M113.5,38.9c-14.2-8.4-37.5-9.2-51-5.1
	c-2.2,0.7-4.5-0.6-5.1-2.7c-0.7-2.2,0.6-4.5,2.7-5.1c15.5-4.7,41.3-3.8,57.6,5.9c1.9,1.2,2.6,3.7,1.4,5.6S115.4,40.1,113.5,38.9
	L113.5,38.9z"/>
</svg>
