<?xml version="1.0" encoding="utf-8"?>
<!-- Generator: Adobe Illustrator 21.1.0, SVG Export Plug-In . SVG Version: 6.00 Build 0)  -->
<svg version="1.1" xmlns="http://www.w3.org/2000/svg" xmlns:xlink="http://www.w3.org/1999/xlink" x="0px" y="0px"
	 viewBox="0 0 175 90" style="enable-background:new 0 0 175 90;" xml:space="preserve">
<style type="text/css">
	.st0{fill:none;stroke:#FFFFFF;stroke-width:2.1192;}
	.st1{fill:#FFFFFF;}
</style>
<g id="Layer_1">
	<g id="Page-1">
		<g id="Sign-up" transform="translate(-688.000000, -45.000000)">
			<g id="logo---tiltify" transform="translate(688.000000, 44.984375)">
				<ellipse id="Oval-1" class="st0" cx="86.1" cy="45.1" rx="43.9" ry="43.9"/>
				<g id="T" transform="translate(15.907502, 12.113156)">
					<path id="Fill-1" class="st1" d="M95.8,14.8c0-1.9-0.7-3.5-2-4.8c-1.3-1.3-2.9-2-4.8-2c-1.9,0-3.5,0.7-4.8,2
						c-1.3,1.3-2,2.9-2,4.8c0,1.9,0.7,3.5,2,4.8c1.3,1.3,2.9,2,4.8,2c1.9,0,3.5-0.7,4.8-2C95.1,18.3,95.8,16.7,95.8,14.8"/>
					<path id="Fill-2" class="st1" d="M90.4,30.7c0-0.1,0.1-0.3,0.1-0.4c0.6-2.5-0.7-4.8-3.8-6.8L60.9,7.6c-0.6-0.4-1.3-0.8-2-1.1
						c0,0-0.1,0-0.1-0.1c-1.9-0.9-3.9-0.9-5.8-0.1c-2,0.8-3.4,2.1-4.2,4c-0.9,1.9-0.9,3.8-0.1,5.8c0.2,0.5,0.4,0.9,0.7,1.3
						c0.5,0.8,1.2,1.5,2.2,2.3c0.3,0.2,0.7,0.4,1,0.6h0c0,0,0.1,0,0.1,0.1l9.2,4.1l-3.7,31.4c0,0,0,0,0,0c-0.3,3.7,1.5,5.9,5.3,6.6
						c0.1,0,0.1,0,0.2,0c1.7,0.2,3.2-0.2,4.5-1.1c1.3-0.9,2-2.3,2.2-4.2l3.3-27.7l8.3,3.7c2.7,1.1,4.9,1.1,6.6,0.1
						c0.7-0.5,1.3-1.2,1.7-2.1L90.4,30.7z"/>
				</g>
			</g>
		</g>
	</g>
</g>
<g id="Layer_2">
</g>
</svg>
