<?xml version="1.0" encoding="utf-8"?>
<!-- Generator: Adobe Illustrator 21.1.0, SVG Export Plug-In . SVG Version: 6.00 Build 0)  -->
<svg version="1.1" xmlns="http://www.w3.org/2000/svg" xmlns:xlink="http://www.w3.org/1999/xlink" x="0px" y="0px"
	 viewBox="0 0 175 90" style="enable-background:new 0 0 175 90;" xml:space="preserve">
<style type="text/css">
	.st0{fill:#FFFFFF;}
</style>
<g id="Layer_1">
	<g id="g3363" transform="matrix(1.3333333,0,0,-1.3333333,-180.53426,935.79824)">
		<g id="g3371" transform="translate(468.8057,565.3643)">
			<path id="path3373" class="st0" d="M-205.2,109.5l-5.2,5.2h-9.8v6.8h-8.3V90.7h8.3v15.8h6.7V90.7h8.3L-205.2,109.5z
				 M-231.4,114.7h-12.8l-5.3-5.2V96l5.3-5.3h12.8V99h-9.8v7.5h9.8C-231.4,106.5-231.4,114.7-231.4,114.7z M-252.4,114.7h-6.7v6.8
				h-8.3V96l5.3-5.3h9.8V99h-6.7v7.5h6.7V114.7L-252.4,114.7z M-270.4,121.5h-8.2v-3.8h8.2V121.5z M-270.4,114.7h-8.2v-24h8.2V114.7
				z M-281.7,114.7h-8.3V99h-3v15.8h-8.3V99h-3v15.8h-8.3v-24h25.5l5.2,5.3V114.7L-281.7,114.7z M-315.4,114.7h-6.7v6.8h-8.3V96
				l5.3-5.3h9.7V99h-6.7v7.5h6.7V114.7L-315.4,114.7z M-202.2,111V88.5l-11.2-7.5h-7.5v3.8l-5.3-3.8h-6.7v3.8l-3.7-3.8h-12l-3.8,3.8
				l-0.8-3.8h-10.5l-4.3,3.8l-0.2-3.8h-11.9l-0.4,3.8l-3.2-3.8h-18.2l-3.8,1.5V81h-9.7l-11.3,6.8l-6.7,6.7v30h14.3l6.7-6.8h30.8v6.8
				h25.5v-6.8h6.8V114l3.8,3.7h7.5l6.8,6.8h14.2v-6.8h8.3L-202.2,111z"/>
		</g>
	</g>
</g>
<g id="Layer_2">
</g>
</svg>
