<?xml version="1.0" encoding="utf-8"?>
<!-- Generator: Adobe Illustrator 21.1.0, SVG Export Plug-In . SVG Version: 6.00 Build 0)  -->
<svg version="1.1" id="Layer_1" xmlns="http://www.w3.org/2000/svg" xmlns:xlink="http://www.w3.org/1999/xlink" x="0px" y="0px"
	 viewBox="0 0 175 90" style="enable-background:new 0 0 175 90;" xml:space="preserve">
<style type="text/css">
	.st0{fill:none;}
	.st1{fill:#FFFFFF;}
</style>
<g>
	<rect x="-125" y="-157" class="st0" width="280" height="280"/>
	<path class="st1" d="M66.7,89c40.9,0,63.4-34,63.4-63.4c0-1,0-1.9,0-2.9c4.3-3.1,8.1-7.1,11.1-11.5c-4,1.8-8.3,3-12.8,3.5
		c4.6-2.7,8.1-7.1,9.8-12.3c-4.3,2.6-9.1,4.4-14.2,5.4c-4.1-4.3-9.9-7-16.2-7c-12.3,0-22.3,10-22.3,22.3c0,1.7,0.2,3.4,0.6,5.1
		c-18.5-0.9-34.9-9.8-45.9-23.3c-1.9,3.3-3,7.1-3,11.2c0,7.7,4,14.5,9.9,18.5c-3.6-0.1-7.1-1.1-10.1-2.8c0,0.1,0,0.2,0,0.3
		c0,10.8,7.7,19.8,17.8,21.8C53,54.5,51,54.7,49,54.7c-1.4,0-2.8-0.1-4.2-0.4c2.8,8.9,11.1,15.3,20.8,15.5c-7.6,6-17.2,9.6-27.7,9.6
		c-1.8,0-3.6-0.1-5.3-0.3C42.5,85.3,54.2,89,66.7,89"/>
</g>
</svg>
