<?xml version="1.0" encoding="utf-8"?>
<!-- Generator: Adobe Illustrator 21.1.0, SVG Export Plug-In . SVG Version: 6.00 Build 0)  -->
<svg version="1.1" id="Layer_1" xmlns="http://www.w3.org/2000/svg" xmlns:xlink="http://www.w3.org/1999/xlink" x="0px" y="0px"
	 viewBox="0 0 175 90" style="enable-background:new 0 0 175 90;" xml:space="preserve">
<style type="text/css">
	.st0{fill:#FFFFFF;}
</style>
<g id="You">
	<path id="u_2_" class="st0" d="M65.3,66.6h-6.6v-3.8c-2.5,2.9-4.6,4.3-7,4.3c-2,0-3.5-1-4.2-2.7c-0.4-1-0.7-2.7-0.7-5.1V31.3h6.6
		v26.2c0,1.5,0,2.1,0,2.4c0.1,1,0.6,1.3,1.4,1.3c1.3,0,2.4-1.1,3.8-3.1V31.3h6.6V66.6z"/>
	<path id="o_2_" class="st0" d="M41.9,42.8c0-3.8-0.8-6.6-2.1-8.4C38,32,35.3,31,32.5,31c-3.2,0-5.6,1-7.3,3.4
		c-1.4,1.8-2.1,4.6-2.1,8.4v12.5c0,3.7,0.7,6.3,2,8.1c1.8,2.4,4.6,3.7,7.4,3.7s5.7-1.3,7.5-3.7c1.3-1.8,2-4.4,2-8.1V42.8z
		 M35.3,56.1c0.3,3.5-0.7,5.2-2.8,5.2s-3.1-1.7-2.8-5.2v-14c-0.3-3.5,0.7-5.1,2.8-5.1s3.1,1.6,2.8,5.1V56.1z"/>
	<path id="y_2_" class="st0" d="M15.7,47.4v19.2h-7V47.4c0,0-7.2-23.5-8.7-27.9h7.3l4.9,18.4l4.9-18.4h7.3L15.7,47.4z"/>
</g>
<g id="Tube">
	<g>
		<path class="st0" d="M133.6,36.9c-1,0-2.2,0.6-3.3,1.6v21.2c1,1,2.3,1.6,3.3,1.6c1.8,0,2.7-1.3,2.7-4.8v-15
			C136.3,37.9,135.4,36.9,133.6,36.9z"/>
		<path class="st0" d="M159.7,41.1c0-3.2-0.8-4.2-2.9-4.2s-3,0.9-3,4.2v3.9h5.9V41.1z"/>
		<path class="st0" d="M174,23.2c0,0-1-7.2-4.2-10.3c-4-4.1-8.4-4.2-10.4-4.4c-14.6-1-36.5-1-36.5-1h0c0,0-21.9,0-36.5,1
			c-2,0.2-6.5,0.3-10.4,4.4c-3.1,3.1-4.2,10.3-4.2,10.3s-1,8.4-1,16.8v7.9c0,8.4,1,16.8,1,16.8s1,7.2,4.2,10.3c4,4.1,9.2,4,11.5,4.4
			c8.3,0.8,35.5,1,35.5,1s21.9,0,36.5-1.1c2-0.2,6.5-0.3,10.4-4.4c3.1-3.1,4.2-10.3,4.2-10.3s1-8.4,1-16.8V40
			C175,31.6,174,23.2,174,23.2z M93.6,66.6h-7V26.4h-7.3v-6.6h22v6.6h-7.7V66.6z M118.8,66.6h-6.6v-3.8c-2.5,2.9-4.6,4.3-7,4.3
			c-2,0-3.5-1-4.2-2.7c-0.4-1-0.7-2.7-0.7-5.1V31.6h6.6v25.9c0,1.5,0,2.1,0,2.4c0.1,1,0.6,1.3,1.4,1.3c1.3,0,2.4-1.1,3.8-3.1V31.6
			h6.6V66.6z M142.9,56.1c0,3.2-0.3,5.5-0.7,7c-0.8,2.6-2.7,3.9-5.2,3.9c-2.2,0-4.5-1.4-6.7-4v3.5H124V19.8h6.3V35
			c2-2.5,4.4-3.9,6.7-3.9c2.5,0,4.2,1.5,5.1,4.1c0.4,1.4,0.8,3.7,0.8,7V56.1z M156.8,61.3c1.6,0,2.5-0.8,2.8-2.6
			c0.1-0.3,0-1.9,0-4.4h6.6v1c0,2-0.2,3.5-0.2,4.1c-0.2,1.4-0.7,2.7-1.5,3.8c-1.7,2.6-4.3,3.8-7.7,3.8c-3.3,0-5.8-1.2-7.7-3.6
			c-1.3-1.7-2.2-4.3-2.2-8.1V43.1c0-3.7,0.8-6.6,2.1-8.4c1.8-2.4,4.3-3.7,7.6-3.7c3.2,0,5.7,1.3,7.5,3.7c1.3,1.8,2.1,4.5,2.1,8.2V50
			h-12.6v6.3C153.7,59.7,154.6,61.3,156.8,61.3z"/>
	</g>
</g>
</svg>
