<?xml version="1.0" encoding="utf-8"?>
<!-- Generator: Adobe Illustrator 22.1.0, SVG Export Plug-In . SVG Version: 6.00 Build 0)  -->
<svg version="1.1" id="Layer_1" xmlns="http://www.w3.org/2000/svg" xmlns:xlink="http://www.w3.org/1999/xlink" x="0px" y="0px"
	 viewBox="0 0 160.6 142.1" style="enable-background:new 0 0 160.6 142.1;" xml:space="preserve">
<path d="M130.1,0c8,0,14.6,6.5,14.6,14.6v127.5l-15.3-13.5l-8.6-8l-9.1-8.5l3.8,13.1H34.9c-8,0-14.6-6.5-14.6-14.6V14.6
	C20.3,6.5,26.9,0,34.9,0C34.9,0,130.1,0,130.1,0z M102.7,92.8c15.7-0.5,21.7-10.8,21.7-10.8c0-22.9-10.2-41.4-10.2-41.4
	c-10.2-7.7-20-7.5-20-7.5l-1,1.1c12.1,3.7,17.7,9,17.7,9c-7.4-4-14.6-6-21.4-6.8c-5.1-0.6-10-0.4-14.4,0.1L74,36.7
	c-2.5,0.2-8.5,1.1-16.1,4.5c-2.6,1.2-4.2,2.1-4.2,2.1s5.9-5.6,18.7-9.3l-0.7-0.9c0,0-9.7-0.2-20,7.5c0,0-10.2,18.5-10.2,41.4
	c0,0,6,10.3,21.7,10.8c0,0,2.6-3.2,4.8-5.9c-9-2.7-12.4-8.4-12.4-8.4l2,1.2l0.3,0.2l0.3,0.2l0.1,0l0.3,0.2c1.8,1,3.6,1.8,5.2,2.4
	c2.9,1.1,6.4,2.3,10.4,3.1c5.3,1,11.6,1.3,18.4,0.1c3.3-0.6,6.7-1.6,10.3-3.1c2.5-0.9,5.3-2.3,8.2-4.2c0,0-3.6,5.8-12.9,8.5
	C100.1,89.7,102.7,92.8,102.7,92.8z M69.6,59.6c-4,0-7.2,3.6-7.2,7.9c0,4.3,3.3,7.9,7.2,7.9c4,0,7.2-3.6,7.2-7.9
	C76.9,63.2,73.7,59.6,69.6,59.6z M95.6,59.6c-4,0-7.2,3.6-7.2,7.9c0,4.3,3.3,7.9,7.2,7.9c4,0,7.2-3.6,7.2-7.9
	C102.8,63.2,99.6,59.6,95.6,59.6z"/>
</svg>
