<?xml version="1.0" encoding="utf-8"?>
<!-- Generator: Adobe Illustrator 23.0.3, SVG Export Plug-In . SVG Version: 6.00 Build 0)  -->
<svg version="1.1" id="Layer_1" xmlns="http://www.w3.org/2000/svg" xmlns:xlink="http://www.w3.org/1999/xlink" x="0px" y="0px"
	 viewBox="0 0 160.6 142.1" style="enable-background:new 0 0 160.6 142.1;" xml:space="preserve">
<style type="text/css">
	.dlivest0{display:none;fill:#FFD300;}
</style>
<g>
	<path class="dlivest0" d="M37.4,20c-5.4,5.4-8.5,12.9-9,20.5c-4.8-5.6-10.8-9.8-17-13.5c-2,5.7-4.2,11.5-7.3,16.7
		c7.4,1.7,15.5,2.2,22.5,5.9c-7.3,2.6-14.9,4-22.5,5.4c3.1,5.3,5.3,11,7.1,16.7c6.4-3.6,12.2-8.1,17.2-13.3c0,14.1,0,28,0,42.1
		c0,4.6,1.1,9.3,3.3,13.5c5,9.9,15.5,16.9,26.7,17c19.5,0.2,39,0,58.6,0c8.1,0.2,16.1-2.9,21.8-8.5c6-5.6,9.5-13.8,9.6-21.8
		c0-19.5,0-39,0-58.6c0-6.7-2.3-13.5-6.4-18.7c-5.6-7.3-14.4-11.9-23.6-11.9c-19.8,0-39.5,0-59.3,0C51.1,10.9,43,14.3,37.4,20"/>
	<path class="dlivest0" d="M58.7,44.5c-2.2,1.1-1.5,4.8,0.9,5.1c6.4,0.6,12.7,1.4,19.1,1.9c2.9-0.2,3.3-4.8,0.5-5.4
		c-5.3-0.8-10.7-1.1-16-1.7C61.6,44.5,60.1,44.1,58.7,44.5"/>
	<path class="dlivest0" d="M111,44.7c-4.6,0.6-9.3,0.8-13.9,1.5c-2.6,0.9-1.9,5.4,1.1,5.3c6.4-0.5,12.7-1.2,18.9-1.9
		c2.5-0.5,2.8-4.5,0.5-5.3C115.4,44.1,113.2,44.7,111,44.7"/>
	<path class="dlivest0" d="M67.2,54c-2.6,0.6-4.8,2.6-5.7,5c-2,4.6,1.2,10.5,6.2,11.3c4.8,1.1,9.9-3.1,9.8-8.2
		C77.7,56.9,72.3,52.6,67.2,54"/>
	<path class="dlivest0" d="M104.5,54.3c-2.5,0.9-4.6,3.1-5.3,5.9c-1.4,4.8,2.5,10.1,7.4,10.4c5,0.5,9.5-4.2,8.8-9
		C115.4,56.1,109.5,52.3,104.5,54.3L104.5,54.3z"/>
	<path class="dlivest1" d="M142,22.8c-5.6-7.1-14.4-11.8-23.6-11.9c-19.8,0-39.5,0-59.3,0c-8.1,0-16,3.4-21.7,9.1
		c-5.4,5.4-8.7,12.9-9,19.8c-4.8-5.4-10.8-9.8-17-13.5c-2,5.7-4.2,11.5-7.3,16.7c7.4,1.7,15.5,2.3,22.5,5.9
		c-7.3,2.8-14.9,4.2-22.5,5.4c2.9,5.3,5.3,11,7.1,16.7c6.4-3.6,12.2-7.9,17.2-13.3c0,14.1,0,28,0,42.1c0,4.6,1.2,9.3,3.3,13.5
		c4.8,9.9,15.5,16.9,26.7,17c19.5,0,39,0,58.6,0c7.9,0.2,16.1-2.9,21.8-8.5c6-5.6,9.6-13.6,9.6-21.8c0-19.5,0-39,0-58.6
		C148.4,34.9,146.2,28.1,142,22.8z M139.7,72.3c-0.3,7.4-5.1,14.6-12.1,17.4c-9,3.6-19.2,0.2-26.7-5.4c-3.1-2.8-6.4-5.9-10.5-6.5
		c-4.6-0.9-9.1,1.5-12.4,4.8c-5.9,5.4-13.8,9-22,8.5c-7.9-0.2-15.2-5.6-17.8-12.9C36.2,73,37.1,67.5,37,62
		c0.2-5.1-0.6-10.5,1.1-15.5c2-6.2,7.3-11,13.6-12.7c1.9-0.5,3.9-0.8,5.9-0.9c20.3,0,40.6,0,60.9,0c5.3,0,10.7,1.7,14.6,5.3
		c4.3,3.7,6.8,9.6,6.7,15.3C139.7,59.7,139.9,66.1,139.7,72.3z"/>
	<path d="M58.7,44.5c1.4-0.6,2.9-0.2,4.3-0.2c5.3,0.6,10.7,0.9,16,1.7c2.9,0.6,2.5,5.3-0.5,5.4c-6.4-0.5-12.7-1.2-19.1-1.9
		C57.1,49.3,56.5,45.8,58.7,44.5"/>
	<path d="M111,44.7c2.2-0.2,4.3-0.6,6.5-0.3c2.5,0.8,2,4.8-0.5,5.3c-6.4,0.6-12.7,1.4-18.9,1.9c-2.9,0.2-3.7-4.3-1.1-5.3
		C101.7,45.4,106.4,45.3,111,44.7"/>
	<path d="M67.2,54c5-1.4,10.4,2.9,10.2,8.1c0.2,5-5,9.3-9.8,8.2c-5-0.8-8.2-6.5-6.2-11.3C62.4,56.6,64.7,54.6,67.2,54"/>
	<path d="M104.5,54.3c4.8-1.9,10.8,1.9,11,7.1c0.6,5-4,9.6-8.8,9c-5-0.2-8.8-5.6-7.4-10.4C100,57.4,102,55.2,104.5,54.3L104.5,54.3z
		"/>
</g>
</svg>
