<svg id="Layer_1" data-name="Layer 1" xmlns="http://www.w3.org/2000/svg" viewBox="0 0 167.49 167.49">
	<title>extralife</title>
	<path d="M127.4,112L84,62.4c-2.7-3.1-7.5-3.4-10.6-0.7l-49.6,43.4c-3.1,2.7-3.4,7.5-0.7,10.6l43.4,49.6
		c2.7,3.1,7.5,3.5,10.6,0.7l49.6-43.4C129.8,119.8,130.1,115.1,127.4,112z M50.1,115.5c-2.8,2.4-7,2.1-9.5-0.6
		c-2.4-2.8-2.2-7,0.6-9.5c2.8-2.4,7-2.2,9.5,0.6C53.1,108.9,52.9,113.1,50.1,115.5z M64.6,132.1c-2.8,2.4-7,2.2-9.5-0.6
		c-2.4-2.8-2.2-7,0.6-9.5c2.8-2.4,7-2.2,9.5,0.6C67.6,125.4,67.4,129.7,64.6,132.1z M79.1,148.7c-2.8,2.4-7,2.2-9.5-0.6
		c-2.4-2.8-2.2-7,0.6-9.5c2.8-2.4,7-2.2,9.5,0.6C82.1,142,81.9,146.2,79.1,148.7z M81.4,89.2c-2.8,2.5-7,2.2-9.5-0.6
		c-2.4-2.8-2.2-7,0.6-9.5c2.8-2.4,7.1-2.2,9.5,0.6C84.5,82.5,84.2,86.8,81.4,89.2z M95.9,105.8c-2.8,2.4-7,2.2-9.5-0.6
		c-2.4-2.8-2.2-7,0.6-9.5c2.8-2.5,7.1-2.2,9.5,0.6C99,99.1,98.7,103.3,95.9,105.8z M110.4,122.3c-2.8,2.4-7,2.2-9.5-0.6
		c-2.4-2.8-2.2-7,0.6-9.5c2.8-2.4,7-2.2,9.5,0.6C113.5,115.6,113.2,119.9,110.4,122.3z"/>
	<path d="M146.2,70.7L134.7,5.9c-0.7-4.1-4.6-6.8-8.7-6.1L61.1,11.3C57,12,54.2,15.9,55,20l8.2,46.3l9.3-8.2
		c3.5-3.1,9.3-2.7,12.4,0.8l23,26.2l32.2-5.7C144.2,78.7,146.9,74.8,146.2,70.7z M75.6,35c-3.6,0.6-7.1-1.8-7.8-5.4
		c-0.6-3.6,1.8-7.1,5.4-7.8c3.7-0.6,7.2,1.8,7.8,5.4C81.7,30.9,79.3,34.4,75.6,35z M101.7,52.7c-3.6,0.6-7.1-1.8-7.8-5.4
		c-0.6-3.7,1.8-7.1,5.4-7.8c3.6-0.6,7.1,1.8,7.8,5.4C107.8,48.6,105.4,52.1,101.7,52.7z M127.9,70.5c-3.7,0.6-7.1-1.8-7.8-5.4
		c-0.6-3.7,1.8-7.1,5.4-7.8c3.6-0.6,7.1,1.8,7.8,5.4C133.9,66.3,131.5,69.8,127.9,70.5z"/>
</svg>
