<?xml version="1.0" encoding="utf-8"?>
<!DOCTYPE svg PUBLIC "-//W3C//DTD SVG 1.1//EN" "http://www.w3.org/Graphics/SVG/1.1/DTD/svg11.dtd">
<svg version="1.1" xmlns="http://www.w3.org/2000/svg" xmlns:xlink="http://www.w3.org/1999/xlink" x="0px" y="0px" viewBox="0 0 1000 1000" enable-background="new 0 0 1000 1000" xml:space="preserve">
<g><path d="M500,10c66.4,0,129.8,12.9,190.3,38.8c60.5,25.9,112.7,60.7,156.4,104.5s78.6,95.9,104.5,156.4c25.9,60.5,38.8,124,38.8,190.3c0,66.4-12.9,129.8-38.8,190.3c-25.9,60.5-60.7,112.7-104.5,156.4s-95.9,78.6-156.4,104.5C629.8,977.1,566.4,990,500,990c-66.4,0-129.8-12.9-190.3-38.8c-60.5-25.9-112.7-60.7-156.4-104.5S74.7,750.8,48.8,690.3C22.9,629.8,10,566.4,10,500c0-66.4,12.9-129.8,38.8-190.3c25.9-60.5,60.7-112.7,104.5-156.4s95.9-78.6,156.4-104.5C370.2,22.9,433.6,10,500,10L500,10z M500,80c-69.3,0-135.1,16.4-197.4,49.2l106.1,106.1C438.6,225.1,469,220,500,220s61.4,5.1,91.3,15.3l106.1-106.1C635.1,96.4,569.3,80,500,80L500,80z M129.2,697.4l106.1-106.1C225.1,561.4,220,531,220,500s5.1-61.4,15.3-91.3L129.2,302.6C96.4,364.9,80,430.7,80,500S96.4,635.1,129.2,697.4L129.2,697.4z M500,920c69.3,0,135.1-16.4,197.4-49.2L591.3,764.7C561.4,774.9,531,780,500,780s-61.4-5.1-91.3-15.3L302.6,870.8C364.9,903.6,430.7,920,500,920z M500,710c58,0,107.5-20.5,148.5-61.5S710,558,710,500s-20.5-107.5-61.5-148.5c-41-41-90.5-61.5-148.5-61.5s-107.5,20.5-148.5,61.5c-41,41-61.5,90.5-61.5,148.5s20.5,107.5,61.5,148.5C392.5,689.5,442,710,500,710L500,710z M764.7,591.3l106.1,106.1C903.6,635.1,920,569.3,920,500s-16.4-135.1-49.2-197.4L764.7,408.7C774.9,438.6,780,469,780,500S774.9,561.4,764.7,591.3z"/></g>
</svg>