<?xml version="1.0" encoding="utf-8"?>
<!-- Generator: Adobe Illustrator 21.1.0, SVG Export Plug-In . SVG Version: 6.00 Build 0)  -->
<svg version="1.1" id="Layer_1" xmlns="http://www.w3.org/2000/svg" xmlns:xlink="http://www.w3.org/1999/xlink" x="0px" y="0px"
	 viewBox="0 0 24 24" style="enable-background:new 0 0 24 24;" xml:space="preserve">
<path d="M19.7,2.8c-1.7,0.4-4.5,0.6-7.6,0.6S6.1,3.1,4.4,2.8C3.3,3,2.8,3,3,3.6C3.2,4.4,6.9,5,12.1,5s9.2-0.7,9.4-1.4
	C21.6,3.1,20.8,3,19.7,2.8z"/>
<path d="M19.7,2.5C16.4,3,13.7,3,11.9,3c-1.2,0-2.4,0-4.1-0.2C6.5,2.7,4.4,2.4,4.4,2.4c0.1-0.7,0.1-1.5,1-2C5.8,0.1,6.5,0,6.7,0
	c1.4,0,9.4,0,10.9,0c0.2,0,0.9,0.1,1.3,0.4c0.9,0.5,0.9,1.4,1,2c0,0-2,0.3-3.4,0.4C14.9,3.1,13.7,3,12.5,3C10.6,3,8,2.9,4.6,2.5"/>
<path d="M20,6.3c-0.1,0-0.2,0-0.4-0.1c0,0-1.3-0.1-2.6,0.5c-0.1,0.1-0.2,0.1-0.3,0.2c0,0-0.2,0.2-0.3,0.4c-0.1,0.2-1.3,5.2-1.7,5.9
	c-0.4,0.7-1.3,2.4-2.5,3.3c-1.6,1.3-4,2.3-5.1,2.5c-0.6,0.1-1.2,0.2-1.7,0.2c-0.2,0-0.6,0-1.2,0.2c-0.1,0-0.4,0.4-0.5,0.7
	c0,0.2-0.1,0.8,0,1.6c0.1,0.5,0.2,1.2,0.8,1.8C5,23.8,5.6,23.9,6,23.9C6.1,24,6.3,24,6.5,24l11.1,0c1.3,0,2.4-1.1,2.4-2.4L20,6.3z"
	/>
</svg>
