<?xml version="1.0" encoding="utf-8"?>
<!-- Generator: Adobe Illustrator 21.1.0, SVG Export Plug-In . SVG Version: 6.00 Build 0)  -->
<svg version="1.1" id="Layer_1" xmlns="http://www.w3.org/2000/svg" xmlns:xlink="http://www.w3.org/1999/xlink" x="0px" y="0px"
	 viewBox="0 0 160.6 142.1" style="enable-background:new 0 0 160.6 142.1;" xml:space="preserve">
<g>
	<path d="M29.6,6.6C23.9-1.1,12.7-2.3,5.4,4.3C-0.9,10-1.4,19.9,3.7,26.7l32.9,44.1L3.5,115.3c-5.1,6.9-4.7,16.7,1.7,22.5
		c7.3,6.6,18.5,5.4,24.2-2.3l46.2-62.1c1.1-1.5,1.1-3.6,0-5.1L29.6,6.6z"/>
	<path d="M131,6.6c5.7-7.7,16.9-8.9,24.2-2.3c6.3,5.7,6.8,15.6,1.7,22.5L124,70.9l33.1,44.5c5.1,6.9,4.7,16.7-1.7,22.5
		c-7.3,6.6-18.5,5.4-24.2-2.3L85,73.4c-1.1-1.5-1.1-3.6,0-5.1L131,6.6z"/>
</g>
</svg>
