<?xml version="1.0" encoding="utf-8"?>
<!-- Generator: Adobe Illustrator 23.0.3, SVG Export Plug-In . SVG Version: 6.00 Build 0)  -->
<svg version="1.1" id="Layer_1" xmlns="http://www.w3.org/2000/svg" xmlns:xlink="http://www.w3.org/1999/xlink" x="0px" y="0px"
	 viewBox="0 0 160.6 142.1" style="enable-background:new 0 0 160.6 142.1;" xml:space="preserve">
<style type="text/css">
	.picst0{fill-rule:evenodd;clip-rule:evenodd;}
</style>
<path id="White" class="picst0" d="M150.4,71.1c0,38.7-31.4,70.1-70.1,70.1c-38.7,0-70.1-31.4-70.1-70.1S41.6,1,80.3,1
	C119,1,150.4,32.3,150.4,71.1z M67.8,116.7c1.4,0,2.5-1.2,2.5-2.7V28.1c0-1.5-1.1-2.7-2.5-2.7H51.6c-1.4,0-2.5,1.2-2.5,2.7V114
	c0,1.5,1.1,2.7,2.5,2.7H67.8z M75.5,39.5V28.9c0-2.6,2.6-4.5,5.2-3c2.1,1.2,43.5,25.8,47.1,27.9c2.3,1.4,2.3,4.7,0,6.1
	c-2.5,1.5-44.2,26.3-47.2,28c-2.2,1.3-5.1-0.1-5.1-3V74.3c0-10,17.3-12.9,19.8-14.4c2.3-1.4,2.3-4.7,0-6.1
	C91.8,51.7,75.5,49.5,75.5,39.5L75.5,39.5L75.5,39.5z"/>
</svg>
