<?xml version="1.0" encoding="utf-8"?>
<!-- Generator: Adobe Illustrator 21.1.0, SVG Export Plug-In . SVG Version: 6.00 Build 0)  -->
<svg version="1.1" id="Layer_1" xmlns="http://www.w3.org/2000/svg" xmlns:xlink="http://www.w3.org/1999/xlink" x="0px" y="0px"
	 viewBox="0 0 24 24" style="enable-background:new 0 0 24 24;" xml:space="preserve">
<g id="Layer_2">
	<g transform="translate(0.000000,1024.000000) scale(0.100000,-0.100000)">
		<path d="M69.9,10238.7c-3.2-0.5-5.8-1.8-7.9-4.2c-3.1-3.4-4.3-8.1-3.1-12.3c0.6-2.1,19.4-49,20-49.9c2.2-3.6,5.4-5.7,9.7-6.4
			c5.1-0.8,10.6,1.9,13.3,6.6c1.6,2.7,2.1,6.8,1.2,9.9c-0.8,2.6-19.5,49.1-20.2,50.3C80.2,10237,74.9,10239.5,69.9,10238.7z"/>
		<path d="M144.2,10212c-3.3-0.9-6.2-2.9-7.8-5.5c-1.4-2.2-10.2-24.3-10.5-26.4c-0.5-3.9,1-8.5,3.8-11.2c1.6-1.6,4.2-2.9,6.5-3.4
			c5.6-1.2,11.7,1.5,14.3,6.5c0.4,0.8,2.8,6.5,5.3,12.7c4.2,10.6,4.6,11.6,4.7,13.6c0.1,1.3,0,2.9-0.2,3.8
			C158.6,10209.3,151.1,10213.9,144.2,10212z"/>
		<path d="M216.3,10175c-1.6-0.5-48.1-19-49.7-19.8c-0.7-0.3-1.9-1.3-2.8-2.1c-9-8.5-2.3-23.5,10-22.7c2.1,0.1,3.8,0.8,26.5,9.8
			c13.4,5.3,24.9,10,25.6,10.3c1.6,0.8,4.2,3.3,5.1,4.9c3.2,5.4,2.1,12.5-2.5,16.6C225.3,10175,220.3,10176.2,216.3,10175z"/>
		<path d="M17.4,10172.4c-3.2-0.9-6-2.9-7.8-5.7c-1.5-2.3-2.1-4.8-1.9-8c0.1-2.3,0.3-2.9,1.2-4.8c1.2-2.3,2.9-4.3,4.7-5.5
			c0.6-0.4,9.5-4.2,19.7-8.4c20.1-8.4,20.8-8.6,24.2-8c5.7,1,10.2,5.4,11.2,11.1c0.8,4.8-1.6,10.1-5.7,12.9
			c-1.2,0.8-36.2,15.5-38.8,16.3C22.3,10172.9,19.3,10172.9,17.4,10172.4z"/>
		<path d="M52.2,10109.5c-0.7-0.1-8.8-3.3-18.1-7c-18.6-7.5-19-7.7-21.2-11.1c-1.7-2.4-2.3-4.5-2.2-7.5c0.1-7.6,6.2-13.4,13.8-12.9
			c2.3,0.1,2.8,0.3,18.8,6.7c9,3.6,17,6.9,17.7,7.3c4.2,2.1,7,6.7,7,11.7C68.1,10105,60.3,10111.3,52.2,10109.5z"/>
		<path d="M170.2,10108.1c-2.9-0.5-5.4-1.7-7.4-3.7c-5.8-5.8-4.9-15.6,1.9-20.2c0.6-0.5,9.2-4.4,19.1-8.8c19.9-8.8,20.3-9,24-8.3
			c6.6,1.2,11.1,6.4,11.1,13c0,4.1-1.7,7.7-4.8,10.3c-2.1,1.7-37.3,17.3-40,17.8c-1,0.1-2,0.3-2.2,0.3
			C171.8,10108.3,171,10108.2,170.2,10108.1z"/>
		<path d="M87,10074.9c-4.1-0.7-8-3.3-9.7-6.7c-0.8-1.5-20.1-46.6-20.8-48.5c-0.9-2.3-0.8-5.9,0-8.5c2.8-8.2,12.6-11.5,19.9-6.6
			c1.7,1.1,3.3,2.9,4.2,4.5c1.4,2.7,20.8,48.3,21.2,49.8c0.5,2.2,0.5,3.4,0,5.9c-0.5,2.1-1.9,4.7-3.4,6.3
			C95.6,10073.8,90.9,10075.5,87,10074.9z"/>
		<path d="M134.2,10074c-1.9-0.4-4.6-2-6-3.4c-1.9-1.9-3.1-4.1-3.6-6.6c-0.9-4-1.1-3.3,9.7-30.7c5.4-13.6,10.2-25.3,10.7-26.1
			c3.7-5.7,11.2-7.7,17.4-4.5c1.5,0.8,4.1,3.2,5,4.8c1.9,3.3,2.3,7.5,1.1,11.1c-0.4,1.2-4.9,12.5-10,25.3c-6,15-9.7,23.8-10.3,24.8
			c-1.7,2.5-4.4,4.4-7.5,5.2C139.1,10074.3,135.8,10074.4,134.2,10074z"/>
	</g>
</g>
<g id="Layer_1_1_">
</g>
</svg>
