<svg id="Layer_1" data-name="Layer 1" xmlns="http://www.w3.org/2000/svg" viewBox="0 0 167.49 167.49"><title>spotify</title><path class="cls-1" d="M85,1.28A83.74,83.74,0,1,0,168.77,85,83.74,83.74,0,0,0,85,1.28Zm38.41,120.79a5.22,5.22,0,0,1-7.18,1.74c-19.67-12-44.42-14.73-73.57-8.07a5.22,5.22,0,1,1-2.32-10.17c31.9-7.29,59.26-4.15,81.34,9.33A5.22,5.22,0,0,1,123.43,122.07Zm10.25-22.8a6.53,6.53,0,0,1-9,2.15c-22.5-13.83-56.82-17.84-83.45-9.76a6.53,6.53,0,1,1-3.79-12.49c30.42-9.23,68.23-4.76,94.07,11.13A6.53,6.53,0,0,1,133.68,99.27Zm.88-23.74c-27-16-71.52-17.5-97.29-9.68a7.83,7.83,0,1,1-4.55-15c29.58-9,78.76-7.24,109.83,11.2a7.83,7.83,0,0,1-8,13.47Z" transform="translate(-1.28 -1.28)"/></svg>
