<?xml version="1.0" encoding="utf-8"?>
<!-- Generator: Adobe Illustrator 21.1.0, SVG Export Plug-In . SVG Version: 6.00 Build 0)  -->
<svg version="1.1" xmlns="http://www.w3.org/2000/svg" xmlns:xlink="http://www.w3.org/1999/xlink" x="0px" y="0px"
	 viewBox="0 0 175 90" style="enable-background:new 0 0 175 90;" xml:space="preserve">
<style type="text/css">
	.stripe0{fill:#FFFFFF;}
</style>
<g id="Layer_1">
	<g id="Stripe">
		<path class="stripe0" d="M175.6,46.2c0-12.5-6-22.3-17.6-22.3c-11.6,0-18.6,9.8-18.6,22.2c0,14.7,8.3,22.1,20.2,22.1
			c5.8,0,10.2-1.3,13.5-3.2v-9.7c-3.3,1.7-7.1,2.7-11.9,2.7c-4.7,0-8.9-1.7-9.5-7.4h23.8C175.5,49.9,175.6,47.4,175.6,46.2z
			 M151.6,41.6c0-5.5,3.4-7.8,6.4-7.8c3,0,6.1,2.3,6.1,7.8H151.6z"/>
		<path class="stripe0" d="M120.6,23.9c-4.8,0-7.8,2.2-9.6,3.8l-0.6-3H99.7v56.8l12.2-2.6l0-13.8c1.8,1.3,4.3,3.1,8.6,3.1
			c8.7,0,16.7-7,16.7-22.5C137.2,31.6,129.1,23.9,120.6,23.9z M117.7,57.5c-2.9,0-4.6-1-5.8-2.3l0-18.1c1.3-1.4,3-2.4,5.8-2.4
			c4.4,0,7.5,5,7.5,11.4C125.2,52.6,122.2,57.5,117.7,57.5z"/>
		<polygon class="stripe0" points="82.9,21 95.2,18.4 95.2,8.5 82.9,11.1 		"/>
		<rect x="82.9" y="24.7" class="stripe0" width="12.2" height="42.6"/>
		<path class="stripe0" d="M69.8,28.3l-0.8-3.6H58.5v42.6h12.2V38.5c2.9-3.8,7.7-3.1,9.3-2.5V24.7C78.4,24.1,72.7,23.1,69.8,28.3z"/>
		<path class="stripe0" d="M45.5,14.2l-11.9,2.5l0,39c0,7.2,5.4,12.5,12.6,12.5c4,0,6.9-0.7,8.5-1.6v-9.9c-1.6,0.6-9.3,2.9-9.3-4.3V35.1
			h9.3V24.7h-9.3L45.5,14.2z"/>
		<path class="stripe0" d="M12.5,37.1c0-1.9,1.6-2.6,4.1-2.6c3.7,0,8.4,1.1,12.1,3.1V26.1c-4-1.6-8-2.2-12.1-2.2
			c-9.9,0-16.5,5.2-16.5,13.8c0,13.4,18.5,11.3,18.5,17.1c0,2.2-1.9,3-4.7,3c-4,0-9.2-1.7-13.3-3.9v11.6c4.5,1.9,9.1,2.8,13.3,2.8
			c10.1,0,17.1-5,17.1-13.7C31.1,40,12.5,42.6,12.5,37.1z"/>
	</g>
</g>
<g id="Layer_2">
</g>
</svg>
