<?xml version="1.0" encoding="utf-8"?>
<!-- Generator: Adobe Illustrator 21.1.0, SVG Export Plug-In . SVG Version: 6.00 Build 0)  -->
<svg version="1.1" id="Layer_1" xmlns="http://www.w3.org/2000/svg" xmlns:xlink="http://www.w3.org/1999/xlink" x="0px" y="0px"
	 viewBox="0 0 24 24" style="enable-background:new 0 0 24 24;" xml:space="preserve">
<style type="text/css">
	.st0{display:none;fill:none;stroke:#FFFFFF;stroke-width:2.1192;}
</style>
<g id="Page-1">
	<g id="Sign-up" transform="translate(-688.000000, -45.000000)">
		<g id="logo---tiltify" transform="translate(688.000000, 44.984375)">
			<ellipse id="Oval-1" class="st0" cx="12.2" cy="12.2" rx="14.9" ry="14.9"/>
			<g id="T" transform="translate(15.907502, 12.113156)">
				<path id="Fill-1" class="st1" d="M5-6.1c0-0.6-0.2-1.2-0.7-1.6c-0.5-0.4-1-0.7-1.6-0.7C2-8.4,1.5-8.1,1-7.7
					c-0.5,0.5-0.7,1-0.7,1.6c0,0.6,0.2,1.2,0.7,1.6C1.5-4,2-3.7,2.7-3.7c0.6,0,1.2-0.2,1.6-0.7C4.7-4.9,5-5.4,5-6.1"/>
				<path id="Fill-2" class="st1" d="M3.1-0.6c0,0,0-0.1,0-0.1c0.2-0.9-0.2-1.6-1.3-2.3l-8.8-5.4c-0.2-0.1-0.4-0.3-0.7-0.4
					c0,0,0,0,0,0c-0.7-0.3-1.3-0.3-2,0c-0.7,0.3-1.1,0.7-1.4,1.4c-0.3,0.7-0.3,1.3,0,2c0.1,0.2,0.1,0.3,0.2,0.5
					c0.2,0.3,0.4,0.5,0.7,0.8c0.1,0.1,0.2,0.1,0.4,0.2h0c0,0,0,0,0,0l3.1,1.4L-7.9,7.9c0,0,0,0,0,0c-0.1,1.2,0.5,2,1.8,2.3
					c0,0,0,0,0.1,0c0.6,0.1,1.1-0.1,1.5-0.4C-4,9.5-3.8,9-3.7,8.4L-2.6-1l2.8,1.2c0.9,0.4,1.7,0.4,2.2,0c0.2-0.2,0.4-0.4,0.6-0.7
					L3.1-0.6z"/>
			</g>
		</g>
	</g>
</g>
</svg>
